SplineFontDB: 3.0
FontName: NineParchments
FullName: NineParchments
FamilyName: Nine Parchments
Weight: Book
Version: 1.000
ItalicAngle: 0
UnderlinePosition: -100
UnderlineWidth: 50
Ascent: 800
Descent: 200
InvalidEm: 0
sfntRevision: 0x00010000
LayerCount: 2
Layer: 0 1 "+BBcEMAQ0BD0EOAQ5 +BD8EOwQwBD0A" 1
Layer: 1 1 "+BB8ENQRABDUENAQ9BDgEOQAA +BD8EOwQwBD0A" 0
XUID: [1021 124 470122697 3685]
StyleMap: 0x0040
FSType: 4
OS2Version: 3
OS2_WeightWidthSlopeOnly: 0
OS2_UseTypoMetrics: 0
CreationTime: 1423037331
ModificationTime: 1539049747
PfmFamily: 81
TTFWeight: 400
TTFWidth: 5
LineGap: 36
VLineGap: 0
Panose: 0 0 0 0 0 0 0 0 0 0
OS2TypoAscent: 756
OS2TypoAOffset: 0
OS2TypoDescent: -297
OS2TypoDOffset: 0
OS2TypoLinegap: 36
OS2WinAscent: 873
OS2WinAOffset: 0
OS2WinDescent: 392
OS2WinDOffset: 0
HheadAscent: 756
HheadAOffset: 0
HheadDescent: -297
HheadDOffset: 0
OS2SubXSize: 700
OS2SubYSize: 650
OS2SubXOff: 0
OS2SubYOff: 140
OS2SupXSize: 700
OS2SupYSize: 650
OS2SupXOff: 0
OS2SupYOff: 477
OS2StrikeYSize: 50
OS2StrikeYPos: 250
OS2CapHeight: 756
OS2XHeight: 421
OS2Vendor: 'pyrs'
OS2CodePages: 00000003.00000000
OS2UnicodeRanges: 80000027.00000042.00000000.00000000
DEI: 91125
TtTable: prep
PUSHW_1
 0
CALL
SVTCA[x-axis]
PUSHW_3
 1
 3
 2
CALL
SVTCA[x-axis]
PUSHW_8
 1
 53
 44
 34
 25
 12
 0
 8
CALL
PUSHW_8
 2
 38
 30
 23
 17
 12
 0
 8
CALL
PUSHW_8
 3
 35
 30
 23
 17
 12
 0
 8
CALL
SVTCA[y-axis]
PUSHW_3
 4
 4
 7
CALL
PUSHW_1
 0
DUP
RCVT
RDTG
ROUND[Black]
RTG
WCVTP
EndTTInstrs
TtTable: fpgm
PUSHW_1
 0
FDEF
MPPEM
PUSHW_1
 9
LT
IF
PUSHB_2
 1
 1
INSTCTRL
EIF
PUSHW_1
 511
SCANCTRL
PUSHW_1
 68
SCVTCI
PUSHW_2
 9
 3
SDS
SDB
ENDF
PUSHW_1
 1
FDEF
DUP
DUP
RCVT
ROUND[Black]
WCVTP
PUSHB_1
 1
ADD
ENDF
PUSHW_1
 2
FDEF
PUSHW_1
 1
LOOPCALL
POP
ENDF
PUSHW_1
 3
FDEF
DUP
GC[cur]
PUSHB_1
 3
CINDEX
GC[cur]
GT
IF
SWAP
EIF
DUP
ROLL
DUP
ROLL
MD[grid]
ABS
ROLL
DUP
GC[cur]
DUP
ROUND[Grey]
SUB
ABS
PUSHB_1
 4
CINDEX
GC[cur]
DUP
ROUND[Grey]
SUB
ABS
GT
IF
SWAP
NEG
ROLL
EIF
MDAP[rnd]
DUP
PUSHB_1
 0
GTEQ
IF

StartChar: A
Encoding: 65 65 1
Width: 676
Flags: W
HStem: 1 1<336 338.901> 3 44.5<563.818 624.875> 191 66<275 433> 687.5 64<252 279.39>
VStem: 283 142<620.872 688.514>
LayerCount: 2
Fore
SplineSet
185 262 m 256,0,1
 185 261 185 261 191.5 287 c 128,-1,2
 198 313 198 313 208 353 c 128,-1,3
 218 393 218 393 230 442.5 c 128,-1,4
 242 492 242 492 253 539 c 128,-1,5
 264 586 264 586 272 624.5 c 128,-1,6
 280 663 280 663 283 683 c 0,7,8
 283 689 283 689 279.5 688.5 c 128,-1,9
 276 688 276 688 269 687.5 c 128,-1,10
 262 687 262 687 252 690 c 128,-1,11
 242 693 242 693 230 706 c 1,12,13
 241 714 241 714 245.5 722 c 128,-1,14
 250 730 250 730 252 736 c 0,15,16
 254 743 254 743 252 749 c 1,17,18
 264 753 264 753 274.5 751.5 c 128,-1,19
 285 750 285 750 296 746 c 128,-1,20
 307 742 307 742 318.5 738 c 128,-1,21
 330 734 330 734 344 733 c 0,22,23
 363 732 363 732 385 734.5 c 128,-1,24
 407 737 407 737 427 740 c 0,25,26
 450 744 450 744 472 749 c 1,27,28
 494 743 494 743 494.5 723 c 128,-1,29
 495 703 495 703 484 681 c 1,30,31
 477 686 477 686 468 689 c 0,32,33
 460 691 460 691 449 691 c 128,-1,34
 438 691 438 691 425 685 c 1,35,36
 424 673 424 673 429.5 641 c 128,-1,37
 435 609 435 609 444.5 564 c 128,-1,38
 454 519 454 519 466.5 465.5 c 128,-1,39
 479 412 479 412 492 358 c 0,40,41
 523 231 523 231 562 77 c 0,42,43
 562 67 562 67 571.5 62.5 c 128,-1,44
 581 58 581 58 592.5 55 c 128,-1,45
 604 52 604 52 614 47.5 c 128,-1,46
 624 43 624 43 625 34 c 0,47,48
 627 25 627 25 620.5 15.5 c 128,-1,49
 614 6 614 6 614 4 c 0,50,51
 614 3 614 3 602 3 c 128,-1,52
 590 3 590 3 570.5 2.5 c 128,-1,53
 551 2 551 2 526.5 1.5 c 128,-1,54
 502 1 502 1 477 1 c 128,-1,55
 452 1 452 1 428.5 1.5 c 128,-1,56
 405 2 405 2 388 2 c 0,57,58
 375 2 375 2 383 11 c 128,-1,59
 391 20 391 20 407 31.5 c 128,-1,60
 423 43 423 43 440 55 c 128,-1,61
 457 67 457 67 461 74 c 0,62,63
 469 90 469 90 468 110.5 c 128,-1,64
 467 131 467 131 462 149 c 0,65,66
 457 170 457 170 447 192 c 1,67,-1
 263 191 l 1,68,69
 251 160 251 160 243 134 c 0,70,71
 236 111 236 111 232.5 90.5 c 128,-1,72
 229 70 229 70 236 64 c 0,73,74
 247 54 247 54 263.5 43 c 128,-1,75
 280 32 280 32 296 22.5 c 128,-1,76
 312 13 312 13 324 7 c 128,-1,77
 336 1 336 1 339 2 c 1,78,79
 336 1 336 1 311.5 1 c 128,-1,80
 287 1 287 1 251.5 1 c 128,-1,81
 216 1 216 1 176 1.5 c 128,-1,82
 136 2 136 2 103 2 c 0,83,84
 86 2 86 2 75.5 5 c 128,-1,85
 65 8 65 8 59.5 12.5 c 128,-1,86
 54 17 54 17 52 20.5 c 128,-1,87
 50 24 50 24 51 26 c 0,88,89
 52 27 52 27 51 34 c 128,-1,90
 50 41 50 41 52 48.5 c 128,-1,91
 54 56 54 56 61.5 62.5 c 128,-1,92
 69 69 69 69 87 71 c 1,93,94
 86 68 86 68 92.5 63 c 128,-1,95
 99 58 99 58 108.5 55 c 128,-1,96
 118 52 118 52 127.5 51.5 c 128,-1,97
 137 51 137 51 141 56 c 0,98,99
 150 68 150 68 156.5 89 c 128,-1,100
 163 110 163 110 166.5 131 c 128,-1,101
 170 152 170 152 171 169 c 128,-1,102
 172 186 172 186 171 189 c 0,103,104
 154 195 154 195 140 193 c 128,-1,105
 126 191 126 191 116 186.5 c 128,-1,106
 106 182 106 182 100 178 c 128,-1,107
 94 174 94 174 92 176 c 0,108,109
 79 195 79 195 92 211 c 128,-1,110
 105 227 105 227 125.5 238.5 c 128,-1,111
 146 250 146 250 165.5 256.5 c 128,-1,112
 185 263 185 263 185 262 c 256,0,1
275 257 m 1,113,-1
 433 258 l 1,114,-1
 395 440 l 2,115,116
 388 474 388 474 381 506.5 c 128,-1,117
 374 539 374 539 369 564.5 c 128,-1,118
 364 590 364 590 360.5 605 c 128,-1,119
 357 620 357 620 357 620 c 257,120,121
 357 620 357 620 353.5 604 c 128,-1,122
 350 588 350 588 344 562.5 c 128,-1,123
 338 537 338 537 330.5 504.5 c 128,-1,124
 323 472 323 472 316 438 c 0,125,126
 298 358 298 358 275 257 c 1,113,-1
EndSplineSet
Validated: 37
EndChar

StartChar: B
Encoding: 66 66 2
Width: 615
Flags: W
HStem: 1 81<65.642 139.996> 1 58<218.411 435.1> 213 102<217.117 362.199>
VStem: 133.5 76<315 641> 475 87<92.5165 180.203> 489 75<405.289 555.97>
LayerCount: 2
Fore
SplineSet
140 67 m 0,0,1
 140 121 140 121 139.5 160 c 128,-1,2
 139 199 139 199 138 230 c 128,-1,3
 137 261 137 261 136 288 c 128,-1,4
 135 315 135 315 134 346 c 0,5,6
 133 381 133 381 133.5 417.5 c 128,-1,7
 134 454 134 454 134 494.5 c 128,-1,8
 134 535 134 535 133.5 581 c 128,-1,9
 133 627 133 627 132 680 c 0,10,11
 132 687 132 687 126.5 682.5 c 128,-1,12
 121 678 121 678 113.5 674.5 c 128,-1,13
 106 671 106 671 98 674.5 c 128,-1,14
 90 678 90 678 85 701 c 0,15,16
 82 712 82 712 86 721 c 128,-1,17
 90 730 90 730 98.5 737 c 128,-1,18
 107 744 107 744 118 748 c 128,-1,19
 129 752 129 752 140 754 c 0,20,21
 160 756 160 756 176.5 747 c 128,-1,22
 193 738 193 738 207 726 c 1,23,-1
 207 729 l 1,24,25
 309 744 309 744 388 723 c 0,26,27
 422 714 422 714 454 696 c 128,-1,28
 486 678 486 678 511 647.5 c 128,-1,29
 536 617 536 617 550.5 572 c 128,-1,30
 565 527 565 527 564 463 c 0,31,32
 563 417 563 417 550 385 c 128,-1,33
 537 353 537 353 518 331 c 128,-1,34
 499 309 499 309 476 296.5 c 128,-1,35
 453 284 453 284 431 277.5 c 128,-1,36
 409 271 409 271 390.5 269 c 128,-1,37
 372 267 372 267 363 267 c 1,38,39
 374 266 374 266 394 262.5 c 128,-1,40
 414 259 414 259 437.5 252 c 128,-1,41
 461 245 461 245 485 234 c 128,-1,42
 509 223 509 223 527.5 206 c 128,-1,43
 546 189 546 189 556 166 c 128,-1,44
 566 143 566 143 562 113 c 0,45,46
 556 78 556 78 525 56.5 c 128,-1,47
 494 35 494 35 451.5 23 c 128,-1,48
 409 11 409 11 361 6.5 c 128,-1,49
 313 2 313 2 273 2 c 0,50,51
 253 1 253 1 228 1 c 128,-1,52
 203 1 203 1 177 1 c 128,-1,53
 151 1 151 1 126 1 c 128,-1,54
 101 1 101 1 80 1 c 0,55,56
 70 1 70 1 65.5 5.5 c 128,-1,57
 61 10 61 10 59 19 c 128,-1,58
 57 28 57 28 56 40 c 128,-1,59
 55 52 55 52 51 67 c 0,60,61
 48 82 48 82 62 82 c 128,-1,62
 76 82 76 82 93 76.5 c 128,-1,63
 110 71 110 71 125 66 c 128,-1,64
 140 61 140 61 140 67 c 0,0,1
209 641 m 2,65,66
 209 641 209 641 209 627.5 c 128,-1,67
 209 614 209 614 209 591 c 128,-1,68
 209 568 209 568 209.5 539 c 128,-1,69
 210 510 210 510 210 479 c 0,70,71
 211 407 211 407 213 315 c 1,72,73
 286 309 286 309 346 324 c 0,74,75
 371 330 371 330 395.5 341.5 c 128,-1,76
 420 353 420 353 440 371.5 c 128,-1,77
 460 390 460 390 473.5 416.5 c 128,-1,78
 487 443 487 443 489 480 c 0,79,80
 491 522 491 522 471.5 550 c 128,-1,81
 452 578 452 578 421.5 596 c 128,-1,82
 391 614 391 614 354 623 c 128,-1,83
 317 632 317 632 285 636 c 128,-1,84
 253 640 253 640 231.5 640 c 128,-1,85
 210 640 210 640 209 641 c 2,65,66
220 213 m 2,86,87
 218 213 218 213 217.5 203 c 128,-1,88
 217 193 217 193 217 177 c 128,-1,89
 217 161 217 161 217.5 142 c 128,-1,90
 218 123 218 123 218 106.5 c 128,-1,91
 218 90 218 90 218.5 78.5 c 128,-1,92
 219 67 219 67 219 66 c 256,93,94
 219 65 219 65 238 62.5 c 128,-1,95
 257 60 257 60 285 59 c 128,-1,96
 313 58 313 58 346 59.5 c 128,-1,97
 379 61 379 61 407.5 69.5 c 128,-1,98
 436 78 436 78 455 94 c 128,-1,99
 474 110 474 110 475 137 c 0,100,101
 476 162 476 162 457.5 177 c 128,-1,102
 439 192 439 192 411 200.5 c 128,-1,103
 383 209 383 209 350 212 c 128,-1,104
 317 215 317 215 288 215 c 128,-1,105
 259 215 259 215 239.5 214 c 128,-1,106
 220 213 220 213 220 213 c 2,86,87
EndSplineSet
Validated: 33
EndChar

StartChar: C
Encoding: 67 67 3
Width: 538
Flags: W
HStem: 3.5 64.5<212.188 338.764> 672 69<214.085 316.22>
VStem: 53 75<221.75 517.525> 379 109<173 239.5>
LayerCount: 2
Fore
SplineSet
53 365 m 0,0,1
 51 395 51 395 50.5 432.5 c 128,-1,2
 50 470 50 470 55.5 509 c 128,-1,3
 61 548 61 548 73 586.5 c 128,-1,4
 85 625 85 625 107 657 c 128,-1,5
 129 689 129 689 163 711 c 128,-1,6
 197 733 197 733 246 741 c 0,7,8
 281 744 281 744 311.5 735.5 c 128,-1,9
 342 727 342 727 365 716 c 0,10,11
 391 703 391 703 413 684 c 0,12,13
 424 671 424 671 432 648.5 c 128,-1,14
 440 626 440 626 446 599 c 128,-1,15
 452 572 452 572 456 544.5 c 128,-1,16
 460 517 460 517 462.5 494.5 c 128,-1,17
 465 472 465 472 465.5 458 c 128,-1,18
 466 444 466 444 465 444 c 0,19,20
 463 445 463 445 458 444.5 c 128,-1,21
 453 444 453 444 448 444 c 0,22,23
 442 443 442 443 434 443 c 0,24,25
 423 442 423 442 413.5 434 c 128,-1,26
 404 426 404 426 396.5 416 c 128,-1,27
 389 406 389 406 384.5 398.5 c 128,-1,28
 380 391 380 391 379 392 c 256,29,30
 378 393 378 393 370.5 398 c 128,-1,31
 363 403 363 403 354.5 409 c 128,-1,32
 346 415 346 415 339 420 c 128,-1,33
 332 425 332 425 332 427 c 0,34,35
 332 428 332 428 340.5 436.5 c 128,-1,36
 349 445 349 445 358.5 457 c 128,-1,37
 368 469 368 469 375 481.5 c 128,-1,38
 382 494 382 494 379 505 c 0,39,40
 372 529 372 529 363.5 560 c 128,-1,41
 355 591 355 591 341 617 c 128,-1,42
 327 643 327 643 306 659.5 c 128,-1,43
 285 676 285 676 254 672 c 0,44,45
 231 669 231 669 212.5 649 c 128,-1,46
 194 629 194 629 179.5 600 c 128,-1,47
 165 571 165 571 155 536 c 128,-1,48
 145 501 145 501 138.5 468 c 128,-1,49
 132 435 132 435 129.5 407 c 128,-1,50
 127 379 127 379 128 364 c 0,51,52
 132 300 132 300 144 246 c 128,-1,53
 156 192 156 192 172.5 152.5 c 128,-1,54
 189 113 189 113 210 90.5 c 128,-1,55
 231 68 231 68 254 68 c 0,56,57
 294 67 294 67 318.5 78 c 128,-1,58
 343 89 343 89 356.5 106.5 c 128,-1,59
 370 124 370 124 374.5 144 c 128,-1,60
 379 164 379 164 379 182 c 128,-1,61
 379 200 379 200 377 212 c 128,-1,62
 375 224 375 224 376 225 c 256,63,64
 377 226 377 226 394.5 229 c 128,-1,65
 412 232 412 232 433 234.5 c 128,-1,66
 454 237 454 237 471 238.5 c 128,-1,67
 488 240 488 240 488 239 c 256,68,69
 488 238 488 238 482.5 231.5 c 128,-1,70
 477 225 477 225 470.5 214 c 128,-1,71
 464 203 464 203 459.5 187 c 128,-1,72
 455 171 455 171 458 152 c 0,73,74
 461 139 461 139 456 125 c 128,-1,75
 451 111 451 111 442.5 98 c 128,-1,76
 434 85 434 85 424 73.5 c 128,-1,77
 414 62 414 62 406 55 c 0,78,79
 370 11 370 11 316 3.5 c 128,-1,80
 262 -4 262 -4 203 11 c 0,81,82
 160 23 160 23 133 47 c 128,-1,83
 106 71 106 71 89.5 102 c 128,-1,84
 73 133 73 133 66 168.5 c 128,-1,85
 59 204 59 204 56.5 239.5 c 128,-1,86
 54 275 54 275 54.5 307.5 c 128,-1,87
 55 340 55 340 53 365 c 0,0,1
EndSplineSet
Validated: 33
EndChar

StartChar: D
Encoding: 68 68 4
Width: 557
Flags: W
HStem: 0 68<67.6417 128.997> 3 2<270.641 279.875> 686 56<196 267.578>
VStem: 123 80<56.0066 686> 158.5 39.5<675 692 707 716> 443 63<222.638 490.365>
LayerCount: 2
Fore
SplineSet
129 53 m 0,0,1
 129 107 129 107 128.5 148 c 128,-1,2
 128 189 128 189 127 222.5 c 128,-1,3
 126 256 126 256 125 285.5 c 128,-1,4
 124 315 124 315 124 346 c 0,5,6
 123 381 123 381 123 417.5 c 128,-1,7
 123 454 123 454 123 494.5 c 128,-1,8
 123 535 123 535 122.5 581 c 128,-1,9
 122 627 122 627 121 680 c 0,10,11
 121 687 121 687 116.5 682.5 c 128,-1,12
 112 678 112 678 105 674.5 c 128,-1,13
 98 671 98 671 91 674.5 c 128,-1,14
 84 678 84 678 80 701 c 0,15,16
 76 723 76 723 92.5 737 c 128,-1,17
 109 751 109 751 129 754 c 0,18,19
 147 756 147 756 161.5 752 c 128,-1,20
 176 748 176 748 188 742 c 1,21,22
 209 742 209 742 241 738.5 c 128,-1,23
 273 735 273 735 308.5 721.5 c 128,-1,24
 344 708 344 708 379.5 682.5 c 128,-1,25
 415 657 415 657 443 614 c 128,-1,26
 471 571 471 571 488.5 507.5 c 128,-1,27
 506 444 506 444 506 355 c 0,28,29
 506 259 506 259 484 195.5 c 128,-1,30
 462 132 462 132 429.5 92 c 128,-1,31
 397 52 397 52 358.5 32.5 c 128,-1,32
 320 13 320 13 286 6 c 0,33,34
 284 5 284 5 280 5 c 0,35,36
 276 3 276 3 271.5 3 c 128,-1,37
 267 3 267 3 261 2 c 2,38,-1
 247 0 l 1,39,-1
 219 0 l 2,40,41
 185 -1 185 -1 147.5 -0.5 c 128,-1,42
 110 0 110 0 81 0 c 0,43,44
 72 0 72 0 67.5 2.5 c 128,-1,45
 63 5 63 5 60.5 11.5 c 128,-1,46
 58 18 58 18 56 28 c 128,-1,47
 54 38 54 38 51 53 c 0,48,49
 49 68 49 68 61 68 c 128,-1,50
 73 68 73 68 88 62.5 c 128,-1,51
 103 57 103 57 116 52 c 128,-1,52
 129 47 129 47 129 53 c 0,0,1
213 56 m 0,53,54
 282 71 282 71 335 111 c 0,55,56
 357 128 357 128 378.5 152 c 128,-1,57
 400 176 400 176 415.5 209 c 128,-1,58
 431 242 431 242 439 284.5 c 128,-1,59
 447 327 447 327 443 381 c 0,60,61
 438 448 438 448 419 496.5 c 128,-1,62
 400 545 400 545 374 579 c 128,-1,63
 348 613 348 613 319 633.5 c 128,-1,64
 290 654 290 654 264.5 665.5 c 128,-1,65
 239 677 239 677 220.5 681.5 c 128,-1,66
 202 686 202 686 198 686 c 1,67,68
 201 632 201 632 201 577 c 128,-1,69
 201 522 201 522 203 472 c 0,70,71
 204 397 204 397 204.5 324 c 128,-1,72
 205 251 205 251 206.5 192.5 c 128,-1,73
 208 134 208 134 209.5 95.5 c 128,-1,74
 211 57 211 57 213 53 c 0,75,76
 217 45 217 45 227.5 46 c 128,-1,77
 238 47 238 47 248.5 51 c 128,-1,78
 259 55 259 55 267 58 c 128,-1,79
 275 61 275 61 275 57 c 0,80,81
 275 45 275 45 279.5 36.5 c 128,-1,82
 284 28 284 28 287.5 22.5 c 128,-1,83
 291 17 291 17 292 13.5 c 128,-1,84
 293 10 293 10 287 7 c 0,85,86
 286 6 286 6 286 6 c 2,87,88
 284 6 284 6 283 5.5 c 128,-1,89
 282 5 282 5 280 5 c 0,90,91
 275 3 275 3 270.5 3 c 128,-1,92
 266 3 266 3 261 2 c 2,93,-1
 247 0 l 1,94,-1
 219 0 l 2,95,96
 196 0 196 0 196 2 c 0,97,98
 196 3 196 3 194.5 34.5 c 128,-1,99
 193 66 193 66 190 118 c 128,-1,100
 187 170 187 170 183.5 236 c 128,-1,101
 180 302 180 302 176.5 371 c 128,-1,102
 173 440 173 440 169.5 506 c 128,-1,103
 166 572 166 572 163 623.5 c 128,-1,104
 160 675 160 675 158.5 707 c 128,-1,105
 157 739 157 739 157 739 c 2,106,107
 161 739 161 739 165 740 c 256,108,109
 169 741 169 741 174.5 741 c 128,-1,110
 180 741 180 741 188 742 c 1,111,112
 196 737 196 737 203 732.5 c 128,-1,113
 210 728 210 728 217 726 c 1,114,115
 211 726 211 726 207 724 c 256,116,117
 203 722 203 722 199.5 719 c 128,-1,118
 196 716 196 716 197 710 c 0,119,120
 197 704 197 704 197.5 698 c 128,-1,121
 198 692 198 692 198 686 c 1,122,-1
 197 686 l 2,123,124
 196 686 196 686 196.5 659 c 128,-1,125
 197 632 197 632 198 587.5 c 128,-1,126
 199 543 199 543 200 486.5 c 128,-1,127
 201 430 201 430 202.5 371 c 128,-1,128
 204 312 204 312 205.5 255.5 c 128,-1,129
 207 199 207 199 208.5 154.5 c 128,-1,130
 210 110 210 110 211 83 c 128,-1,131
 212 56 212 56 213 56 c 0,53,54
EndSplineSet
Validated: 37
EndChar

StartChar: E
Encoding: 69 69 5
Width: 537
Flags: W
HStem: 0 82<62.1265 139.996> 732 20G<136.5 486>
VStem: 134 74<72.2239 383.45 424 642.81> 381 48<91.6471 176.038>
LayerCount: 2
Fore
SplineSet
140 67 m 0,0,1
 140 121 140 121 139.5 160 c 128,-1,2
 139 199 139 199 138 230 c 128,-1,3
 137 261 137 261 136 288 c 128,-1,4
 135 315 135 315 134 346 c 0,5,6
 133 381 133 381 133.5 417.5 c 128,-1,7
 134 454 134 454 134 494.5 c 128,-1,8
 134 535 134 535 133.5 581 c 128,-1,9
 133 627 133 627 132 680 c 0,10,11
 132 687 132 687 126.5 682.5 c 128,-1,12
 121 678 121 678 113.5 674.5 c 128,-1,13
 106 671 106 671 98 674.5 c 128,-1,14
 90 678 90 678 85 701 c 0,15,16
 82 712 82 712 86.5 721.5 c 128,-1,17
 91 731 91 731 99.5 738 c 128,-1,18
 108 745 108 745 119.5 748.5 c 128,-1,19
 131 752 131 752 142 752 c 2,20,-1
 486 752 l 1,21,22
 470 737 470 737 458 720 c 0,23,24
 447 706 447 706 437 689 c 128,-1,25
 427 672 427 672 423 656 c 256,26,27
 419 640 419 640 421.5 620 c 128,-1,28
 424 600 424 600 428.5 583 c 128,-1,29
 433 566 433 566 437 554.5 c 128,-1,30
 441 543 441 543 441 544 c 256,31,32
 441 545 441 545 422.5 538 c 128,-1,33
 404 531 404 531 382.5 525 c 128,-1,34
 361 519 361 519 343.5 518.5 c 128,-1,35
 326 518 326 518 329 530 c 0,36,37
 333 544 333 544 342.5 560.5 c 128,-1,38
 352 577 352 577 358 593.5 c 128,-1,39
 364 610 364 610 362 625.5 c 128,-1,40
 360 641 360 641 342 653 c 0,41,42
 338 656 338 656 329 659.5 c 128,-1,43
 320 663 320 663 308.5 666.5 c 128,-1,44
 297 670 297 670 283.5 673.5 c 128,-1,45
 270 677 270 677 258 680 c 1,46,47
 239 663 239 663 229 641 c 128,-1,48
 219 619 219 619 214 594.5 c 128,-1,49
 209 570 209 570 208.5 544 c 128,-1,50
 208 518 208 518 208 494 c 0,51,52
 208 476 208 476 208.5 458.5 c 128,-1,53
 209 441 209 441 209 424 c 1,54,55
 215 426 215 426 221 428 c 128,-1,56
 227 430 227 430 232 432 c 0,57,58
 238 434 238 434 244 436 c 0,59,60
 283 438 283 438 314 438 c 0,61,62
 340 438 340 438 360.5 436 c 128,-1,63
 381 434 381 434 379 428 c 0,64,65
 376 419 376 419 370 414.5 c 128,-1,66
 364 410 364 410 361 402.5 c 128,-1,67
 358 395 358 395 360 382 c 128,-1,68
 362 369 362 369 376 344 c 1,69,70
 339 357 339 357 306 367 c 0,71,72
 278 375 278 375 250.5 380.5 c 128,-1,73
 223 386 223 386 209 382 c 1,74,75
 209 325 209 325 209.5 272 c 128,-1,76
 210 219 210 219 210.5 177 c 128,-1,77
 211 135 211 135 212 107 c 128,-1,78
 213 79 213 79 216 72 c 1,79,80
 229 70 229 70 251.5 72 c 128,-1,81
 274 74 274 74 297 77.5 c 128,-1,82
 320 81 320 81 339 85.5 c 128,-1,83
 358 90 358 90 364 94 c 0,84,85
 381 104 381 104 381 119 c 128,-1,86
 381 134 381 134 373.5 150 c 128,-1,87
 366 166 366 166 355.5 181.5 c 128,-1,88
 345 197 345 197 342 210 c 0,89,90
 340 218 340 218 347 220 c 128,-1,91
 354 222 354 222 365.5 220.5 c 128,-1,92
 377 219 377 219 391 215 c 128,-1,93
 405 211 405 211 417.5 207 c 128,-1,94
 430 203 430 203 438 200 c 128,-1,95
 446 197 446 197 446 197 c 2,96,97
 446 198 446 198 442 187.5 c 128,-1,98
 438 177 438 177 434.5 161 c 128,-1,99
 431 145 431 145 429 127 c 128,-1,100
 427 109 427 109 431 94 c 0,101,102
 433 79 433 79 442.5 62.5 c 128,-1,103
 452 46 452 46 462 32 c 0,104,105
 473 15 473 15 487 0 c 1,106,-1
 76 0 l 2,107,108
 66 0 66 0 62 5 c 128,-1,109
 58 10 58 10 57 18.5 c 128,-1,110
 56 27 56 27 55.5 39.5 c 128,-1,111
 55 52 55 52 51 67 c 0,112,113
 48 82 48 82 62 82 c 128,-1,114
 76 82 76 82 93 76.5 c 128,-1,115
 110 71 110 71 125 66 c 128,-1,116
 140 61 140 61 140 67 c 0,0,1
EndSplineSet
Validated: 37
EndChar

StartChar: F
Encoding: 70 70 6
Width: 535
Flags: W
HStem: 0 82<62.1265 139.996> 379.5 57.5<214.057 337.318> 732 20G<131 485>
VStem: 134 76<68.6838 373 414 639.662>
LayerCount: 2
Fore
SplineSet
222 374 m 0,0,1
 216 365 216 365 211 373 c 1,2,3
 211 314 211 314 211.5 260 c 128,-1,4
 212 206 212 206 212.5 164 c 128,-1,5
 213 122 213 122 214.5 96 c 128,-1,6
 216 70 216 70 219 67 c 0,7,8
 224 59 224 59 235.5 60 c 128,-1,9
 247 61 247 61 258.5 65 c 128,-1,10
 270 69 270 69 279 72 c 128,-1,11
 288 75 288 75 288 71 c 0,12,13
 289 59 289 59 293 46 c 128,-1,14
 297 33 297 33 300 22.5 c 128,-1,15
 303 12 303 12 303 5.5 c 128,-1,16
 303 -1 303 -1 296 -1 c 0,17,18
 282 0 282 0 256 0 c 128,-1,19
 230 0 230 0 199 0 c 128,-1,20
 168 0 168 0 135.5 0 c 128,-1,21
 103 0 103 0 76 0 c 0,22,23
 66 0 66 0 62 5 c 128,-1,24
 58 10 58 10 57 18.5 c 128,-1,25
 56 27 56 27 55.5 39.5 c 128,-1,26
 55 52 55 52 51 67 c 0,27,28
 48 82 48 82 62 82 c 128,-1,29
 76 82 76 82 93 76.5 c 128,-1,30
 110 71 110 71 125 66 c 128,-1,31
 140 61 140 61 140 67 c 0,32,33
 140 121 140 121 139.5 160 c 128,-1,34
 139 199 139 199 138 230 c 128,-1,35
 137 261 137 261 136 288 c 128,-1,36
 135 315 135 315 134 346 c 0,37,38
 133 381 133 381 133.5 417.5 c 128,-1,39
 134 454 134 454 134 494.5 c 128,-1,40
 134 535 134 535 133.5 581 c 128,-1,41
 133 627 133 627 132 680 c 0,42,43
 132 687 132 687 126.5 682.5 c 128,-1,44
 121 678 121 678 113.5 674.5 c 128,-1,45
 106 671 106 671 98 674.5 c 128,-1,46
 90 678 90 678 85 701 c 0,47,48
 82 711 82 711 86 720.5 c 128,-1,49
 90 730 90 730 97.5 736.5 c 128,-1,50
 105 743 105 743 115.5 747.5 c 128,-1,51
 126 752 126 752 136 752 c 2,52,-1
 485 752 l 1,53,54
 470 737 470 737 458 720 c 0,55,56
 447 706 447 706 437 689 c 128,-1,57
 427 672 427 672 423 656 c 256,58,59
 419 640 419 640 421.5 620 c 128,-1,60
 424 600 424 600 428.5 583 c 128,-1,61
 433 566 433 566 437 554.5 c 128,-1,62
 441 543 441 543 441 544 c 256,63,64
 441 545 441 545 422.5 538 c 128,-1,65
 404 531 404 531 382.5 525 c 128,-1,66
 361 519 361 519 343.5 518.5 c 128,-1,67
 326 518 326 518 329 530 c 0,68,69
 333 544 333 544 342.5 560.5 c 128,-1,70
 352 577 352 577 358 593.5 c 128,-1,71
 364 610 364 610 362 625.5 c 128,-1,72
 360 641 360 641 342 653 c 0,73,74
 333 659 333 659 309 667 c 128,-1,75
 285 675 285 675 264 679 c 1,76,77
 243 662 243 662 232 640 c 128,-1,78
 221 618 221 618 216 593 c 128,-1,79
 211 568 211 568 210.5 542 c 128,-1,80
 210 516 210 516 210 491 c 0,81,82
 210 471 210 471 210.5 452 c 128,-1,83
 211 433 211 433 211 414 c 1,84,85
 217 416 217 416 226 419.5 c 128,-1,86
 235 423 235 423 244 426 c 0,87,88
 254 430 254 430 265 433 c 0,89,90
 299 436 299 436 325 437 c 0,91,92
 347 438 347 438 364 436 c 128,-1,93
 381 434 381 434 379 428 c 0,94,95
 376 419 376 419 370 414.5 c 128,-1,96
 364 410 364 410 361 402.5 c 128,-1,97
 358 395 358 395 360 382 c 128,-1,98
 362 369 362 369 376 344 c 1,99,100
 338 358 338 358 306 368 c 0,101,102
 279 376 279 376 254 379.5 c 128,-1,103
 229 383 229 383 222 374 c 0,0,1
EndSplineSet
Validated: 37
EndChar

StartChar: G
Encoding: 71 71 7
Width: 535
Flags: W
HStem: 3.5 64.5<212.188 324.328> 682 69<214.244 314.242>
VStem: 53 75<221.75 521.609> 372.5 79<120.438 248.844>
LayerCount: 2
Fore
SplineSet
53 365 m 0,0,1
 51 395 51 395 50.5 433 c 128,-1,2
 50 471 50 471 55.5 511.5 c 128,-1,3
 61 552 61 552 73 591.5 c 128,-1,4
 85 631 85 631 107 664 c 128,-1,5
 129 697 129 697 163 720 c 128,-1,6
 197 743 197 743 246 751 c 0,7,8
 281 754 281 754 311.5 744.5 c 128,-1,9
 342 735 342 735 365 721 c 0,10,11
 391 705 391 705 413 684 c 0,12,13
 424 671 424 671 432 648.5 c 128,-1,14
 440 626 440 626 446 599 c 128,-1,15
 452 572 452 572 456 544.5 c 128,-1,16
 460 517 460 517 462.5 494.5 c 128,-1,17
 465 472 465 472 465.5 458 c 128,-1,18
 466 444 466 444 465 444 c 0,19,20
 463 445 463 445 458 444.5 c 128,-1,21
 453 444 453 444 448 444 c 0,22,23
 442 443 442 443 434 443 c 0,24,25
 423 442 423 442 413.5 434 c 128,-1,26
 404 426 404 426 396.5 416 c 128,-1,27
 389 406 389 406 384.5 398.5 c 128,-1,28
 380 391 380 391 379 392 c 256,29,30
 378 393 378 393 370.5 398 c 128,-1,31
 363 403 363 403 354.5 409 c 128,-1,32
 346 415 346 415 339 420 c 128,-1,33
 332 425 332 425 332 427 c 0,34,35
 332 428 332 428 340.5 436.5 c 128,-1,36
 349 445 349 445 358.5 457 c 128,-1,37
 368 469 368 469 375 481.5 c 128,-1,38
 382 494 382 494 379 505 c 0,39,40
 372 529 372 529 363.5 561.5 c 128,-1,41
 355 594 355 594 341 622 c 128,-1,42
 327 650 327 650 306 668 c 128,-1,43
 285 686 285 686 254 682 c 0,44,45
 231 679 231 679 212.5 658.5 c 128,-1,46
 194 638 194 638 179.5 607.5 c 128,-1,47
 165 577 165 577 155 541 c 128,-1,48
 145 505 145 505 138.5 470.5 c 128,-1,49
 132 436 132 436 129.5 407.5 c 128,-1,50
 127 379 127 379 128 364 c 0,51,52
 132 300 132 300 144 246 c 128,-1,53
 156 192 156 192 172.5 152.5 c 128,-1,54
 189 113 189 113 210 90.5 c 128,-1,55
 231 68 231 68 254 68 c 0,56,57
 294 67 294 67 318 84.5 c 128,-1,58
 342 102 342 102 355 128.5 c 128,-1,59
 368 155 368 155 372.5 186.5 c 128,-1,60
 377 218 377 218 377 246 c 1,61,62
 367 252 367 252 346 248 c 128,-1,63
 325 244 325 244 303 236 c 0,64,65
 277 227 277 227 248 214 c 1,66,67
 261 239 261 239 263.5 256 c 128,-1,68
 266 273 266 273 262.5 286 c 128,-1,69
 259 299 259 299 253.5 308 c 128,-1,70
 248 317 248 317 245 325 c 0,71,72
 242 331 242 331 256.5 333 c 128,-1,73
 271 335 271 335 289 334 c 0,74,75
 310 333 310 333 338 330 c 0,76,77
 344 328 344 328 350 326 c 0,78,79
 355 324 355 324 361 322 c 128,-1,80
 367 320 367 320 374 318 c 0,81,82
 378 320 378 320 396 324.5 c 128,-1,83
 414 329 414 329 434 333.5 c 128,-1,84
 454 338 454 338 469.5 341 c 128,-1,85
 485 344 485 344 485 343 c 256,86,87
 485 342 485 342 479.5 335.5 c 128,-1,88
 474 329 474 329 467.5 318 c 128,-1,89
 461 307 461 307 457 291 c 128,-1,90
 453 275 453 275 456 256 c 0,91,92
 458 243 458 243 457.5 218.5 c 128,-1,93
 457 194 457 194 451.5 165 c 128,-1,94
 446 136 446 136 435.5 106.5 c 128,-1,95
 425 77 425 77 406 55 c 0,96,97
 370 11 370 11 316 3.5 c 128,-1,98
 262 -4 262 -4 203 11 c 0,99,100
 160 23 160 23 133 47 c 128,-1,101
 106 71 106 71 89.5 102 c 128,-1,102
 73 133 73 133 66 168.5 c 128,-1,103
 59 204 59 204 56.5 239.5 c 128,-1,104
 54 275 54 275 54.5 307.5 c 128,-1,105
 55 340 55 340 53 365 c 0,0,1
EndSplineSet
Validated: 33
EndChar

StartChar: w
Encoding: 119 119 8
Width: 976
Flags: W
LayerCount: 2
Fore
SplineSet
926 394 m 1,0,-1
 710 53 l 1,1,2
 714 46 714 46 723 45 c 128,-1,3
 732 44 732 44 740 44.5 c 128,-1,4
 748 45 748 45 754.5 46 c 128,-1,5
 761 47 761 47 761 43 c 0,6,7
 762 31 762 31 766 23 c 128,-1,8
 770 15 770 15 774 10 c 128,-1,9
 778 5 778 5 779 3 c 128,-1,10
 780 1 780 1 774 1 c 0,11,12
 763 1 763 1 740.5 1 c 128,-1,13
 718 1 718 1 691 1 c 128,-1,14
 664 1 664 1 636.5 1 c 128,-1,15
 609 1 609 1 588 1 c 0,16,17
 581 1 581 1 578.5 4 c 128,-1,18
 576 7 576 7 575 13 c 128,-1,19
 574 19 574 19 573.5 29.5 c 128,-1,20
 573 40 573 40 570 55 c 256,21,22
 567 70 567 70 578 70 c 128,-1,23
 589 70 589 70 602.5 65 c 128,-1,24
 616 60 616 60 626.5 55 c 128,-1,25
 637 50 637 50 635 55 c 0,26,27
 610 123 610 123 576.5 173.5 c 128,-1,28
 543 224 543 224 508 267 c 1,29,-1
 352 53 l 1,30,31
 356 46 356 46 364.5 45 c 128,-1,32
 373 44 373 44 381.5 44.5 c 128,-1,33
 390 45 390 45 396 46 c 128,-1,34
 402 47 402 47 402 43 c 0,35,36
 403 31 403 31 407 23 c 128,-1,37
 411 15 411 15 415 10 c 128,-1,38
 419 5 419 5 420 3 c 128,-1,39
 421 1 421 1 415 1 c 0,40,41
 405 1 405 1 383 1 c 128,-1,42
 361 1 361 1 334.5 1 c 128,-1,43
 308 1 308 1 280 1 c 128,-1,44
 252 1 252 1 231 1 c 0,45,46
 224 1 224 1 221 4 c 128,-1,47
 218 7 218 7 217 13 c 128,-1,48
 216 19 216 19 215.5 29.5 c 128,-1,49
 215 40 215 40 212 55 c 256,50,51
 209 70 209 70 219.5 70 c 128,-1,52
 230 70 230 70 243.5 65 c 128,-1,53
 257 60 257 60 268 55 c 128,-1,54
 279 50 279 50 278 55 c 0,55,56
 260 103 260 103 237 144 c 128,-1,57
 214 185 214 185 188.5 220.5 c 128,-1,58
 163 256 163 256 137 286.5 c 128,-1,59
 111 317 111 317 89 346 c 1,60,61
 89 353 89 353 84.5 348.5 c 128,-1,62
 80 344 80 344 74 340.5 c 128,-1,63
 68 337 68 337 61.5 340.5 c 128,-1,64
 55 344 55 344 51 367 c 0,65,66
 49 378 49 378 52 387 c 128,-1,67
 55 396 55 396 61.5 403 c 128,-1,68
 68 410 68 410 76 414 c 128,-1,69
 84 418 84 418 92 420 c 0,70,71
 106 422 106 422 118.5 414.5 c 128,-1,72
 131 407 131 407 141 396 c 128,-1,73
 151 385 151 385 159 374.5 c 128,-1,74
 167 364 167 364 173 361 c 0,75,76
 189 363 189 363 200 364 c 0,77,78
 210 365 210 365 215.5 364 c 128,-1,79
 221 363 221 363 216 359 c 0,80,81
 195 344 195 344 191.5 329.5 c 128,-1,82
 188 315 188 315 195 299 c 128,-1,83
 202 283 202 283 217 263.5 c 128,-1,84
 232 244 232 244 247 218 c 0,85,86
 265 176 265 176 279 148 c 128,-1,87
 293 120 293 120 304 102 c 1,88,-1
 466 318 l 1,89,-1
 451 337 l 2,90,91
 450 344 450 344 445.5 339.5 c 128,-1,92
 441 335 441 335 435 331.5 c 128,-1,93
 429 328 429 328 423 331.5 c 128,-1,94
 417 335 417 335 413 358 c 0,95,96
 409 380 409 380 423.5 394 c 128,-1,97
 438 408 438 408 454 411 c 0,98,99
 468 413 468 413 480 405.5 c 128,-1,100
 492 398 492 398 502.5 387 c 128,-1,101
 513 376 513 376 521 365.5 c 128,-1,102
 529 355 529 355 535 352 c 0,103,104
 553 353 553 353 566 354 c 0,105,106
 577 354 577 354 584 353.5 c 128,-1,107
 591 353 591 353 586 349 c 0,108,109
 565 334 565 334 561 323 c 128,-1,110
 557 312 557 312 563 300 c 128,-1,111
 569 288 569 288 582.5 272 c 128,-1,112
 596 256 596 256 611 230 c 0,113,114
 628 194 628 194 643 166.5 c 128,-1,115
 658 139 658 139 670 119 c 1,116,-1
 842 395 l 1,117,-1
 926 394 l 1,0,-1
EndSplineSet
Validated: 33
EndChar

StartChar: s
Encoding: 115 115 9
Width: 433
Flags: W
LayerCount: 2
Fore
SplineSet
61 140 m 1,0,1
 74 116 74 116 95 97 c 0,2,3
 113 80 113 80 142 65 c 128,-1,4
 171 50 171 50 214 48 c 1,5,6
 263 52 263 52 287.5 64.5 c 128,-1,7
 312 77 312 77 317.5 94 c 128,-1,8
 323 111 323 111 310.5 130.5 c 128,-1,9
 298 150 298 150 273.5 167 c 128,-1,10
 249 184 249 184 214.5 197.5 c 128,-1,11
 180 211 180 211 140 215 c 0,12,13
 118 217 118 217 104 228.5 c 128,-1,14
 90 240 90 240 81.5 256 c 128,-1,15
 73 272 73 272 70.5 289 c 128,-1,16
 68 306 68 306 68 319 c 0,17,18
 69 340 69 340 80.5 356.5 c 128,-1,19
 92 373 92 373 111 385 c 128,-1,20
 130 397 130 397 154.5 405 c 128,-1,21
 179 413 179 413 207 417 c 0,22,23
 253 423 253 423 292 415 c 128,-1,24
 331 407 331 407 354.5 391 c 128,-1,25
 378 375 378 375 381.5 353.5 c 128,-1,26
 385 332 385 332 358 310 c 1,27,28
 343 330 343 330 323 346 c 0,29,30
 305 360 305 360 278.5 370 c 128,-1,31
 252 380 252 380 214 379 c 0,32,33
 186 376 186 376 166.5 363.5 c 128,-1,34
 147 351 147 351 144 334 c 128,-1,35
 141 317 141 317 158 298.5 c 128,-1,36
 175 280 175 280 219 265 c 0,37,38
 250 254 250 254 278.5 244.5 c 128,-1,39
 307 235 307 235 329.5 221.5 c 128,-1,40
 352 208 352 208 366 187.5 c 128,-1,41
 380 167 380 167 382 135 c 0,42,43
 383 111 383 111 369.5 87 c 128,-1,44
 356 63 356 63 333 44 c 128,-1,45
 310 25 310 25 279 13.5 c 128,-1,46
 248 2 248 2 214 2 c 0,47,48
 188 2 188 2 162 5.5 c 128,-1,49
 136 9 136 9 113.5 18 c 128,-1,50
 91 27 91 27 74.5 41 c 128,-1,51
 58 55 58 55 52 76 c 0,52,53
 50 85 50 85 51 96 c 128,-1,54
 52 107 52 107 54 117 c 0,55,56
 57 128 57 128 61 140 c 1,0,1
EndSplineSet
Validated: 33
EndChar

StartChar: H
Encoding: 72 72 10
Width: 758
Flags: W
HStem: 0 79<113.127 188 449.126 524> 191 66<140.034 186 281 522>
VStem: 184 96<66.1322 191 257 639.238> 519 96<64.1335 187 261 637.238>
LayerCount: 2
Fore
SplineSet
188 66 m 0,0,1
 188 105 188 105 188 135.5 c 128,-1,2
 188 166 188 166 187 191 c 1,3,-1
 124 191 l 2,4,5
 124 192 124 192 112.5 190 c 128,-1,6
 101 188 101 188 87 186 c 128,-1,7
 73 184 73 184 61.5 182 c 128,-1,8
 50 180 50 180 50 181 c 256,9,10
 50 182 50 182 63.5 194 c 128,-1,11
 77 206 77 206 93.5 221 c 128,-1,12
 110 236 110 236 124 248.5 c 128,-1,13
 138 261 138 261 140 263 c 1,14,15
 141 260 141 260 153 259 c 128,-1,16
 165 258 165 258 186 257 c 1,17,18
 186 279 186 279 185.5 300 c 128,-1,19
 185 321 185 321 185 345 c 0,20,21
 184 380 184 380 184 416.5 c 128,-1,22
 184 453 184 453 184 493.5 c 128,-1,23
 184 534 184 534 184 580 c 128,-1,24
 184 626 184 626 183 679 c 0,25,26
 183 686 183 686 177.5 681.5 c 128,-1,27
 172 677 172 677 164 673.5 c 128,-1,28
 156 670 156 670 147.5 673.5 c 128,-1,29
 139 677 139 677 134 700 c 0,30,31
 132 711 132 711 136 720 c 128,-1,32
 140 729 140 729 148.5 736 c 128,-1,33
 157 743 157 743 167.5 747 c 128,-1,34
 178 751 178 751 188 753 c 0,35,36
 207 755 207 755 223 747.5 c 128,-1,37
 239 740 239 740 252.5 729 c 128,-1,38
 266 718 266 718 276.5 707.5 c 128,-1,39
 287 697 287 697 295 694 c 0,40,41
 316 696 316 696 331 697 c 0,42,43
 344 698 344 698 351.5 697 c 128,-1,44
 359 696 359 696 352 692 c 0,45,46
 325 677 325 677 310 653.5 c 128,-1,47
 295 630 295 630 288 603 c 128,-1,48
 281 576 281 576 280 547 c 128,-1,49
 279 518 279 518 280 490 c 0,50,51
 281 429 281 429 280.5 370 c 128,-1,52
 280 311 280 311 281 257 c 1,53,54
 341 257 341 257 406 258.5 c 128,-1,55
 471 260 471 260 522 261 c 1,56,57
 521 281 521 281 520.5 300.5 c 128,-1,58
 520 320 520 320 520 343 c 0,59,60
 519 378 519 378 519 414.5 c 128,-1,61
 519 451 519 451 519 491.5 c 128,-1,62
 519 532 519 532 519 578 c 128,-1,63
 519 624 519 624 517 677 c 0,64,65
 517 684 517 684 511.5 679.5 c 128,-1,66
 506 675 506 675 498 671.5 c 128,-1,67
 490 668 490 668 482 671.5 c 128,-1,68
 474 675 474 675 469 698 c 0,69,70
 467 709 467 709 471 718 c 128,-1,71
 475 727 475 727 483.5 734 c 128,-1,72
 492 741 492 741 502.5 745 c 128,-1,73
 513 749 513 749 524 751 c 0,74,75
 542 753 542 753 558 745.5 c 128,-1,76
 574 738 574 738 587.5 727 c 128,-1,77
 601 716 601 716 611.5 705.5 c 128,-1,78
 622 695 622 695 630 692 c 0,79,80
 651 694 651 694 666 695 c 0,81,82
 679 696 679 696 687 695 c 128,-1,83
 695 694 695 694 688 690 c 0,84,85
 660 675 660 675 645 651.5 c 128,-1,86
 630 628 630 628 623 601 c 128,-1,87
 616 574 616 574 615 545 c 128,-1,88
 614 516 614 516 614 488 c 0,89,90
 615 413 615 413 615.5 339.5 c 128,-1,91
 616 266 616 266 616.5 206 c 128,-1,92
 617 146 617 146 618.5 107 c 128,-1,93
 620 68 620 68 623 64 c 0,94,95
 628 56 628 56 639.5 57 c 128,-1,96
 651 58 651 58 662.5 62 c 128,-1,97
 674 66 674 66 683 69 c 128,-1,98
 692 72 692 72 692 68 c 0,99,100
 693 56 693 56 697 43.5 c 128,-1,101
 701 31 701 31 704.5 21.5 c 128,-1,102
 708 12 708 12 707.5 6 c 128,-1,103
 707 0 707 0 699 0 c 0,104,105
 685 0 685 0 657 0 c 128,-1,106
 629 0 629 0 594.5 0 c 128,-1,107
 560 0 560 0 525 0 c 128,-1,108
 490 0 490 0 463 0 c 0,109,110
 453 0 453 0 449 4.5 c 128,-1,111
 445 9 445 9 443.5 17 c 128,-1,112
 442 25 442 25 441.5 37 c 128,-1,113
 441 49 441 49 438 64 c 0,114,115
 434 79 434 79 447 79 c 128,-1,116
 460 79 460 79 477 73.5 c 128,-1,117
 494 68 494 68 509 63 c 128,-1,118
 524 58 524 58 524 64 c 0,119,120
 524 102 524 102 524 132 c 128,-1,121
 524 162 524 162 523 187 c 1,122,-1
 281 191 l 1,123,124
 282 137 282 137 283.5 103.5 c 128,-1,125
 285 70 285 70 287 66 c 0,126,127
 292 58 292 58 303.5 59 c 128,-1,128
 315 60 315 60 326.5 64 c 128,-1,129
 338 68 338 68 347 71 c 128,-1,130
 356 74 356 74 356 70 c 0,131,132
 357 58 357 58 361.5 45 c 128,-1,133
 366 32 366 32 369 22 c 128,-1,134
 372 12 372 12 372 6 c 128,-1,135
 372 0 372 0 364 0 c 0,136,137
 351 0 351 0 322.5 0 c 128,-1,138
 294 0 294 0 259.5 0 c 128,-1,139
 225 0 225 0 190 0 c 128,-1,140
 155 0 155 0 128 0 c 0,141,142
 117 0 117 0 113 4.5 c 128,-1,143
 109 9 109 9 107.5 18 c 128,-1,144
 106 27 106 27 105.5 39 c 128,-1,145
 105 51 105 51 102 66 c 0,146,147
 98 81 98 81 111 81 c 128,-1,148
 124 81 124 81 141 75.5 c 128,-1,149
 158 70 158 70 173 65 c 128,-1,150
 188 60 188 60 188 66 c 0,0,1
EndSplineSet
Validated: 33
EndChar

StartChar: I
Encoding: 73 73 11
Width: 373
Flags: W
HStem: 0 82<63.1265 139.996>
VStem: 134 97<68.6838 641.234>
LayerCount: 2
Fore
SplineSet
140 67 m 0,0,1
 140 121 140 121 139.5 160 c 128,-1,2
 139 199 139 199 138 230 c 128,-1,3
 137 261 137 261 136 288 c 128,-1,4
 135 315 135 315 134 346 c 0,5,6
 133 381 133 381 133.5 417.5 c 128,-1,7
 134 454 134 454 134 494.5 c 128,-1,8
 134 535 134 535 133.5 581 c 128,-1,9
 133 627 133 627 132 680 c 0,10,11
 132 687 132 687 126.5 682.5 c 128,-1,12
 121 678 121 678 113.5 674.5 c 128,-1,13
 106 671 106 671 98 674.5 c 128,-1,14
 90 678 90 678 85 701 c 0,15,16
 82 712 82 712 86 721 c 128,-1,17
 90 730 90 730 98.5 737 c 128,-1,18
 107 744 107 744 118 748 c 128,-1,19
 129 752 129 752 140 754 c 0,20,21
 158 756 158 756 174 748.5 c 128,-1,22
 190 741 190 741 203 730 c 128,-1,23
 216 719 216 719 226.5 708.5 c 128,-1,24
 237 698 237 698 245 695 c 0,25,26
 266 697 266 697 281 698 c 0,27,28
 294 699 294 699 302 698 c 128,-1,29
 310 697 310 697 302 693 c 0,30,31
 275 678 275 678 260 654.5 c 128,-1,32
 245 631 245 631 238 604 c 128,-1,33
 231 577 231 577 230 548 c 128,-1,34
 229 519 229 519 230 491 c 0,35,36
 231 416 231 416 231 342.5 c 128,-1,37
 231 269 231 269 231.5 209 c 128,-1,38
 232 149 232 149 233 110 c 128,-1,39
 234 71 234 71 237 67 c 0,40,41
 242 59 242 59 253.5 60 c 128,-1,42
 265 61 265 61 276.5 65 c 128,-1,43
 288 69 288 69 297 72 c 128,-1,44
 306 75 306 75 306 71 c 0,45,46
 307 59 307 59 312 46 c 128,-1,47
 317 33 317 33 320 23 c 128,-1,48
 323 13 323 13 322.5 6.5 c 128,-1,49
 322 0 322 0 314 0 c 2,50,-1
 77 0 l 2,51,52
 67 0 67 0 63 5 c 128,-1,53
 59 10 59 10 57.5 18.5 c 128,-1,54
 56 27 56 27 55.5 39.5 c 128,-1,55
 55 52 55 52 51 67 c 0,56,57
 48 82 48 82 62 82 c 128,-1,58
 76 82 76 82 93 76.5 c 128,-1,59
 110 71 110 71 125 66 c 128,-1,60
 140 61 140 61 140 67 c 0,0,1
EndSplineSet
Validated: 33
EndChar

StartChar: J
Encoding: 74 74 12
Width: 581
Flags: W
HStem: -1.5 85.5<221.497 328.132> 29 45.5<343 367>
VStem: 78.5 97.5<128.822 331.974> 373 111<600.021 666.555> 389 87<367 450 452 513.032> 396 80<350 409>
LayerCount: 2
Fore
SplineSet
389 70 m 0,0,1
 390 125 390 125 391 162 c 128,-1,2
 392 199 392 199 393.5 228 c 128,-1,3
 395 257 395 257 395.5 282 c 128,-1,4
 396 307 396 307 396 338 c 0,5,6
 394 409 394 409 385.5 492.5 c 128,-1,7
 377 576 377 576 373 675 c 0,8,9
 373 682 373 682 367 677.5 c 128,-1,10
 361 673 361 673 353 669.5 c 128,-1,11
 345 666 345 666 337 669.5 c 128,-1,12
 329 673 329 673 324 696 c 0,13,14
 321 707 321 707 325.5 716 c 128,-1,15
 330 725 330 725 338.5 732 c 128,-1,16
 347 739 347 739 357.5 743 c 128,-1,17
 368 747 368 747 379 749 c 0,18,19
 398 751 398 751 412 743.5 c 128,-1,20
 426 736 426 736 436 725 c 128,-1,21
 446 714 446 714 454 703.5 c 128,-1,22
 462 693 462 693 470 690 c 0,23,24
 490 692 490 692 505 693 c 0,25,26
 518 694 518 694 526 693 c 128,-1,27
 534 692 534 692 528 688 c 0,28,29
 504 674 504 674 494.5 642 c 128,-1,30
 485 610 485 610 484 578 c 0,31,32
 482 545 482 545 480.5 514 c 128,-1,33
 479 483 479 483 477 454 c 0,34,35
 477 452 477 452 476.5 451 c 128,-1,36
 476 450 476 450 476 448 c 2,37,-1
 476 442 l 2,38,39
 474 367 474 367 469 291.5 c 128,-1,40
 464 216 464 216 450 153 c 2,41,-1
 448 141 l 1,42,-1
 439 107 l 2,43,44
 426 68 426 68 407.5 41.5 c 128,-1,45
 389 15 389 15 363 7 c 0,46,47
 334 -1 334 -1 301 -1.5 c 128,-1,48
 268 -2 268 -2 235.5 5 c 128,-1,49
 203 12 203 12 175 26 c 128,-1,50
 147 40 147 40 129 62 c 256,51,52
 111 84 111 84 100 113 c 128,-1,53
 89 142 89 142 84 170.5 c 128,-1,54
 79 199 79 199 78.5 223.5 c 128,-1,55
 78 248 78 248 80 261 c 0,56,57
 83 280 83 280 78.5 295.5 c 128,-1,58
 74 311 74 311 68 322 c 128,-1,59
 62 333 62 333 56 339.5 c 128,-1,60
 50 346 50 346 50 347 c 256,61,62
 50 348 50 348 61 347.5 c 128,-1,63
 72 347 72 347 88 346 c 128,-1,64
 104 345 104 345 123 343.5 c 128,-1,65
 142 342 142 342 158.5 340 c 128,-1,66
 175 338 175 338 186 336.5 c 128,-1,67
 197 335 197 335 198 334 c 256,68,69
 199 333 199 333 192.5 313.5 c 128,-1,70
 186 294 186 294 181 265.5 c 128,-1,71
 176 237 176 237 176 204 c 128,-1,72
 176 171 176 171 189 143.5 c 128,-1,73
 202 116 202 116 232 98.5 c 128,-1,74
 262 81 262 81 317 84 c 0,75,76
 339 84 339 84 354.5 117 c 128,-1,77
 370 150 370 150 379 202 c 128,-1,78
 388 254 388 254 390.5 318.5 c 128,-1,79
 393 383 393 383 389 447 c 0,80,81
 384 523 384 523 389 557.5 c 128,-1,82
 394 592 394 592 403.5 597.5 c 128,-1,83
 413 603 413 603 426 586.5 c 128,-1,84
 439 570 439 570 450.5 545.5 c 128,-1,85
 462 521 462 521 469.5 495 c 128,-1,86
 477 469 477 469 477 455 c 2,87,-1
 477 454 l 2,88,89
 477 452 477 452 476.5 451 c 128,-1,90
 476 450 476 450 476 448 c 2,91,-1
 476 442 l 1,92,93
 471 350 471 350 466 277.5 c 128,-1,94
 461 205 461 205 450 153 c 2,95,-1
 448 141 l 1,96,-1
 439 107 l 2,97,98
 425 63 425 63 400.5 43 c 128,-1,99
 376 23 376 23 337 29 c 1,100,-1
 330 29 l 2,101,102
 332 31 332 31 332 37 c 128,-1,103
 332 43 332 43 330 54 c 0,104,105
 326 69 326 69 334.5 72.5 c 128,-1,106
 343 76 343 76 355 74.5 c 128,-1,107
 367 73 367 73 378 70 c 128,-1,108
 389 67 389 67 389 70 c 0,0,1
EndSplineSet
Validated: 37
EndChar

StartChar: K
Encoding: 75 75 13
Width: 720
Flags: W
HStem: 0 83<63.642 136.996> 732 20G<477 595>
VStem: 133 95<69.6838 187 361 638.93>
LayerCount: 2
Fore
SplineSet
137 68 m 0,0,1
 137 122 137 122 136.5 161 c 128,-1,2
 136 200 136 200 135.5 231 c 128,-1,3
 135 262 135 262 134.5 289 c 128,-1,4
 134 316 134 316 134 347 c 0,5,6
 133 382 133 382 133 418.5 c 128,-1,7
 133 455 133 455 133 495.5 c 128,-1,8
 133 536 133 536 133 582 c 128,-1,9
 133 628 133 628 132 681 c 0,10,11
 132 688 132 688 126 683.5 c 128,-1,12
 120 679 120 679 112 675.5 c 128,-1,13
 104 672 104 672 96 675.5 c 128,-1,14
 88 679 88 679 83 702 c 0,15,16
 81 713 81 713 85 722 c 128,-1,17
 89 731 89 731 97.5 738 c 128,-1,18
 106 745 106 745 116.5 749 c 128,-1,19
 127 753 127 753 137 755 c 0,20,21
 156 757 156 757 172 749.5 c 128,-1,22
 188 742 188 742 201.5 731 c 128,-1,23
 215 720 215 720 225.5 709.5 c 128,-1,24
 236 699 236 699 244 696 c 0,25,26
 265 698 265 698 280 699 c 0,27,28
 293 700 293 700 301 699 c 128,-1,29
 309 698 309 698 302 694 c 0,30,31
 274 679 274 679 259 655.5 c 128,-1,32
 244 632 244 632 237 605 c 128,-1,33
 230 578 230 578 229 549 c 128,-1,34
 228 520 228 520 228 492 c 0,35,36
 228 459 228 459 228.5 426 c 128,-1,37
 229 393 229 393 229 361 c 1,38,39
 241 377 241 377 259 402.5 c 128,-1,40
 277 428 277 428 299 458.5 c 128,-1,41
 321 489 321 489 345 522.5 c 128,-1,42
 369 556 369 556 392 589 c 0,43,44
 447 666 447 666 507 752 c 1,45,-1
 595 752 l 1,46,-1
 416 475 l 1,47,-1
 430 451 l 2,48,49
 441 429 441 429 450.5 391 c 128,-1,50
 460 353 460 353 467.5 307 c 128,-1,51
 475 261 475 261 482.5 210.5 c 128,-1,52
 490 160 490 160 497.5 114.5 c 128,-1,53
 505 69 505 69 513 31.5 c 128,-1,54
 521 -6 521 -6 532 -26 c 0,55,56
 548 -58 548 -58 571 -80.5 c 128,-1,57
 594 -103 594 -103 615.5 -116.5 c 128,-1,58
 637 -130 637 -130 652.5 -136 c 128,-1,59
 668 -142 668 -142 669 -142 c 256,60,61
 670 -142 670 -142 656 -145 c 128,-1,62
 642 -148 642 -148 621 -149.5 c 128,-1,63
 600 -151 600 -151 576.5 -150.5 c 128,-1,64
 553 -150 553 -150 534 -142 c 0,65,66
 511 -133 511 -133 496 -123.5 c 128,-1,67
 481 -114 481 -114 470 -100 c 128,-1,68
 459 -86 459 -86 450.5 -65 c 128,-1,69
 442 -44 442 -44 433 -11 c 0,70,71
 433 -8 433 -8 429 14 c 128,-1,72
 425 36 425 36 418 69.5 c 128,-1,73
 411 103 411 103 402 145 c 128,-1,74
 393 187 393 187 384 229.5 c 128,-1,75
 375 272 375 272 366.5 311 c 128,-1,76
 358 350 358 350 353 378 c 1,77,-1
 230 187 l 1,78,79
 230 136 230 136 231.5 104 c 128,-1,80
 233 72 233 72 236 68 c 0,81,82
 241 60 241 60 252.5 61 c 128,-1,83
 264 62 264 62 275.5 66 c 128,-1,84
 287 70 287 70 296 73 c 128,-1,85
 305 76 305 76 305 72 c 0,86,87
 306 60 306 60 310.5 47 c 128,-1,88
 315 34 315 34 318 23.5 c 128,-1,89
 321 13 321 13 321 6.5 c 128,-1,90
 321 0 321 0 313 0 c 2,91,-1
 78 0 l 2,92,93
 68 0 68 0 63.5 5 c 128,-1,94
 59 10 59 10 57.5 19 c 128,-1,95
 56 28 56 28 55 40.5 c 128,-1,96
 54 53 54 53 51 68 c 0,97,98
 47 83 47 83 60 83 c 128,-1,99
 73 83 73 83 90 77.5 c 128,-1,100
 107 72 107 72 122 67 c 128,-1,101
 137 62 137 62 137 68 c 0,0,1
EndSplineSet
Validated: 33
EndChar

StartChar: L
Encoding: 76 76 14
Width: 536
Flags: W
HStem: 0 53<233.086 302.937>
VStem: 134 97<68.6838 641.234> 373.5 55.5<76.1549 183.964>
LayerCount: 2
Fore
SplineSet
140 67 m 0,0,1
 140 121 140 121 139.5 160 c 128,-1,2
 139 199 139 199 138 230 c 128,-1,3
 137 261 137 261 136 288 c 128,-1,4
 135 315 135 315 134 346 c 0,5,6
 133 381 133 381 133.5 417.5 c 128,-1,7
 134 454 134 454 134 494.5 c 128,-1,8
 134 535 134 535 133.5 581 c 128,-1,9
 133 627 133 627 132 680 c 0,10,11
 132 687 132 687 126.5 682.5 c 128,-1,12
 121 678 121 678 113.5 674.5 c 128,-1,13
 106 671 106 671 98 674.5 c 128,-1,14
 90 678 90 678 85 701 c 0,15,16
 82 712 82 712 86 721 c 128,-1,17
 90 730 90 730 98.5 737 c 128,-1,18
 107 744 107 744 118 748 c 128,-1,19
 129 752 129 752 140 754 c 0,20,21
 158 756 158 756 174 748.5 c 128,-1,22
 190 741 190 741 203 730 c 128,-1,23
 216 719 216 719 226.5 708.5 c 128,-1,24
 237 698 237 698 245 695 c 0,25,26
 266 697 266 697 281 698 c 0,27,28
 294 699 294 699 302 698 c 128,-1,29
 310 697 310 697 302 693 c 0,30,31
 275 678 275 678 260 654.5 c 128,-1,32
 245 631 245 631 238 604 c 128,-1,33
 231 577 231 577 230 548 c 128,-1,34
 229 519 229 519 230 491 c 0,35,36
 231 416 231 416 231 340.5 c 128,-1,37
 231 265 231 265 231 203.5 c 128,-1,38
 231 142 231 142 232 101 c 128,-1,39
 233 60 233 60 236 56 c 0,40,41
 236 55 236 55 238 53 c 0,42,43
 249 53 249 53 263 55 c 128,-1,44
 277 57 277 57 292 60 c 0,45,46
 296 61 296 61 298.5 62 c 128,-1,47
 301 63 301 63 303 62 c 0,48,49
 321 66 321 66 335.5 70 c 128,-1,50
 350 74 350 74 355 78 c 0,51,52
 372 88 372 88 373.5 105.5 c 128,-1,53
 375 123 375 123 369 142 c 128,-1,54
 363 161 363 161 354 179 c 128,-1,55
 345 197 345 197 342 210 c 0,56,57
 340 218 340 218 347 220 c 128,-1,58
 354 222 354 222 365.5 220.5 c 128,-1,59
 377 219 377 219 391 215 c 128,-1,60
 405 211 405 211 417.5 207 c 128,-1,61
 430 203 430 203 438 200 c 128,-1,62
 446 197 446 197 446 197 c 2,63,64
 446 198 446 198 442 187.5 c 128,-1,65
 438 177 438 177 434.5 161 c 128,-1,66
 431 145 431 145 429 127 c 128,-1,67
 427 109 427 109 431 94 c 0,68,69
 433 79 433 79 442 62.5 c 128,-1,70
 451 46 451 46 461 32 c 0,71,72
 472 15 472 15 486 0 c 1,73,-1
 80 0 l 2,74,75
 70 0 70 0 65.5 5 c 128,-1,76
 61 10 61 10 59 18.5 c 128,-1,77
 57 27 57 27 56 39.5 c 128,-1,78
 55 52 55 52 51 67 c 0,79,80
 48 82 48 82 62 82 c 128,-1,81
 76 82 76 82 93 76.5 c 128,-1,82
 110 71 110 71 125 66 c 128,-1,83
 140 61 140 61 140 67 c 0,0,1
EndSplineSet
Validated: 37
EndChar

StartChar: M
Encoding: 77 77 15
Width: 707
Flags: W
HStem: 0 42<70.015 154.168> 743 4<348 358.654>
VStem: 175 59<67.1324 515.826> 346 73<1 97.8362> 522 54<83.849 270.423> 524 68<417.564 519> 524.5 57.5<156.658 517.908>
LayerCount: 2
Fore
SplineSet
167 116 m 0,0,1
 170 168 170 168 171.5 204 c 128,-1,2
 173 240 173 240 174 268.5 c 128,-1,3
 175 297 175 297 175 323.5 c 128,-1,4
 175 350 175 350 173.5 384.5 c 128,-1,5
 172 419 172 419 170 465.5 c 128,-1,6
 168 512 168 512 164 581 c 0,7,8
 162 616 162 616 153 646 c 128,-1,9
 144 676 144 676 134.5 698 c 128,-1,10
 125 720 125 720 117.5 733 c 128,-1,11
 110 746 110 746 110 747 c 256,12,13
 110 748 110 748 126 745 c 128,-1,14
 142 742 142 742 161.5 738.5 c 128,-1,15
 181 735 181 735 197.5 732.5 c 128,-1,16
 214 730 214 730 214 730 c 1,17,18
 220 743 220 743 239.5 747.5 c 128,-1,19
 259 752 259 752 281.5 751 c 128,-1,20
 304 750 304 750 326 747 c 128,-1,21
 348 744 348 744 359 743 c 1,22,23
 348 742 348 742 337.5 735 c 128,-1,24
 327 728 327 728 319 720 c 0,25,26
 309 710 309 710 300 697 c 1,27,28
 302 689 302 689 308 651.5 c 128,-1,29
 314 614 314 614 322.5 561.5 c 128,-1,30
 331 509 331 509 340 449 c 128,-1,31
 349 389 349 389 357 337 c 128,-1,32
 365 285 365 285 370.5 248 c 128,-1,33
 376 211 376 211 376 204 c 1,34,35
 377 211 377 211 381 236 c 128,-1,36
 385 261 385 261 391 298.5 c 128,-1,37
 397 336 397 336 405 382.5 c 128,-1,38
 413 429 413 429 422 479 c 128,-1,39
 431 529 431 529 440 579.5 c 128,-1,40
 449 630 449 630 458 674 c 0,41,42
 460 684 460 684 458 696 c 128,-1,43
 456 708 456 708 453 719 c 0,44,45
 449 731 449 731 445 743 c 1,46,47
 469 748 469 748 491 747 c 0,48,49
 510 746 510 746 528.5 738.5 c 128,-1,50
 547 731 547 731 558 712 c 1,51,52
 583 732 583 732 600 739 c 128,-1,53
 617 746 617 746 628 745 c 0,54,55
 640 744 640 744 648 737 c 1,56,57
 632 716 632 716 620 692 c 0,58,59
 609 671 609 671 600.5 644 c 128,-1,60
 592 617 592 617 592 587 c 0,61,62
 589 497 589 497 585 415 c 0,63,64
 583 380 583 380 582 343 c 128,-1,65
 581 306 581 306 579.5 271.5 c 128,-1,66
 578 237 578 237 577 207 c 128,-1,67
 576 177 576 177 576 156 c 0,68,69
 582 115 582 115 596.5 86.5 c 128,-1,70
 611 58 611 58 626 39 c 128,-1,71
 641 20 641 20 650.5 11 c 128,-1,72
 660 2 660 2 655 0 c 0,73,74
 654 0 654 0 626 0.5 c 128,-1,75
 598 1 598 1 563 1 c 2,76,-1
 471 1 l 1,77,78
 474 14 474 14 479 27 c 0,79,80
 484 38 484 38 490.5 51.5 c 128,-1,81
 497 65 497 65 506 77 c 0,82,83
 512 85 512 85 516 121 c 128,-1,84
 520 157 520 157 522 206 c 128,-1,85
 524 255 524 255 524.5 310.5 c 128,-1,86
 525 366 525 366 525 412.5 c 128,-1,87
 525 459 525 459 524.5 489 c 128,-1,88
 524 519 524 519 524 519 c 2,89,90
 523 519 523 519 517.5 497.5 c 128,-1,91
 512 476 512 476 504 441 c 128,-1,92
 496 406 496 406 485.5 361 c 128,-1,93
 475 316 475 316 465 268.5 c 128,-1,94
 455 221 455 221 445.5 175 c 128,-1,95
 436 129 436 129 429.5 92 c 128,-1,96
 423 55 423 55 420 30 c 128,-1,97
 417 5 417 5 419 1 c 1,98,-1
 346 1 l 1,99,100
 344 5 344 5 338.5 29.5 c 128,-1,101
 333 54 333 54 325.5 91 c 128,-1,102
 318 128 318 128 309 174 c 128,-1,103
 300 220 300 220 291 267.5 c 128,-1,104
 282 315 282 315 273.5 360 c 128,-1,105
 265 405 265 405 258 439.5 c 128,-1,106
 251 474 251 474 247 495 c 128,-1,107
 243 516 243 516 242 516 c 0,108,109
 241 515 241 515 239.5 483 c 128,-1,110
 238 451 238 451 236.5 402.5 c 128,-1,111
 235 354 235 354 234 297 c 128,-1,112
 233 240 233 240 234.5 190 c 128,-1,113
 236 140 236 140 240.5 105.5 c 128,-1,114
 245 71 245 71 253 67 c 0,115,116
 265 61 265 61 271.5 49.5 c 128,-1,117
 278 38 278 38 281 27 c 0,118,119
 285 14 285 14 286 0 c 1,120,121
 286 0 286 0 266.5 0 c 128,-1,122
 247 0 247 0 217 0 c 128,-1,123
 187 0 187 0 151.5 0 c 128,-1,124
 116 0 116 0 85 0 c 0,125,126
 75 0 75 0 66.5 9 c 128,-1,127
 58 18 58 18 54 31 c 128,-1,128
 50 44 50 44 51.5 56.5 c 128,-1,129
 53 69 53 69 63 77 c 1,130,131
 61 74 61 74 66 67.5 c 128,-1,132
 71 61 71 61 79 55 c 128,-1,133
 87 49 87 49 97 45 c 128,-1,134
 107 41 107 41 116 42 c 0,135,136
 144 46 144 46 154.5 63 c 128,-1,137
 165 80 165 80 167 116 c 0,0,1
EndSplineSet
Validated: 33
EndChar

StartChar: N
Encoding: 78 78 16
Width: 637
Flags: W
HStem: 0 48<99.0944 155.062>
VStem: 179 58<88.1884 557.965> 385 115<0 109.438> 426 69<173.974 649.23>
LayerCount: 2
Fore
SplineSet
247 109 m 0,0,1
 256 91 256 91 268.5 73 c 128,-1,2
 281 55 281 55 293 39.5 c 128,-1,3
 305 24 305 24 314 13.5 c 128,-1,4
 323 3 323 3 325 1 c 1,5,6
 305 1 305 1 279 0.5 c 128,-1,7
 253 0 253 0 224.5 0 c 128,-1,8
 196 0 196 0 167 0 c 128,-1,9
 138 0 138 0 113 0 c 0,10,11
 89 0 89 0 76.5 9 c 128,-1,12
 64 18 64 18 58 28.5 c 128,-1,13
 52 39 52 39 51.5 47 c 128,-1,14
 51 55 51 55 51 53 c 1,15,16
 51 59 51 59 55.5 71.5 c 128,-1,17
 60 84 60 84 69 95 c 128,-1,18
 78 106 78 106 91 111.5 c 128,-1,19
 104 117 104 117 121 109 c 1,20,21
 103 92 103 92 99.5 81 c 128,-1,22
 96 70 96 70 99 63 c 128,-1,23
 102 56 102 56 107.5 53 c 128,-1,24
 113 50 113 50 113 49 c 256,25,26
 113 48 113 48 123 48 c 128,-1,27
 133 48 133 48 144.5 57.5 c 128,-1,28
 156 67 156 67 166.5 92 c 128,-1,29
 177 117 177 117 179 166 c 0,30,31
 182 204 182 204 182 257.5 c 128,-1,32
 182 311 182 311 179.5 369.5 c 128,-1,33
 177 428 177 428 172.5 486.5 c 128,-1,34
 168 545 168 545 161 595 c 0,35,36
 156 637 156 637 141.5 655 c 128,-1,37
 127 673 127 673 115 673.5 c 128,-1,38
 103 674 103 674 101 660.5 c 128,-1,39
 99 647 99 647 119 625 c 1,40,41
 113 611 113 611 105.5 606.5 c 128,-1,42
 98 602 98 602 90.5 604.5 c 128,-1,43
 83 607 83 607 75.5 615.5 c 128,-1,44
 68 624 68 624 63 637 c 0,45,46
 63 648 63 648 67 662.5 c 128,-1,47
 71 677 71 677 79 691.5 c 128,-1,48
 87 706 87 706 99 718.5 c 128,-1,49
 111 731 111 731 126 738 c 0,50,51
 143 746 143 746 161.5 748.5 c 128,-1,52
 180 751 180 751 197.5 748.5 c 128,-1,53
 215 746 215 746 230 738 c 128,-1,54
 245 730 245 730 255 716 c 256,55,56
 265 702 265 702 277.5 671.5 c 128,-1,57
 290 641 290 641 303 600 c 128,-1,58
 316 559 316 559 330 512 c 128,-1,59
 344 465 344 465 357 417.5 c 128,-1,60
 370 370 370 370 381 326.5 c 128,-1,61
 392 283 392 283 400.5 249 c 128,-1,62
 409 215 409 215 414.5 194.5 c 128,-1,63
 420 174 420 174 420 174 c 2,64,65
 421 173 421 173 421.5 194.5 c 128,-1,66
 422 216 422 216 423 250 c 128,-1,67
 424 284 424 284 425 325 c 128,-1,68
 426 366 426 366 426 405 c 128,-1,69
 426 444 426 444 426 475 c 128,-1,70
 426 506 426 506 426 521 c 0,71,72
 426 549 426 549 423.5 569.5 c 128,-1,73
 421 590 421 590 416.5 608 c 128,-1,74
 412 626 412 626 405.5 645.5 c 128,-1,75
 399 665 399 665 389 691 c 0,76,77
 384 704 384 704 385 716 c 128,-1,78
 386 728 386 728 396 736.5 c 128,-1,79
 406 745 406 745 425.5 749 c 128,-1,80
 445 753 445 753 477 752 c 0,81,82
 483 752 483 752 477.5 747.5 c 128,-1,83
 472 743 472 743 464 738.5 c 128,-1,84
 456 734 456 734 450 730 c 128,-1,85
 444 726 444 726 449 726 c 0,86,87
 460 726 460 726 476.5 733 c 128,-1,88
 493 740 493 740 512 746 c 128,-1,89
 531 752 531 752 549.5 753.5 c 128,-1,90
 568 755 568 755 584 745 c 0,91,92
 592 740 592 740 578.5 736.5 c 128,-1,93
 565 733 565 733 545.5 721 c 128,-1,94
 526 709 526 709 508.5 684 c 128,-1,95
 491 659 491 659 491 613 c 2,96,-1
 495 307 l 2,97,98
 496 250 496 250 496.5 194.5 c 128,-1,99
 497 139 497 139 498 96 c 128,-1,100
 499 53 499 53 499.5 26.5 c 0,101,-1
 500 0 l 1,102,-1
 385 0 l 1,103,104
 385 7 385 7 378 42 c 128,-1,105
 371 77 371 77 359 128 c 128,-1,106
 347 179 347 179 331.5 240 c 128,-1,107
 316 301 316 301 299 361 c 128,-1,108
 282 421 282 421 264 473 c 128,-1,109
 246 525 246 525 230 559 c 0,110,111
 229 561 229 561 229.5 529.5 c 128,-1,112
 230 498 230 498 231 449.5 c 128,-1,113
 232 401 232 401 233.5 343.5 c 128,-1,114
 235 286 235 286 237 235.5 c 128,-1,115
 239 185 239 185 241.5 149.5 c 128,-1,116
 244 114 244 114 247 109 c 0,0,1
EndSplineSet
Validated: 33
EndChar

StartChar: O
Encoding: 79 79 17
Width: 637
Flags: W
HStem: -1 84<264.862 394.215> 655 97<250.125 394.609>
VStem: 52 97<248.319 513.372>
LayerCount: 2
Fore
SplineSet
334 752 m 0,0,1
 421 752 421 752 475 708.5 c 128,-1,2
 529 665 529 665 556 596 c 128,-1,3
 583 527 583 527 586 441.5 c 128,-1,4
 589 356 589 356 575 272 c 0,5,6
 552 140 552 140 490.5 69.5 c 128,-1,7
 429 -1 429 -1 335 -1 c 0,8,9
 282 0 282 0 232 21 c 128,-1,10
 182 42 182 42 142.5 82.5 c 128,-1,11
 103 123 103 123 78.5 181 c 128,-1,12
 54 239 54 239 52 313 c 0,13,14
 49 400 49 400 57.5 479.5 c 128,-1,15
 66 559 66 559 97 619.5 c 128,-1,16
 128 680 128 680 184.5 716 c 128,-1,17
 241 752 241 752 334 752 c 0,0,1
328 655 m 0,18,19
 285 659 285 659 251.5 635 c 128,-1,20
 218 611 218 611 195 570 c 128,-1,21
 172 529 172 529 160 476 c 128,-1,22
 148 423 148 423 149 368 c 0,23,24
 152 315 152 315 166 264 c 128,-1,25
 180 213 180 213 204 172.5 c 128,-1,26
 228 132 228 132 260.5 107.5 c 128,-1,27
 293 83 293 83 332 83 c 0,28,29
 369 83 369 83 397 106 c 128,-1,30
 425 129 425 129 444.5 167 c 128,-1,31
 464 205 464 205 475 254 c 128,-1,32
 486 303 486 303 489 355 c 0,33,34
 490 409 490 409 484.5 460.5 c 128,-1,35
 479 512 479 512 461 553.5 c 128,-1,36
 443 595 443 595 411 622 c 128,-1,37
 379 649 379 649 328 655 c 0,18,19
EndSplineSet
Validated: 33
EndChar

StartChar: P
Encoding: 80 80 18
Width: 606
Flags: W
HStem: 0 82<61.8926 139.996> 187 70<229 378.819> 644 102.5<219.215 353.297>
VStem: 132 87<355.078 644>
LayerCount: 2
Fore
SplineSet
140 67 m 0,0,1
 140 121 140 121 139.5 160 c 128,-1,2
 139 199 139 199 138 230 c 128,-1,3
 137 261 137 261 136 288 c 128,-1,4
 135 315 135 315 134 346 c 0,5,6
 133 381 133 381 133.5 417.5 c 128,-1,7
 134 454 134 454 134 494.5 c 128,-1,8
 134 535 134 535 133.5 581 c 128,-1,9
 133 627 133 627 132 680 c 0,10,11
 132 687 132 687 126.5 682.5 c 128,-1,12
 121 678 121 678 113.5 674.5 c 128,-1,13
 106 671 106 671 98 674.5 c 128,-1,14
 90 678 90 678 85 701 c 0,15,16
 82 712 82 712 86 721 c 128,-1,17
 90 730 90 730 98.5 737 c 128,-1,18
 107 744 107 744 118 748 c 128,-1,19
 129 752 129 752 140 754 c 0,20,21
 152 756 152 756 163 752.5 c 128,-1,22
 174 749 174 749 184 743 c 1,23,24
 192 744 192 744 223 746.5 c 128,-1,25
 254 749 254 749 295.5 746 c 128,-1,26
 337 743 337 743 383 731.5 c 128,-1,27
 429 720 429 720 467.5 692 c 128,-1,28
 506 664 506 664 530.5 617.5 c 128,-1,29
 555 571 555 571 555 498 c 0,30,31
 554 421 554 421 536 367.5 c 128,-1,32
 518 314 518 314 489 279 c 128,-1,33
 460 244 460 244 424 224.5 c 128,-1,34
 388 205 388 205 352 196 c 128,-1,35
 316 187 316 187 283.5 186 c 128,-1,36
 251 185 251 185 229 187 c 1,37,38
 231 136 231 136 233 103 c 128,-1,39
 235 70 235 70 237 67 c 0,40,41
 242 59 242 59 253.5 60 c 128,-1,42
 265 61 265 61 276.5 65 c 128,-1,43
 288 69 288 69 297 72 c 128,-1,44
 306 75 306 75 306 71 c 0,45,46
 307 59 307 59 311.5 46 c 128,-1,47
 316 33 316 33 319 23 c 128,-1,48
 322 13 322 13 322 6.5 c 128,-1,49
 322 0 322 0 314 0 c 2,50,-1
 87 0 l 2,51,52
 77 0 77 0 71.5 5 c 128,-1,53
 66 10 66 10 63 18.5 c 128,-1,54
 60 27 60 27 57.5 39.5 c 128,-1,55
 55 52 55 52 51 67 c 0,56,57
 48 82 48 82 62 82 c 128,-1,58
 76 82 76 82 93 76.5 c 128,-1,59
 110 71 110 71 125 66 c 128,-1,60
 140 61 140 61 140 67 c 0,0,1
219 644 m 2,61,-1
 219 643 l 2,62,63
 219 602 219 602 220 554 c 128,-1,64
 221 506 221 506 222 455 c 128,-1,65
 223 404 223 404 224 353.5 c 128,-1,66
 225 303 225 303 227 257 c 0,67,68
 228 257 228 257 249 255.5 c 128,-1,69
 270 254 270 254 300 257.5 c 128,-1,70
 330 261 330 261 363.5 272.5 c 128,-1,71
 397 284 397 284 423.5 310 c 128,-1,72
 450 336 450 336 464.5 379 c 128,-1,73
 479 422 479 422 471 488 c 0,74,75
 465 530 465 530 444.5 557.5 c 128,-1,76
 424 585 424 585 396 602 c 128,-1,77
 368 619 368 619 337.5 627.5 c 128,-1,78
 307 636 307 636 280.5 639.5 c 128,-1,79
 254 643 254 643 237 643 c 128,-1,80
 220 643 220 643 219 644 c 2,61,-1
EndSplineSet
Validated: 33
EndChar

StartChar: Q
Encoding: 81 81 19
Width: 744
Flags: W
HStem: 0 84<263.027 393.026> 655 97<249 393.304>
VStem: 52 97<248.331 513.372> 421.5 1.5<285 285.997> 455.5 81.5<-30.942 34> 488 97.5<324.646 537.214>
LayerCount: 2
Fore
SplineSet
333 752 m 0,0,1
 420 752 420 752 474 708.5 c 128,-1,2
 528 665 528 665 555 596 c 128,-1,3
 582 527 582 527 585.5 441.5 c 128,-1,4
 589 356 589 356 575 272 c 0,5,6
 568 232 568 232 557 197.5 c 128,-1,7
 546 163 546 163 532 134 c 1,8,9
 534 88 534 88 537 45.5 c 128,-1,10
 540 3 540 3 556 -26 c 0,11,12
 572 -58 572 -58 595 -80.5 c 128,-1,13
 618 -103 618 -103 639.5 -116.5 c 128,-1,14
 661 -130 661 -130 676.5 -136 c 128,-1,15
 692 -142 692 -142 693 -142 c 256,16,17
 694 -142 694 -142 680 -145 c 128,-1,18
 666 -148 666 -148 645 -149.5 c 128,-1,19
 624 -151 624 -151 600.5 -150.5 c 128,-1,20
 577 -150 577 -150 558 -142 c 0,21,22
 535 -133 535 -133 520 -123.5 c 128,-1,23
 505 -114 505 -114 494 -100 c 128,-1,24
 483 -86 483 -86 474.5 -65 c 128,-1,25
 466 -44 466 -44 457 -11 c 0,26,27
 457 -9 457 -9 455.5 3.5 c 128,-1,28
 454 16 454 16 452 34 c 1,29,30
 398 -3 398 -3 333 0 c 0,31,32
 279 1 279 1 229.5 22 c 128,-1,33
 180 43 180 43 141 83 c 128,-1,34
 102 123 102 123 78 181 c 128,-1,35
 54 239 54 239 52 313 c 0,36,37
 49 400 49 400 57.5 479.5 c 128,-1,38
 66 559 66 559 96 619.5 c 128,-1,39
 126 680 126 680 183 716 c 128,-1,40
 240 752 240 752 333 752 c 0,0,1
423 286 m 1,41,42
 421 285 421 285 428 291 c 128,-1,43
 435 297 435 297 446 306 c 128,-1,44
 457 315 457 315 468.5 324 c 128,-1,45
 480 333 480 333 488 338 c 0,46,47
 488 342 488 342 488 346 c 128,-1,48
 488 350 488 350 489 355 c 0,49,50
 490 409 490 409 484 460.5 c 128,-1,51
 478 512 478 512 460 553.5 c 128,-1,52
 442 595 442 595 409.5 622 c 128,-1,53
 377 649 377 649 327 655 c 0,54,55
 284 659 284 659 250.5 635 c 128,-1,56
 217 611 217 611 194.5 570 c 128,-1,57
 172 529 172 529 160 476 c 128,-1,58
 148 423 148 423 149 368 c 0,59,60
 152 315 152 315 166 264 c 128,-1,61
 180 213 180 213 203.5 173 c 128,-1,62
 227 133 227 133 259 108.5 c 128,-1,63
 291 84 291 84 330 84 c 0,64,65
 363 84 363 84 389 102.5 c 128,-1,66
 415 121 415 121 435 153 c 1,67,68
 432 178 432 178 429 202 c 128,-1,69
 426 226 426 226 424 244.5 c 128,-1,70
 422 263 422 263 421.5 274.5 c 128,-1,71
 421 286 421 286 423 286 c 1,41,42
EndSplineSet
Validated: 33
EndChar

StartChar: R
Encoding: 82 82 20
Width: 658
Flags: W
HStem: 0 82<66.642 139.996> 187 70<229 378.057> 646 100<220.144 353.297>
VStem: 134 87<355.078 645.972> 453 76<-23.16 159.84>
LayerCount: 2
Fore
SplineSet
140 67 m 0,0,1
 140 121 140 121 139.5 160 c 128,-1,2
 139 199 139 199 138 230 c 128,-1,3
 137 261 137 261 136 288 c 128,-1,4
 135 315 135 315 134 346 c 0,5,6
 133 381 133 381 133.5 417.5 c 128,-1,7
 134 454 134 454 134 494.5 c 128,-1,8
 134 535 134 535 133.5 581 c 128,-1,9
 133 627 133 627 132 680 c 0,10,11
 132 687 132 687 126.5 682.5 c 128,-1,12
 121 678 121 678 113.5 674.5 c 128,-1,13
 106 671 106 671 98 674.5 c 128,-1,14
 90 678 90 678 85 701 c 0,15,16
 82 712 82 712 86 721 c 128,-1,17
 90 730 90 730 98.5 737 c 128,-1,18
 107 744 107 744 118 748 c 128,-1,19
 129 752 129 752 140 754 c 0,20,21
 152 756 152 756 163 752.5 c 128,-1,22
 174 749 174 749 184 743 c 1,23,24
 192 744 192 744 223 746.5 c 128,-1,25
 254 749 254 749 295.5 746 c 128,-1,26
 337 743 337 743 383 731.5 c 128,-1,27
 429 720 429 720 467.5 692 c 128,-1,28
 506 664 506 664 530.5 617.5 c 128,-1,29
 555 571 555 571 555 498 c 0,30,31
 554 432 554 432 541 384.5 c 128,-1,32
 528 337 528 337 506 302 c 1,33,34
 521 269 521 269 524.5 224.5 c 128,-1,35
 528 180 528 180 529 134.5 c 128,-1,36
 530 89 530 89 533.5 46.5 c 128,-1,37
 537 4 537 4 552 -26 c 0,38,39
 568 -58 568 -58 591 -80.5 c 128,-1,40
 614 -103 614 -103 635.5 -116.5 c 128,-1,41
 657 -130 657 -130 672.5 -136 c 128,-1,42
 688 -142 688 -142 689 -142 c 256,43,44
 690 -142 690 -142 676 -145 c 128,-1,45
 662 -148 662 -148 641 -149.5 c 128,-1,46
 620 -151 620 -151 596.5 -150.5 c 128,-1,47
 573 -150 573 -150 554 -142 c 0,48,49
 531 -133 531 -133 516 -123.5 c 128,-1,50
 501 -114 501 -114 490 -100 c 128,-1,51
 479 -86 479 -86 470.5 -65 c 128,-1,52
 462 -44 462 -44 453 -11 c 0,53,54
 453 -8 453 -8 449.5 17.5 c 128,-1,55
 446 43 446 43 441.5 78 c 128,-1,56
 437 113 437 113 432 152.5 c 128,-1,57
 427 192 427 192 423 224 c 1,58,59
 397 209 397 209 369.5 201 c 128,-1,60
 342 193 342 193 316.5 189.5 c 128,-1,61
 291 186 291 186 268 186 c 128,-1,62
 245 186 245 186 229 187 c 1,63,64
 231 135 231 135 233 102.5 c 128,-1,65
 235 70 235 70 237 67 c 0,66,67
 242 59 242 59 253.5 60 c 128,-1,68
 265 61 265 61 276.5 65 c 128,-1,69
 288 69 288 69 297 72 c 128,-1,70
 306 75 306 75 306 71 c 0,71,72
 307 59 307 59 312 46 c 128,-1,73
 317 33 317 33 320 23 c 128,-1,74
 323 13 323 13 322.5 6.5 c 128,-1,75
 322 0 322 0 314 0 c 2,76,-1
 81 0 l 2,77,78
 71 0 71 0 66.5 5 c 128,-1,79
 62 10 62 10 60 18.5 c 128,-1,80
 58 27 58 27 56.5 39.5 c 128,-1,81
 55 52 55 52 51 67 c 0,82,83
 48 82 48 82 62 82 c 128,-1,84
 76 82 76 82 93 76.5 c 128,-1,85
 110 71 110 71 125 66 c 128,-1,86
 140 61 140 61 140 67 c 0,0,1
222 491 m 2,87,-1
 222 455 l 2,88,89
 224 404 224 404 225 353.5 c 128,-1,90
 226 303 226 303 227 257 c 0,91,92
 229 257 229 257 250.5 255.5 c 128,-1,93
 272 254 272 254 302 258 c 128,-1,94
 332 262 332 262 365 273.5 c 128,-1,95
 398 285 398 285 424 311 c 128,-1,96
 450 337 450 337 464.5 379.5 c 128,-1,97
 479 422 479 422 471 488 c 0,98,99
 465 530 465 530 445 557.5 c 128,-1,100
 425 585 425 585 397.5 602.5 c 128,-1,101
 370 620 370 620 339 629 c 128,-1,102
 308 638 308 638 282 641.5 c 128,-1,103
 256 645 256 645 239 645 c 128,-1,104
 222 645 222 645 221 646 c 0,105,106
 220 646 220 646 220 623 c 128,-1,107
 220 600 220 600 221 564 c 0,108,109
 221 547 221 547 221 529 c 128,-1,110
 221 511 221 511 222 491 c 2,87,-1
EndSplineSet
Validated: 33
EndChar

StartChar: S
Encoding: 83 83 21
Width: 541
Flags: W
HStem: 0 68<220.188 334.206> 689 62<217.003 331.358>
VStem: 92 68.5<168.859 208.998 524.571 634.307>
LayerCount: 2
Fore
SplineSet
92 570 m 0,0,1
 89 605 89 605 97.5 638.5 c 128,-1,2
 106 672 106 672 129.5 698 c 128,-1,3
 153 724 153 724 193 738.5 c 128,-1,4
 233 753 233 753 292 751 c 0,5,6
 349 746 349 746 382 727 c 128,-1,7
 415 708 415 708 431.5 682.5 c 128,-1,8
 448 657 448 657 452.5 630 c 128,-1,9
 457 603 457 603 457 582 c 1,10,11
 457 583 457 583 462 579.5 c 128,-1,12
 467 576 467 576 474 571 c 256,13,14
 481 566 481 566 491 558 c 1,15,16
 474 558 474 558 453.5 550 c 128,-1,17
 433 542 433 542 415 539 c 128,-1,18
 397 536 397 536 383 546 c 128,-1,19
 369 556 369 556 365 593 c 0,20,21
 363 606 363 606 358 622.5 c 128,-1,22
 353 639 353 639 343 653.5 c 128,-1,23
 333 668 333 668 318 678 c 128,-1,24
 303 688 303 688 281 689 c 0,25,26
 258 690 258 690 235.5 678.5 c 128,-1,27
 213 667 213 667 195 649 c 128,-1,28
 177 631 177 631 167.5 609 c 128,-1,29
 158 587 158 587 161 568 c 0,30,31
 166 542 166 542 185.5 520.5 c 128,-1,32
 205 499 205 499 232 480 c 128,-1,33
 259 461 259 461 290.5 443 c 128,-1,34
 322 425 322 425 351 406 c 128,-1,35
 380 387 380 387 403 365 c 128,-1,36
 426 343 426 343 437 317 c 0,37,38
 444 298 444 298 452.5 267 c 128,-1,39
 461 236 461 236 465 201 c 128,-1,40
 469 166 469 166 465 130 c 128,-1,41
 461 94 461 94 444 65 c 128,-1,42
 427 36 427 36 394 18 c 128,-1,43
 361 0 361 0 307 0 c 0,44,45
 283 0 283 0 253 2.5 c 128,-1,46
 223 5 223 5 193 15 c 128,-1,47
 163 25 163 25 136 43.5 c 128,-1,48
 109 62 109 62 92 94 c 0,49,50
 85 107 85 107 86 120 c 128,-1,51
 87 133 87 133 90 145 c 128,-1,52
 93 157 93 157 94.5 168.5 c 128,-1,53
 96 180 96 180 92 192 c 1,54,55
 80 201 80 201 70 209 c 0,56,57
 62 216 62 216 55.5 222 c 128,-1,58
 49 228 49 228 51 230 c 0,59,60
 52 232 52 232 68 238.5 c 128,-1,61
 84 245 84 245 102.5 250.5 c 128,-1,62
 121 256 121 256 137.5 256 c 128,-1,63
 154 256 154 256 157 244 c 0,64,65
 158 238 158 238 160.5 222.5 c 128,-1,66
 163 207 163 207 168.5 187.5 c 128,-1,67
 174 168 174 168 182.5 146.5 c 128,-1,68
 191 125 191 125 204 107.5 c 128,-1,69
 217 90 217 90 234 78.5 c 128,-1,70
 251 67 251 67 273 68 c 0,71,72
 306 69 306 69 332 88 c 128,-1,73
 358 107 358 107 373 134.5 c 128,-1,74
 388 162 388 162 391.5 191.5 c 128,-1,75
 395 221 395 221 383 243 c 0,76,77
 366 274 366 274 339.5 300 c 128,-1,78
 313 326 313 326 282 349.5 c 128,-1,79
 251 373 251 373 219 396 c 128,-1,80
 187 419 187 419 160 445 c 128,-1,81
 133 471 133 471 114.5 501.5 c 128,-1,82
 96 532 96 532 92 570 c 0,0,1
EndSplineSet
Validated: 33
EndChar

StartChar: T
Encoding: 84 84 22
Width: 707
Flags: W
HStem: 0 80<234.126 306.996> 732 20G<50 657>
VStem: 92 74<552 629.5> 304 95<66.6838 640.407>
LayerCount: 2
Fore
SplineSet
307 65 m 0,0,1
 307 119 307 119 306.5 158 c 128,-1,2
 306 197 306 197 305.5 228 c 128,-1,3
 305 259 305 259 304 286 c 128,-1,4
 303 313 303 313 303 344 c 0,5,6
 302 379 302 379 302 415.5 c 128,-1,7
 302 452 302 452 302 492.5 c 128,-1,8
 302 533 302 533 302 579 c 128,-1,9
 302 625 302 625 301 678 c 1,10,11
 282 675 282 675 263 672 c 128,-1,12
 244 669 244 669 228 666 c 128,-1,13
 212 663 212 663 200.5 660 c 128,-1,14
 189 657 189 657 185 655 c 0,15,16
 167 644 167 644 166 629.5 c 128,-1,17
 165 615 165 615 171 599 c 128,-1,18
 177 583 177 583 185.5 567 c 128,-1,19
 194 551 194 551 197 538 c 0,20,21
 200 526 200 526 184 527 c 128,-1,22
 168 528 168 528 147.5 534 c 128,-1,23
 127 540 127 540 109.5 546.5 c 128,-1,24
 92 553 92 553 92 552 c 256,25,26
 92 551 92 551 96 562 c 128,-1,27
 100 573 100 573 103.5 589 c 128,-1,28
 107 605 107 605 109.5 624 c 128,-1,29
 112 643 112 643 109 658 c 0,30,31
 105 673 105 673 95.5 689.5 c 128,-1,32
 86 706 86 706 76 720 c 0,33,34
 64 736 64 736 50 752 c 1,35,-1
 657 752 l 1,36,37
 645 736 645 736 634 720 c 0,38,39
 625 706 625 706 616.5 689.5 c 128,-1,40
 608 673 608 673 604 657 c 256,41,42
 600 641 600 641 602.5 621 c 128,-1,43
 605 601 605 601 609 584 c 128,-1,44
 613 567 613 567 617 555.5 c 128,-1,45
 621 544 621 544 621 545 c 256,46,47
 621 546 621 546 602.5 539 c 128,-1,48
 584 532 584 532 562 526 c 128,-1,49
 540 520 540 520 523.5 519.5 c 128,-1,50
 507 519 507 519 510 531 c 0,51,52
 513 545 513 545 522.5 561.5 c 128,-1,53
 532 578 532 578 538 594.5 c 128,-1,54
 544 611 544 611 542.5 626.5 c 128,-1,55
 541 642 541 642 523 654 c 0,56,57
 516 658 516 658 495.5 664 c 128,-1,58
 475 670 475 670 450 676 c 1,59,60
 430 659 430 659 419 637 c 128,-1,61
 408 615 408 615 403 590.5 c 128,-1,62
 398 566 398 566 397.5 540 c 128,-1,63
 397 514 397 514 398 489 c 0,64,65
 399 414 399 414 399 340.5 c 128,-1,66
 399 267 399 267 399.5 207 c 128,-1,67
 400 147 400 147 401 108 c 128,-1,68
 402 69 402 69 405 65 c 0,69,70
 411 57 411 57 422.5 58 c 128,-1,71
 434 59 434 59 445.5 63 c 128,-1,72
 457 67 457 67 466 70 c 128,-1,73
 475 73 475 73 475 69 c 0,74,75
 476 57 476 57 480.5 44.5 c 128,-1,76
 485 32 485 32 488.5 22.5 c 128,-1,77
 492 13 492 13 492 6.5 c 128,-1,78
 492 0 492 0 485 0 c 0,79,80
 471 0 471 0 442.5 0 c 128,-1,81
 414 0 414 0 380 0 c 128,-1,82
 346 0 346 0 311 0 c 128,-1,83
 276 0 276 0 248 0 c 0,84,85
 238 0 238 0 234 4.5 c 128,-1,86
 230 9 230 9 228 17.5 c 128,-1,87
 226 26 226 26 225 38 c 128,-1,88
 224 50 224 50 220 65 c 0,89,90
 217 80 217 80 230 80 c 128,-1,91
 243 80 243 80 260 74.5 c 128,-1,92
 277 69 277 69 292 64 c 128,-1,93
 307 59 307 59 307 65 c 0,0,1
EndSplineSet
Validated: 37
EndChar

StartChar: U
Encoding: 85 85 23
Width: 621
Flags: W
HStem: 0 80<224.059 361.402> 682 3<242.781 247.246> 732 20G<428 485.5 530.5 534>
VStem: 56.5 105<159.311 557.987> 423.5 147.5<0.078125 46.6899> 448 91<235.735 678.756>
LayerCount: 2
Fore
SplineSet
571 46 m 0,0,1
 571 40 571 40 569.5 32 c 128,-1,2
 568 24 568 24 565.5 17 c 128,-1,3
 563 10 563 10 561.5 5 c 0,4,-1
 560 0 l 1,5,-1
 436 0 l 2,6,7
 424 0 424 0 423.5 14 c 128,-1,8
 423 28 423 28 428 47 c 1,9,10
 401 32 401 32 361 16 c 128,-1,11
 321 0 321 0 260 0 c 0,12,13
 188 0 188 0 145.5 37.5 c 128,-1,14
 103 75 103 75 81.5 134.5 c 128,-1,15
 60 194 60 194 56.5 269 c 128,-1,16
 53 344 53 344 58.5 418 c 128,-1,17
 64 492 64 492 75.5 558 c 128,-1,18
 87 624 87 624 97 667 c 1,19,20
 91 663 91 663 84.5 659.5 c 128,-1,21
 78 656 78 656 71.5 657.5 c 128,-1,22
 65 659 65 659 59.5 666.5 c 128,-1,23
 54 674 54 674 51 693 c 0,24,25
 49 706 49 706 53 717 c 128,-1,26
 57 728 57 728 64.5 736.5 c 128,-1,27
 72 745 72 745 81.5 750.5 c 128,-1,28
 91 756 91 756 100 758 c 0,29,30
 117 761 117 761 131.5 751 c 128,-1,31
 146 741 146 741 158 727.5 c 128,-1,32
 170 714 170 714 179.5 701.5 c 128,-1,33
 189 689 189 689 197 685 c 1,34,35
 217 686 217 686 230 686 c 0,36,37
 241 686 241 686 248 685 c 128,-1,38
 255 684 255 684 247 682 c 0,39,40
 230 677 230 677 215 659.5 c 128,-1,41
 200 642 200 642 188 619 c 1,42,43
 186 576 186 576 179 520 c 128,-1,44
 172 464 172 464 166.5 404.5 c 128,-1,45
 161 345 161 345 161.5 287 c 128,-1,46
 162 229 162 229 174.5 183.5 c 128,-1,47
 187 138 187 138 215 109.5 c 128,-1,48
 243 81 243 81 293 80 c 0,49,50
 342 81 342 81 373 111.5 c 128,-1,51
 404 142 404 142 421 190 c 128,-1,52
 438 238 438 238 443.5 298.5 c 128,-1,53
 449 359 449 359 448 422 c 128,-1,54
 447 485 447 485 441.5 545 c 128,-1,55
 436 605 436 605 431 651.5 c 128,-1,56
 426 698 426 698 424 726 c 128,-1,57
 422 754 422 754 428 752 c 2,58,-1
 476 752 l 2,59,60
 495 752 495 752 511.5 751.5 c 128,-1,61
 528 751 528 751 533 752 c 0,62,63
 535 752 535 752 536.5 720.5 c 128,-1,64
 538 689 538 689 539 637 c 128,-1,65
 540 585 540 585 540 517.5 c 128,-1,66
 540 450 540 450 539 377.5 c 128,-1,67
 538 305 538 305 536 233.5 c 128,-1,68
 534 162 534 162 530 102 c 1,69,-1
 530 97 l 1,70,71
 544 84 544 84 556.5 70.5 c 128,-1,72
 569 57 569 57 571 46 c 0,0,1
EndSplineSet
Validated: 33
EndChar

StartChar: V
Encoding: 86 86 24
Width: 636
Flags: W
HStem: 0 21G<457 479.5> 705 48<558.037 609> 712 41<90.4575 140.874 561.006 609>
VStem: 281 136<69.3177 180.051>
LayerCount: 2
Fore
SplineSet
262 700 m 0,0,1
 254 693 254 693 258 654.5 c 128,-1,2
 262 616 262 616 271.5 561.5 c 128,-1,3
 281 507 281 507 295 444.5 c 128,-1,4
 309 382 309 382 321.5 326.5 c 128,-1,5
 334 271 334 271 343.5 231 c 128,-1,6
 353 191 353 191 355 181 c 1,7,8
 356 192 356 192 364.5 228.5 c 128,-1,9
 373 265 373 265 384 315 c 128,-1,10
 395 365 395 365 407 422.5 c 128,-1,11
 419 480 419 480 427 533 c 128,-1,12
 435 586 435 586 436 628 c 128,-1,13
 437 670 437 670 427 690 c 0,14,15
 424 697 424 697 412 708 c 128,-1,16
 400 719 400 719 389.5 729 c 128,-1,17
 379 739 379 739 375 746 c 128,-1,18
 371 753 371 753 384 753 c 2,19,-1
 609 753 l 1,20,-1
 615 743 l 2,21,22
 620 733 620 733 620 725 c 0,23,24
 619 716 619 716 609.5 712 c 128,-1,25
 600 708 600 708 588.5 705 c 128,-1,26
 577 702 577 702 567.5 697 c 128,-1,27
 558 692 558 692 558 682 c 0,28,29
 509 524 509 524 475 396 c 0,30,31
 460 341 460 341 447.5 286.5 c 128,-1,32
 435 232 435 232 427 187 c 128,-1,33
 419 142 419 142 417 110.5 c 128,-1,34
 415 79 415 79 423 69 c 0,35,36
 431 58 431 58 440.5 58 c 128,-1,37
 450 58 450 58 459 61 c 0,38,39
 470 65 470 65 480 73 c 1,40,41
 493 50 493 50 492 28 c 128,-1,42
 491 6 491 6 468 0 c 1,43,44
 446 6 446 6 424 10 c 0,45,46
 405 14 405 14 383 17 c 128,-1,47
 361 20 361 20 343 19 c 0,48,49
 329 18 329 18 317.5 14 c 128,-1,50
 306 10 306 10 295.5 6 c 128,-1,51
 285 2 285 2 274.5 0.5 c 128,-1,52
 264 -1 264 -1 254 3 c 0,53,54
 247 7 247 7 242 13 c 0,55,56
 237 18 237 18 233.5 26.5 c 128,-1,57
 230 35 230 35 229 47 c 0,58,59
 228 63 228 63 236 66 c 128,-1,60
 244 69 244 69 254 68 c 128,-1,61
 264 67 264 67 272.5 65.5 c 128,-1,62
 281 64 281 64 281 71 c 0,63,64
 278 100 278 100 269 139.5 c 128,-1,65
 260 179 260 179 251 215 c 128,-1,66
 242 251 242 251 234.5 276 c 128,-1,67
 227 301 227 301 227 302 c 0,68,69
 216 350 216 350 208.5 383.5 c 128,-1,70
 201 417 201 417 196.5 440.5 c 128,-1,71
 192 464 192 464 189 480 c 128,-1,72
 186 496 186 496 183 510.5 c 128,-1,73
 180 525 180 525 177 539.5 c 128,-1,74
 174 554 174 554 170 574 c 0,75,76
 165 597 165 597 163.5 615.5 c 128,-1,77
 162 634 162 634 160 649.5 c 128,-1,78
 158 665 158 665 154 678.5 c 128,-1,79
 150 692 150 692 141 704 c 0,80,81
 137 709 137 709 129 708.5 c 128,-1,82
 121 708 121 708 112.5 704 c 128,-1,83
 104 700 104 700 96.5 695.5 c 128,-1,84
 89 691 89 691 86 688 c 0,85,86
 75 679 75 679 69 684 c 128,-1,87
 63 689 63 689 59.5 699.5 c 128,-1,88
 56 710 56 710 54 720.5 c 128,-1,89
 52 731 52 731 51 733 c 0,90,91
 50 734 50 734 52 737.5 c 128,-1,92
 54 741 54 741 60.5 744.5 c 128,-1,93
 67 748 67 748 78 750.5 c 128,-1,94
 89 753 89 753 106 753 c 2,95,-1
 336 753 l 2,96,97
 335 752 335 752 327.5 747.5 c 128,-1,98
 320 743 320 743 308.5 735.5 c 128,-1,99
 297 728 297 728 284.5 718.5 c 128,-1,100
 272 709 272 709 262 700 c 0,0,1
EndSplineSet
Validated: 33
EndChar

StartChar: W
Encoding: 87 87 25
Width: 696
Flags: W
HStem: 0 21G<584.5 585.5> 708 43<544.832 627.564> 751 0.5<52.0688 81.1313>
VStem: 117 67<231 332.436> 124 58.5<232.092 593.311> 133 52<478.577 667.34> 276 51<426.504 547> 468.5 58<234.297 684.796>
LayerCount: 2
Fore
SplineSet
532 634 m 0,0,1
 530 581 530 581 528.5 545.5 c 128,-1,2
 527 510 527 510 526.5 481.5 c 128,-1,3
 526 453 526 453 526.5 426.5 c 128,-1,4
 527 400 527 400 528.5 365.5 c 128,-1,5
 530 331 530 331 532.5 284.5 c 128,-1,6
 535 238 535 238 539 169 c 0,7,8
 540 135 540 135 547.5 104.5 c 128,-1,9
 555 74 555 74 563 51.5 c 128,-1,10
 571 29 571 29 578 15 c 128,-1,11
 585 1 585 1 586 0 c 1,12,13
 583 1 583 1 567 4.5 c 128,-1,14
 551 8 551 8 533 11.5 c 128,-1,15
 515 15 515 15 501 17.5 c 128,-1,16
 487 20 487 20 487 20 c 1,17,18
 481 7 481 7 463 3 c 128,-1,19
 445 -1 445 -1 423.5 -0.5 c 128,-1,20
 402 0 402 0 381.5 3 c 128,-1,21
 361 6 361 6 350 7 c 1,22,23
 358 9 358 9 367 16 c 128,-1,24
 376 23 376 23 384 31 c 0,25,26
 393 41 393 41 401 53 c 1,27,28
 400 61 400 61 394.5 99 c 128,-1,29
 389 137 389 137 381 190.5 c 128,-1,30
 373 244 373 244 363.5 304 c 128,-1,31
 354 364 354 364 346 416.5 c 128,-1,32
 338 469 338 469 333 505.5 c 128,-1,33
 328 542 328 542 327 547 c 1,34,35
 327 544 327 544 323.5 521 c 128,-1,36
 320 498 320 498 314 461 c 128,-1,37
 308 424 308 424 300 376.5 c 128,-1,38
 292 329 292 329 283.5 277.5 c 128,-1,39
 275 226 275 226 265.5 174 c 128,-1,40
 256 122 256 122 248 76 c 0,41,42
 246 65 246 65 247.5 52.5 c 128,-1,43
 249 40 249 40 251 29 c 0,44,45
 254 16 254 16 258 2 c 1,46,47
 235 -2 235 -2 215 1 c 0,48,49
 198 3 198 3 180 10.5 c 128,-1,50
 162 18 162 18 152 38 c 1,51,52
 127 17 127 17 109.5 9.5 c 128,-1,53
 92 2 92 2 81 0 c 0,54,55
 68 -2 68 -2 60 4 c 1,56,57
 75 27 75 27 87 53 c 0,58,59
 98 76 98 76 106.5 104.5 c 128,-1,60
 115 133 115 133 117 163 c 0,61,62
 120 253 120 253 124 335 c 0,63,64
 125 370 125 370 126.5 406.5 c 128,-1,65
 128 443 128 443 129.5 477.5 c 128,-1,66
 131 512 131 512 132 542 c 128,-1,67
 133 572 133 572 133 594 c 0,68,69
 127 635 127 635 112 665.5 c 128,-1,70
 97 696 97 696 82 715.5 c 128,-1,71
 67 735 67 735 57 744 c 128,-1,72
 47 753 47 753 52 751 c 0,73,74
 54 751 54 751 82 751.5 c 128,-1,75
 110 752 110 752 145 752 c 2,76,-1
 236 752 l 1,77,78
 232 738 232 738 227 724 c 0,79,80
 222 712 222 712 216 698 c 128,-1,81
 210 684 210 684 201 673 c 0,82,83
 197 667 197 667 193.5 645 c 128,-1,84
 190 623 190 623 188 590.5 c 128,-1,85
 186 558 186 558 185 519 c 128,-1,86
 184 480 184 480 183.5 440 c 128,-1,87
 183 400 183 400 182.5 362 c 128,-1,88
 182 324 182 324 182.5 295 c 128,-1,89
 183 266 183 266 183.5 248.5 c 128,-1,90
 184 231 184 231 184 231 c 2,91,92
 185 232 185 232 201.5 266 c 128,-1,93
 218 300 218 300 236.5 357 c 128,-1,94
 255 414 255 414 268 488 c 128,-1,95
 281 562 281 562 276 643 c 0,96,97
 276 644 276 644 290.5 644 c 128,-1,98
 305 644 305 644 322 643.5 c 128,-1,99
 339 643 339 643 353.5 642.5 c 128,-1,100
 368 642 368 642 368 642 c 1,101,102
 371 592 371 592 378.5 542 c 128,-1,103
 386 492 386 492 396 446.5 c 128,-1,104
 406 401 406 401 417.5 362 c 128,-1,105
 429 323 429 323 438 294.5 c 128,-1,106
 447 266 447 266 453.5 250 c 128,-1,107
 460 234 460 234 461 234 c 2,108,109
 461 234 461 234 462 253 c 128,-1,110
 463 272 463 272 464.5 302.5 c 128,-1,111
 466 333 466 333 467 372.5 c 128,-1,112
 468 412 468 412 468.5 453 c 128,-1,113
 469 494 469 494 468.5 534 c 128,-1,114
 468 574 468 574 466 606 c 128,-1,115
 464 638 464 638 460 659 c 128,-1,116
 456 680 456 680 450 683 c 0,117,118
 438 689 438 689 431 700.5 c 128,-1,119
 424 712 424 712 420.5 723 c 128,-1,120
 417 734 417 734 415.5 743 c 128,-1,121
 414 752 414 752 414 752 c 1,122,123
 448 751 448 751 482 751 c 2,124,-1
 610 751 l 2,125,126
 620 751 620 751 629 742 c 128,-1,127
 638 733 638 733 642.5 720 c 128,-1,128
 647 707 647 707 645.5 694 c 128,-1,129
 644 681 644 681 634 673 c 1,130,131
 635 677 635 677 630.5 683 c 128,-1,132
 626 689 626 689 618.5 695 c 128,-1,133
 611 701 611 701 601.5 705 c 128,-1,134
 592 709 592 709 583 708 c 0,135,136
 555 704 555 704 544.5 687 c 128,-1,137
 534 670 534 670 532 634 c 0,0,1
EndSplineSet
Validated: 33
EndChar

StartChar: X
Encoding: 88 88 26
Width: 672
Flags: W
HStem: 0 21G<52 164.457 502 619.5> 732 20G<465.639 584>
VStem: 386 208<2.5 79.7126>
LayerCount: 2
Fore
SplineSet
584 752 m 1,0,-1
 362 365 l 1,1,2
 394 310 394 310 426.5 258 c 128,-1,3
 459 206 459 206 486 166 c 128,-1,4
 513 126 513 126 532.5 102.5 c 128,-1,5
 552 79 552 79 558 80 c 0,6,7
 576 83 576 83 584 84 c 128,-1,8
 592 85 592 85 594 84 c 128,-1,9
 596 83 596 83 595 79.5 c 128,-1,10
 594 76 594 76 594 69 c 0,11,12
 595 48 595 48 601 34.5 c 128,-1,13
 607 21 607 21 613 13.5 c 128,-1,14
 619 6 619 6 621 3 c 128,-1,15
 623 0 623 0 616 0 c 0,16,17
 603 0 603 0 576.5 0 c 128,-1,18
 550 0 550 0 518 0 c 128,-1,19
 486 0 486 0 453 0.5 c 128,-1,20
 420 1 420 1 395 1 c 0,21,22
 386 1 386 1 386 4 c 128,-1,23
 386 7 386 7 388.5 15.5 c 128,-1,24
 391 24 391 24 393.5 39 c 128,-1,25
 396 54 396 54 393 79 c 0,26,27
 391 95 391 95 394.5 100.5 c 128,-1,28
 398 106 398 106 405 105 c 128,-1,29
 412 104 412 104 420 98.5 c 128,-1,30
 428 93 428 93 435 88 c 128,-1,31
 442 83 442 83 446 81 c 128,-1,32
 450 79 450 79 448 84 c 0,33,34
 423 136 423 136 392 191 c 128,-1,35
 361 246 361 246 326 302 c 1,36,-1
 153 0 l 1,37,-1
 52 1 l 1,38,-1
 271 388 l 1,39,40
 219 469 219 469 172.5 538.5 c 128,-1,41
 126 608 126 608 97 657 c 0,42,43
 96 664 96 664 93.5 662.5 c 128,-1,44
 91 661 91 661 87 656.5 c 128,-1,45
 83 652 83 652 78 647.5 c 128,-1,46
 73 643 73 643 68 644.5 c 128,-1,47
 63 646 63 646 58.5 656 c 128,-1,48
 54 666 54 666 51 691 c 0,49,50
 48 709 48 709 54 719.5 c 128,-1,51
 60 730 60 730 70 736 c 128,-1,52
 80 742 80 742 92.5 744.5 c 128,-1,53
 105 747 105 747 115 750 c 0,54,55
 132 754 132 754 140.5 747 c 128,-1,56
 149 740 149 740 154 729.5 c 128,-1,57
 159 719 159 719 163 708 c 128,-1,58
 167 697 167 697 174 692 c 1,59,60
 194 695 194 695 207 696 c 0,61,62
 218 697 218 697 225.5 695.5 c 128,-1,63
 233 694 233 694 226 688 c 0,64,65
 219 681 219 681 223 660 c 128,-1,66
 227 639 227 639 239 608 c 128,-1,67
 251 577 251 577 269 538.5 c 128,-1,68
 287 500 287 500 310 458 c 1,69,-1
 477 752 l 1,70,-1
 584 752 l 1,0,-1
EndSplineSet
Validated: 33
EndChar

StartChar: Y
Encoding: 89 89 27
Width: 681
Flags: W
HStem: 0 72.5<199.643 304.998> 0 55.5<199.643 304.998> 732 20G<116.5 355 399 631>
VStem: 300 107<58.9692 339.504>
LayerCount: 2
Fore
SplineSet
427 685 m 0,0,1
 424 692 424 692 415 703.5 c 128,-1,2
 406 715 406 715 399.5 726 c 128,-1,3
 393 737 393 737 392.5 744.5 c 128,-1,4
 392 752 392 752 406 752 c 2,5,-1
 631 752 l 1,6,7
 629 745 629 745 626 740 c 0,8,9
 624 735 624 735 622 730 c 128,-1,10
 620 725 620 725 620 720 c 0,11,12
 619 711 619 711 610.5 706.5 c 128,-1,13
 602 702 602 702 591 698.5 c 128,-1,14
 580 695 580 695 570.5 690.5 c 128,-1,15
 561 686 561 686 558 677 c 0,16,17
 520 585 520 585 489 506 c 0,18,19
 475 472 475 472 462 438 c 128,-1,20
 449 404 449 404 438 373.5 c 128,-1,21
 427 343 427 343 418.5 319.5 c 128,-1,22
 410 296 410 296 407 283 c 0,23,24
 408 249 408 249 409 211.5 c 128,-1,25
 410 174 410 174 411.5 141.5 c 128,-1,26
 413 109 413 109 415.5 85.5 c 128,-1,27
 418 62 418 62 422 58 c 0,28,29
 429 50 429 50 444.5 51 c 128,-1,30
 460 52 460 52 476.5 56 c 128,-1,31
 493 60 493 60 505.5 63 c 128,-1,32
 518 66 518 66 519 62 c 0,33,34
 520 50 520 50 526 38.5 c 128,-1,35
 532 27 532 27 536 19 c 128,-1,36
 540 11 540 11 540 5.5 c 128,-1,37
 540 0 540 0 529 0 c 0,38,39
 511 0 511 0 474.5 0 c 128,-1,40
 438 0 438 0 394 0 c 128,-1,41
 350 0 350 0 303.5 0 c 128,-1,42
 257 0 257 0 218 0 c 0,43,44
 204 0 204 0 199.5 3.5 c 128,-1,45
 195 7 195 7 194 14 c 128,-1,46
 193 21 193 21 193 32 c 128,-1,47
 193 43 193 43 188 58 c 0,48,49
 184 68 184 68 191.5 71 c 128,-1,50
 199 74 199 74 212 72.5 c 128,-1,51
 225 71 225 71 241 67.5 c 128,-1,52
 257 64 257 64 271.5 60.5 c 128,-1,53
 286 57 286 57 295.5 55.5 c 128,-1,54
 305 54 305 54 305 58 c 0,55,56
 305 112 305 112 304.5 142 c 128,-1,57
 304 172 304 172 303.5 192.5 c 128,-1,58
 303 213 303 213 302 231.5 c 128,-1,59
 301 250 301 250 300 281 c 2,60,-1
 300 282 l 1,61,62
 271 360 271 360 251 415.5 c 128,-1,63
 231 471 231 471 214.5 516.5 c 128,-1,64
 198 562 198 562 181 604.5 c 128,-1,65
 164 647 164 647 141 699 c 0,66,67
 139 705 139 705 131.5 704 c 128,-1,68
 124 703 124 703 115 699 c 128,-1,69
 106 695 106 695 97.5 690.5 c 128,-1,70
 89 686 89 686 86 683 c 0,71,72
 75 674 75 674 69 679 c 128,-1,73
 63 684 63 684 59.5 694.5 c 128,-1,74
 56 705 56 705 54 715.5 c 128,-1,75
 52 726 52 726 51 728 c 0,76,77
 50 729 50 729 55.5 733 c 128,-1,78
 61 737 61 737 71 741.5 c 128,-1,79
 81 746 81 746 94.5 749 c 128,-1,80
 108 752 108 752 125 752 c 2,81,-1
 355 752 l 2,82,83
 353 751 353 751 341.5 745.5 c 128,-1,84
 330 740 330 740 316 731.5 c 128,-1,85
 302 723 302 723 287 713.5 c 128,-1,86
 272 704 272 704 262 695 c 0,87,88
 254 688 254 688 258 664 c 128,-1,89
 262 640 262 640 271.5 607 c 128,-1,90
 281 574 281 574 295 537 c 128,-1,91
 309 500 309 500 321.5 467 c 128,-1,92
 334 434 334 434 344 409.5 c 128,-1,93
 354 385 354 385 355 378 c 1,94,95
 356 388 356 388 364.5 409 c 128,-1,96
 373 430 373 430 384 457.5 c 128,-1,97
 395 485 395 485 407 516.5 c 128,-1,98
 419 548 419 548 427 579 c 128,-1,99
 435 610 435 610 436 637.5 c 128,-1,100
 437 665 437 665 427 685 c 0,0,1
EndSplineSet
Validated: 33
EndChar

StartChar: Z
Encoding: 90 90 28
Width: 590
Flags: W
HStem: 0 57.5<165.315 391.145> 332 56<134 202 323 404.667> 680 72<208.222 359.684>
LayerCount: 2
Fore
SplineSet
426 337 m 1,0,-1
 296 334 l 1,1,-1
 165 60 l 1,2,3
 175 58 175 58 195 57.5 c 128,-1,4
 215 57 215 57 238.5 58.5 c 128,-1,5
 262 60 262 60 287.5 62.5 c 128,-1,6
 313 65 313 65 334.5 67.5 c 128,-1,7
 356 70 356 70 372 73.5 c 128,-1,8
 388 77 388 77 392 80 c 0,9,10
 411 92 411 92 413 111 c 128,-1,11
 415 130 415 130 409 151 c 128,-1,12
 403 172 403 172 393.5 192.5 c 128,-1,13
 384 213 384 213 380 227 c 0,14,15
 378 235 378 235 386 237 c 128,-1,16
 394 239 394 239 406.5 237.5 c 128,-1,17
 419 236 419 236 434.5 231.5 c 128,-1,18
 450 227 450 227 463 223 c 128,-1,19
 476 219 476 219 485 215.5 c 128,-1,20
 494 212 494 212 494 213 c 256,21,22
 494 214 494 214 490 202.5 c 128,-1,23
 486 191 486 191 482 173.5 c 128,-1,24
 478 156 478 156 475.5 136 c 128,-1,25
 473 116 473 116 476 100 c 0,26,27
 480 83 480 83 490.5 66 c 128,-1,28
 501 49 501 49 512 34 c 0,29,30
 525 16 525 16 540 0 c 1,31,-1
 50 0 l 1,32,-1
 202 332 l 1,33,-1
 130 331 l 1,34,-1
 134 386 l 1,35,-1
 228 388 l 1,36,-1
 360 676 l 1,37,38
 350 680 350 680 327.5 680 c 128,-1,39
 305 680 305 680 281 677.5 c 128,-1,40
 257 675 257 675 236 671 c 128,-1,41
 215 667 215 667 208 663 c 0,42,43
 190 651 190 651 190 634 c 128,-1,44
 190 617 190 617 197.5 598 c 128,-1,45
 205 579 205 579 215.5 560.5 c 128,-1,46
 226 542 226 542 230 529 c 0,47,48
 233 517 233 517 216 517.5 c 128,-1,49
 199 518 199 518 178 524 c 128,-1,50
 157 530 157 530 138.5 537 c 128,-1,51
 120 544 120 544 120 543 c 256,52,53
 120 542 120 542 124 553.5 c 128,-1,54
 128 565 128 565 132 582 c 128,-1,55
 136 599 136 599 138.5 618.5 c 128,-1,56
 141 638 141 638 137 654 c 0,57,58
 133 669 133 669 123 686.5 c 128,-1,59
 113 704 113 704 102 718 c 0,60,61
 89 735 89 735 74 752 c 1,62,-1
 494 752 l 1,63,-1
 323 391 l 1,64,-1
 421 394 l 1,65,-1
 426 337 l 1,0,-1
EndSplineSet
Validated: 37
EndChar

StartChar: underscore
Encoding: 95 95 29
Width: 866
Flags: W
LayerCount: 2
Fore
SplineSet
816 -224 m 1,0,-1
 50 -226 l 1,1,-1
 54 -171 l 1,2,-1
 810 -167 l 1,3,-1
 816 -224 l 1,0,-1
EndSplineSet
Validated: 1
EndChar

StartChar: grave
Encoding: 96 96 30
Width: 321
Flags: W
LayerCount: 2
Fore
SplineSet
197 554 m 1,0,1
 183 550 183 550 163.5 544 c 128,-1,2
 144 538 144 538 123.5 538.5 c 128,-1,3
 103 539 103 539 84 550 c 128,-1,4
 65 561 65 561 53 591 c 0,5,6
 50 601 50 601 53.5 613.5 c 128,-1,7
 57 626 57 626 66.5 637 c 128,-1,8
 76 648 76 648 90.5 655.5 c 128,-1,9
 105 663 105 663 123 665 c 0,10,11
 144 666 144 666 164.5 661.5 c 128,-1,12
 185 657 185 657 204 647 c 128,-1,13
 223 637 223 637 235.5 624 c 128,-1,14
 248 611 248 611 252 596 c 0,15,16
 271 517 271 517 269 483.5 c 128,-1,17
 267 450 267 450 236 461 c 0,18,19
 207 471 207 471 202 481.5 c 128,-1,20
 197 492 197 492 200 503.5 c 128,-1,21
 203 515 203 515 206.5 527.5 c 128,-1,22
 210 540 210 540 197 554 c 1,0,1
EndSplineSet
Validated: 33
EndChar

StartChar: a
Encoding: 97 97 31
Width: 522
Flags: W
LayerCount: 2
Fore
SplineSet
191 4 m 0,0,1
 143 4 143 4 108.5 30.5 c 128,-1,2
 74 57 74 57 55 92 c 0,3,4
 43 116 43 116 59 137 c 128,-1,5
 75 158 75 158 106 175 c 128,-1,6
 137 192 137 192 176.5 206 c 128,-1,7
 216 220 216 220 251.5 229.5 c 128,-1,8
 287 239 287 239 311 244.5 c 128,-1,9
 335 250 335 250 336 251 c 0,10,11
 336 252 336 252 337 266.5 c 128,-1,12
 338 281 338 281 334 299 c 128,-1,13
 330 317 330 317 319 334.5 c 128,-1,14
 308 352 308 352 285 359 c 0,15,16
 266 365 266 365 244.5 362 c 128,-1,17
 223 359 223 359 201.5 351.5 c 128,-1,18
 180 344 180 344 160 333 c 128,-1,19
 140 322 140 322 124.5 312.5 c 128,-1,20
 109 303 109 303 99.5 296.5 c 128,-1,21
 90 290 90 290 90 291 c 256,22,23
 90 292 90 292 82.5 298 c 128,-1,24
 75 304 75 304 69.5 313 c 128,-1,25
 64 322 64 322 64.5 334 c 128,-1,26
 65 346 65 346 82 359.5 c 128,-1,27
 99 373 99 373 137 387 c 128,-1,28
 175 401 175 401 243 415 c 0,29,30
 286 423 286 423 314.5 418 c 128,-1,31
 343 413 343 413 361 400 c 128,-1,32
 379 387 379 387 388 369.5 c 128,-1,33
 397 352 397 352 400.5 336.5 c 128,-1,34
 404 321 404 321 404 310 c 128,-1,35
 404 299 404 299 404 299 c 2,36,37
 403 299 403 299 403.5 283.5 c 128,-1,38
 404 268 404 268 404 244 c 128,-1,39
 404 220 404 220 404.5 192.5 c 128,-1,40
 405 165 405 165 405.5 140.5 c 128,-1,41
 406 116 406 116 406.5 99 c 128,-1,42
 407 82 407 82 407 80 c 0,43,44
 411 77 411 77 421.5 71.5 c 128,-1,45
 432 66 432 66 442.5 59.5 c 128,-1,46
 453 53 453 53 462 45.5 c 128,-1,47
 471 38 471 38 472 32 c 0,48,49
 472 28 472 28 471 24 c 128,-1,50
 470 20 470 20 469 15 c 0,51,52
 467 10 467 10 466 4 c 1,53,-1
 363 4 l 2,54,55
 354 4 354 4 352 11 c 128,-1,56
 350 18 350 18 351.5 27.5 c 128,-1,57
 353 37 353 37 357 47 c 128,-1,58
 361 57 361 57 364 62 c 1,59,60
 354 57 354 57 333.5 47 c 128,-1,61
 313 37 313 37 288 27.5 c 128,-1,62
 263 18 263 18 237 11 c 128,-1,63
 211 4 211 4 191 4 c 0,0,1
341 194 m 256,64,65
 342 194 342 194 327 193 c 128,-1,66
 312 192 312 192 289.5 188.5 c 128,-1,67
 267 185 267 185 241 178.5 c 128,-1,68
 215 172 215 172 193.5 162.5 c 128,-1,69
 172 153 172 153 159 139 c 128,-1,70
 146 125 146 125 149 106 c 1,71,72
 163 79 163 79 183.5 69.5 c 128,-1,73
 204 60 204 60 226 60.5 c 128,-1,74
 248 61 248 61 269.5 69 c 128,-1,75
 291 77 291 77 308.5 87 c 128,-1,76
 326 97 326 97 336.5 105 c 128,-1,77
 347 113 347 113 347 114 c 256,78,79
 347 115 347 115 346 127.5 c 128,-1,80
 345 140 345 140 343.5 155 c 128,-1,81
 342 170 342 170 341 182 c 128,-1,82
 340 194 340 194 341 194 c 256,64,65
EndSplineSet
Validated: 37
EndChar

StartChar: b
Encoding: 98 98 32
Width: 596
Flags: W
LayerCount: 2
Fore
SplineSet
107 69 m 0,0,1
 107 123 107 123 106.5 162 c 128,-1,2
 106 201 106 201 105.5 232 c 128,-1,3
 105 263 105 263 104.5 290 c 128,-1,4
 104 317 104 317 104 348 c 0,5,6
 104 383 104 383 104 419.5 c 128,-1,7
 104 456 104 456 104 496.5 c 128,-1,8
 104 537 104 537 104 583 c 128,-1,9
 104 629 104 629 103 682 c 0,10,11
 102 689 102 689 97.5 684.5 c 128,-1,12
 93 680 93 680 87 676.5 c 128,-1,13
 81 673 81 673 75 676.5 c 128,-1,14
 69 680 69 680 65 703 c 0,15,16
 61 725 61 725 76 736.5 c 128,-1,17
 91 748 91 748 107 751 c 0,18,19
 121 753 121 753 133 746 c 128,-1,20
 145 739 145 739 155 729 c 128,-1,21
 165 719 165 719 173.5 709.5 c 128,-1,22
 182 700 182 700 188 697 c 0,23,24
 204 699 204 699 215 700 c 0,25,26
 224 701 224 701 230 700 c 128,-1,27
 236 699 236 699 231 695 c 0,28,29
 210 680 210 680 196 655.5 c 128,-1,30
 182 631 182 631 173.5 602.5 c 128,-1,31
 165 574 165 574 162 543.5 c 128,-1,32
 159 513 159 513 159 485 c 2,33,-1
 161 359 l 1,34,35
 184 366 184 366 222.5 374 c 128,-1,36
 261 382 261 382 304.5 384 c 128,-1,37
 348 386 348 386 392 378.5 c 128,-1,38
 436 371 436 371 471 347.5 c 128,-1,39
 506 324 506 324 527 281 c 128,-1,40
 548 238 548 238 545 168 c 0,41,42
 543 113 543 113 513.5 79.5 c 128,-1,43
 484 46 484 46 439.5 28.5 c 128,-1,44
 395 11 395 11 343 5.5 c 128,-1,45
 291 0 291 0 245 0 c 2,46,-1
 235 0 l 2,47,48
 230 0 230 0 226 0 c 128,-1,49
 222 0 222 0 217 1 c 0,50,51
 202 1 202 1 182 1 c 128,-1,52
 162 1 162 1 140.5 1 c 128,-1,53
 119 1 119 1 98 1 c 128,-1,54
 77 1 77 1 60 1 c 0,55,56
 53 1 53 1 52 4.5 c 128,-1,57
 51 8 51 8 51.5 15.5 c 128,-1,58
 52 23 52 23 53 34 c 128,-1,59
 54 45 54 45 51 60 c 0,60,61
 49 75 49 75 57.5 76 c 128,-1,62
 66 77 66 77 77 73.5 c 128,-1,63
 88 70 88 70 97.5 66.5 c 128,-1,64
 107 63 107 63 107 69 c 0,0,1
167 69 m 256,65,66
 168 69 168 69 190.5 64 c 128,-1,67
 213 59 213 59 247 54.5 c 128,-1,68
 281 50 281 50 320 51 c 128,-1,69
 359 52 359 52 392.5 65.5 c 128,-1,70
 426 79 426 79 448 109 c 128,-1,71
 470 139 470 139 470 192 c 0,72,73
 469 237 469 237 448 263.5 c 128,-1,74
 427 290 427 290 394.5 303.5 c 128,-1,75
 362 317 362 317 324 319 c 128,-1,76
 286 321 286 321 252 318.5 c 128,-1,77
 218 316 218 316 193 311 c 128,-1,78
 168 306 168 306 162 304 c 1,79,-1
 162 294 l 2,80,81
 163 282 163 282 163.5 261 c 128,-1,82
 164 240 164 240 164 215 c 128,-1,83
 164 190 164 190 164.5 163.5 c 128,-1,84
 165 137 165 137 165 116 c 128,-1,85
 165 95 165 95 165.5 82 c 128,-1,86
 166 69 166 69 167 69 c 256,65,66
EndSplineSet
Validated: 33
EndChar

StartChar: c
Encoding: 99 99 33
Width: 474
Flags: W
LayerCount: 2
Fore
SplineSet
51 196 m 256,0,1
 49 256 49 256 67 297.5 c 128,-1,2
 85 339 85 339 115 365 c 128,-1,3
 145 391 145 391 184 403.5 c 128,-1,4
 223 416 223 416 262.5 419.5 c 128,-1,5
 302 423 302 423 338 418.5 c 128,-1,6
 374 414 374 414 400 406 c 0,7,8
 413 401 413 401 413.5 393 c 128,-1,9
 414 385 414 385 409 377 c 0,10,11
 403 367 403 367 391 357 c 0,12,13
 390 357 390 357 368.5 363 c 128,-1,14
 347 369 347 369 315 372.5 c 128,-1,15
 283 376 283 376 246 372.5 c 128,-1,16
 209 369 209 369 178.5 350.5 c 128,-1,17
 148 332 148 332 129.5 294.5 c 128,-1,18
 111 257 111 257 115 192 c 1,19,20
 125 145 125 145 142.5 116 c 128,-1,21
 160 87 160 87 182 72 c 128,-1,22
 204 57 204 57 228 53.5 c 128,-1,23
 252 50 252 50 276 54 c 0,24,25
 331 63 331 63 396 105 c 1,26,27
 410 105 410 105 413 97 c 128,-1,28
 416 89 416 89 422 81 c 0,29,30
 428 72 428 72 415.5 59 c 128,-1,31
 403 46 403 46 378.5 34 c 128,-1,32
 354 22 354 22 321 12.5 c 128,-1,33
 288 3 288 3 252.5 1 c 128,-1,34
 217 -1 217 -1 181.5 6.5 c 128,-1,35
 146 14 146 14 118 36.5 c 128,-1,36
 90 59 90 59 71.5 97.5 c 128,-1,37
 53 136 53 136 51 196 c 256,0,1
EndSplineSet
Validated: 33
EndChar

StartChar: d
Encoding: 100 100 34
Width: 610
Flags: W
LayerCount: 2
Fore
SplineSet
54 143 m 0,0,1
 44 196 44 196 60 234.5 c 128,-1,2
 76 273 76 273 108 299.5 c 128,-1,3
 140 326 140 326 183.5 343 c 128,-1,4
 227 360 227 360 271.5 369 c 128,-1,5
 316 378 316 378 357.5 381.5 c 128,-1,6
 399 385 399 385 428 386 c 1,7,8
 428 449 428 449 427.5 521 c 128,-1,9
 427 593 427 593 426 678 c 0,10,11
 426 685 426 685 421 680.5 c 128,-1,12
 416 676 416 676 410 672.5 c 128,-1,13
 404 669 404 669 398 672.5 c 128,-1,14
 392 676 392 676 388 699 c 0,15,16
 384 721 384 721 398 735 c 128,-1,17
 412 749 412 749 429 752 c 0,18,19
 443 754 443 754 455.5 746.5 c 128,-1,20
 468 739 468 739 478 728 c 128,-1,21
 488 717 488 717 496.5 706.5 c 128,-1,22
 505 696 505 696 511 693 c 0,23,24
 527 695 527 695 538 696 c 0,25,26
 547 697 547 697 552.5 696 c 128,-1,27
 558 695 558 695 552 691 c 0,28,29
 531 676 531 676 520 652.5 c 128,-1,30
 509 629 509 629 504 602 c 128,-1,31
 499 575 499 575 498 546 c 128,-1,32
 497 517 497 517 497 489 c 0,33,34
 498 414 498 414 498.5 340.5 c 128,-1,35
 499 267 499 267 499 207 c 128,-1,36
 499 147 499 147 500 108 c 128,-1,37
 501 69 501 69 504 65 c 0,38,39
 508 57 508 57 516.5 54 c 128,-1,40
 525 51 525 51 533.5 49.5 c 128,-1,41
 542 48 542 48 548.5 47 c 128,-1,42
 555 46 555 46 555 42 c 0,43,44
 556 30 556 30 557.5 22 c 128,-1,45
 559 14 559 14 559 9 c 128,-1,46
 559 4 559 4 557 2 c 128,-1,47
 555 0 555 0 548 0 c 0,48,49
 537 0 537 0 513.5 0 c 128,-1,50
 490 0 490 0 464.5 0 c 128,-1,51
 439 0 439 0 416 0.5 c 128,-1,52
 393 1 393 1 382 1 c 2,53,-1
 381 1 l 2,54,55
 379 1 379 1 377.5 0.5 c 128,-1,56
 376 0 376 0 375 0 c 2,57,-1
 375 1 l 1,58,-1
 373 1 l 2,59,60
 372 1 372 1 372.5 0.5 c 128,-1,61
 373 0 373 0 374 0 c 1,62,63
 329 -1 329 -1 277 3.5 c 128,-1,64
 225 8 225 8 178.5 23 c 128,-1,65
 132 38 132 38 97.5 66.5 c 128,-1,66
 63 95 63 95 54 143 c 0,0,1
438 115 m 0,67,68
 437 136 437 136 436 160.5 c 128,-1,69
 435 185 435 185 433.5 209.5 c 128,-1,70
 432 234 432 234 431 256 c 128,-1,71
 430 278 430 278 429 293 c 2,72,-1
 429 318 l 2,73,74
 428 318 428 318 405 318 c 128,-1,75
 382 318 382 318 348.5 315 c 128,-1,76
 315 312 315 312 275.5 303.5 c 128,-1,77
 236 295 236 295 203 277.5 c 128,-1,78
 170 260 170 260 148.5 232.5 c 128,-1,79
 127 205 127 205 128 163 c 0,80,81
 128 121 128 121 150.5 97.5 c 128,-1,82
 173 74 173 74 207.5 63 c 128,-1,83
 242 52 242 52 282 50.5 c 128,-1,84
 322 49 322 49 356.5 51.5 c 128,-1,85
 391 54 391 54 414.5 57.5 c 128,-1,86
 438 61 438 61 439 61 c 1,87,88
 439 76 439 76 439 89.5 c 128,-1,89
 439 103 439 103 438 115 c 0,67,68
EndSplineSet
Validated: 33
EndChar

StartChar: e
Encoding: 101 101 35
Width: 518
Flags: W
LayerCount: 2
Fore
SplineSet
310 73 m 0,0,1
 350 97 350 97 378 105.5 c 128,-1,2
 406 114 406 114 424.5 112 c 128,-1,3
 443 110 443 110 453 101 c 128,-1,4
 463 92 463 92 466 81 c 128,-1,5
 469 70 469 70 466 59.5 c 128,-1,6
 463 49 463 49 456 45 c 1,7,8
 440 53 440 53 410.5 44.5 c 128,-1,9
 381 36 381 36 344 24.5 c 128,-1,10
 307 13 307 13 266 5.5 c 128,-1,11
 225 -2 225 -2 186.5 8.5 c 128,-1,12
 148 19 148 19 115.5 54 c 128,-1,13
 83 89 83 89 63 162 c 0,14,15
 44 233 44 233 60.5 282.5 c 128,-1,16
 77 332 77 332 111 362.5 c 128,-1,17
 145 393 145 393 188.5 406.5 c 128,-1,18
 232 420 232 420 267 419 c 0,19,20
 314 420 314 420 346 411.5 c 128,-1,21
 378 403 378 403 398 389 c 128,-1,22
 418 375 418 375 429 356.5 c 128,-1,23
 440 338 440 338 445 320 c 128,-1,24
 450 302 450 302 451.5 285 c 128,-1,25
 453 268 453 268 455 256 c 0,26,27
 456 248 456 248 442 242.5 c 128,-1,28
 428 237 428 237 405 233 c 128,-1,29
 382 229 382 229 352.5 226 c 128,-1,30
 323 223 323 223 292 221 c 0,31,32
 219 217 219 217 126 217 c 1,33,34
 121 192 121 192 123 168 c 0,35,36
 125 148 125 148 132.5 125.5 c 128,-1,37
 140 103 140 103 160 87 c 0,38,39
 187 65 187 65 208.5 57 c 128,-1,40
 230 49 230 49 248 50 c 128,-1,41
 266 51 266 51 281 58 c 128,-1,42
 296 65 296 65 310 73 c 0,0,1
268 378 m 0,43,44
 223 374 223 374 195.5 356.5 c 128,-1,45
 168 339 168 339 153 319.5 c 128,-1,46
 138 300 138 300 133 285 c 128,-1,47
 128 270 128 270 128 271 c 2,48,49
 128 271 128 271 143 269.5 c 128,-1,50
 158 268 158 268 181.5 265.5 c 128,-1,51
 205 263 205 263 234.5 261 c 128,-1,52
 264 259 264 259 293 259 c 128,-1,53
 322 259 322 259 348 261.5 c 128,-1,54
 374 264 374 264 391 271 c 1,55,56
 396 283 396 283 394.5 302.5 c 128,-1,57
 393 322 393 322 380 340 c 128,-1,58
 367 358 367 358 340 369.5 c 128,-1,59
 313 381 313 381 268 378 c 0,43,44
EndSplineSet
Validated: 37
EndChar

StartChar: f
Encoding: 102 102 36
Width: 460
Flags: W
LayerCount: 2
Fore
SplineSet
325 337 m 1,0,-1
 220 334 l 1,1,2
 221 280 221 280 221.5 230.5 c 128,-1,3
 222 181 222 181 222.5 143 c 128,-1,4
 223 105 223 105 224 81 c 128,-1,5
 225 57 225 57 227 54 c 0,6,7
 231 46 231 46 239.5 44.5 c 128,-1,8
 248 43 248 43 256.5 44 c 128,-1,9
 265 45 265 45 271.5 45.5 c 128,-1,10
 278 46 278 46 278 42 c 0,11,12
 279 30 279 30 282.5 22 c 128,-1,13
 286 14 286 14 288 9 c 128,-1,14
 290 4 290 4 290 2 c 128,-1,15
 290 0 290 0 283 0 c 0,16,17
 273 0 273 0 252 0 c 128,-1,18
 231 0 231 0 205.5 0 c 128,-1,19
 180 0 180 0 153.5 0 c 128,-1,20
 127 0 127 0 107 0 c 0,21,22
 100 0 100 0 97.5 3 c 128,-1,23
 95 6 95 6 93.5 12 c 128,-1,24
 92 18 92 18 91.5 28.5 c 128,-1,25
 91 39 91 39 88 54 c 256,26,27
 85 69 85 69 94.5 69 c 128,-1,28
 104 69 104 69 116.5 63.5 c 128,-1,29
 129 58 129 58 140 53 c 128,-1,30
 151 48 151 48 151 54 c 0,31,32
 151 105 151 105 150.5 144 c 128,-1,33
 150 183 150 183 149.5 215.5 c 128,-1,34
 149 248 149 248 148.5 275.5 c 128,-1,35
 148 303 148 303 148 332 c 1,36,-1
 50 330 l 1,37,-1
 52 385 l 1,38,-1
 147 388 l 1,39,40
 147 432 147 432 148 480.5 c 128,-1,41
 149 529 149 529 149 584 c 0,42,43
 150 640 150 640 168 686 c 0,44,45
 175 705 175 705 186.5 723.5 c 128,-1,46
 198 742 198 742 215 757 c 128,-1,47
 232 772 232 772 254.5 782 c 128,-1,48
 277 792 277 792 307 793 c 0,49,50
 351 793 351 793 378.5 789 c 128,-1,51
 406 785 406 785 422.5 777 c 128,-1,52
 439 769 439 769 445.5 759 c 128,-1,53
 452 749 452 749 453 738.5 c 128,-1,54
 454 728 454 728 452 717.5 c 128,-1,55
 450 707 450 707 449 699 c 1,56,57
 443 696 443 696 429 693 c 128,-1,58
 415 690 415 690 401 688 c 0,59,60
 384 685 384 685 365 682 c 1,61,62
 380 711 380 711 378 729 c 0,63,64
 377 737 377 737 373 743 c 128,-1,65
 369 749 369 749 359 752 c 128,-1,66
 349 755 349 755 333 753 c 128,-1,67
 317 751 317 751 293 743 c 0,68,69
 270 732 270 732 256.5 710 c 128,-1,70
 243 688 243 688 235 662 c 128,-1,71
 227 636 227 636 223.5 609 c 128,-1,72
 220 582 220 582 218 562 c 0,73,74
 220 527 220 527 218 490 c 0,75,76
 218 465 218 465 218.5 440 c 128,-1,77
 219 415 219 415 219 390 c 1,78,-1
 320 394 l 1,79,-1
 325 337 l 1,0,-1
EndSplineSet
Validated: 33
EndChar

StartChar: g
Encoding: 103 103 37
Width: 594
Flags: W
LayerCount: 2
Fore
SplineSet
51 -144 m 0,0,1
 54 -91 54 -91 86.5 -60.5 c 128,-1,2
 119 -30 119 -30 167 -14 c 1,3,4
 155 -5 155 -5 139.5 8 c 128,-1,5
 124 21 124 21 110.5 33.5 c 128,-1,6
 97 46 97 46 88 55.5 c 128,-1,7
 79 65 79 65 79 67 c 0,8,9
 78 76 78 76 86.5 84.5 c 128,-1,10
 95 93 95 93 108 100 c 128,-1,11
 121 107 121 107 136.5 113 c 128,-1,12
 152 119 152 119 167 123 c 1,13,14
 132 141 132 141 108.5 171 c 128,-1,15
 85 201 85 201 87 246 c 0,16,17
 90 289 90 289 110 317 c 128,-1,18
 130 345 130 345 160.5 362 c 128,-1,19
 191 379 191 379 229.5 385.5 c 128,-1,20
 268 392 268 392 308 392 c 0,21,22
 345 391 345 391 373.5 383.5 c 128,-1,23
 402 376 402 376 425 363 c 1,24,25
 437 378 437 378 453.5 393 c 128,-1,26
 470 408 470 408 488 406 c 0,27,28
 496 404 496 404 504.5 399.5 c 128,-1,29
 513 395 513 395 519 388 c 128,-1,30
 525 381 525 381 528 371.5 c 128,-1,31
 531 362 531 362 529 351 c 0,32,33
 527 336 527 336 520.5 328 c 128,-1,34
 514 320 514 320 505.5 318 c 128,-1,35
 497 316 497 316 487.5 317 c 128,-1,36
 478 318 478 318 471 321 c 1,37,38
 491 294 491 294 495.5 262 c 128,-1,39
 500 230 500 230 491 200 c 0,40,41
 483 173 483 173 462 154 c 128,-1,42
 441 135 441 135 414 123 c 128,-1,43
 387 111 387 111 357.5 105 c 128,-1,44
 328 99 328 99 303 97 c 0,45,46
 280 95 280 95 254 98 c 128,-1,47
 228 101 228 101 202 109 c 1,48,49
 185 105 185 105 172 97 c 128,-1,50
 159 89 159 89 164 74 c 0,51,52
 168 61 168 61 190.5 49.5 c 128,-1,53
 213 38 213 38 239.5 28.5 c 128,-1,54
 266 19 266 19 288.5 12.5 c 128,-1,55
 311 6 311 6 314 5 c 2,56,-1
 317 5 l 2,57,58
 386 3 386 3 433.5 -15 c 128,-1,59
 481 -33 481 -33 507.5 -60.5 c 128,-1,60
 534 -88 534 -88 541 -122.5 c 128,-1,61
 548 -157 548 -157 536 -190 c 0,62,63
 527 -218 527 -218 502 -237 c 128,-1,64
 477 -256 477 -256 444.5 -268.5 c 128,-1,65
 412 -281 412 -281 375.5 -287 c 128,-1,66
 339 -293 339 -293 308 -296 c 0,67,68
 283 -298 283 -298 254 -295.5 c 128,-1,69
 225 -293 225 -293 196 -286 c 128,-1,70
 167 -279 167 -279 140 -266.5 c 128,-1,71
 113 -254 113 -254 92.5 -236.5 c 128,-1,72
 72 -219 72 -219 60.5 -196 c 128,-1,73
 49 -173 49 -173 51 -144 c 0,0,1
303 -20 m 0,74,75
 265 -19 265 -19 233 -29.5 c 128,-1,76
 201 -40 201 -40 177 -58 c 128,-1,77
 153 -76 153 -76 139.5 -99.5 c 128,-1,78
 126 -123 126 -123 126 -147 c 256,79,80
 126 -171 126 -171 141.5 -193.5 c 128,-1,81
 157 -216 157 -216 182.5 -234 c 128,-1,82
 208 -252 208 -252 240.5 -262.5 c 128,-1,83
 273 -273 273 -273 308 -272 c 0,84,85
 339 -271 339 -271 370 -260.5 c 128,-1,86
 401 -250 401 -250 425.5 -234 c 128,-1,87
 450 -218 450 -218 465 -198.5 c 128,-1,88
 480 -179 480 -179 479 -158 c 0,89,90
 478 -131 478 -131 469.5 -107 c 128,-1,91
 461 -83 461 -83 441 -64.5 c 128,-1,92
 421 -46 421 -46 387.5 -34 c 128,-1,93
 354 -22 354 -22 303 -20 c 0,74,75
296 368 m 0,94,95
 265 369 265 369 242 358 c 128,-1,96
 219 347 219 347 203 328.5 c 128,-1,97
 187 310 187 310 179.5 287 c 128,-1,98
 172 264 172 264 172 241 c 256,99,100
 172 218 172 218 181.5 196 c 128,-1,101
 191 174 191 174 208.5 157 c 128,-1,102
 226 140 226 140 250 130 c 128,-1,103
 274 120 274 120 303 121 c 0,104,105
 328 122 328 122 350 131.5 c 128,-1,106
 372 141 372 141 388 155.5 c 128,-1,107
 404 170 404 170 412.5 189 c 128,-1,108
 421 208 421 208 419 228 c 0,109,110
 418 253 418 253 415 277.5 c 128,-1,111
 412 302 412 302 400 321.5 c 128,-1,112
 388 341 388 341 363.5 353.5 c 128,-1,113
 339 366 339 366 296 368 c 0,94,95
406 344 m 0,114,115
 406 342 406 342 409 345 c 1,116,117
 405 345 405 345 406 344 c 0,114,115
EndSplineSet
Validated: 33
EndChar

StartChar: h
Encoding: 104 104 38
Width: 615
Flags: W
LayerCount: 2
Fore
SplineSet
116 63 m 0,0,1
 116 117 116 117 116 156 c 128,-1,2
 116 195 116 195 115.5 226 c 128,-1,3
 115 257 115 257 114.5 284 c 128,-1,4
 114 311 114 311 114 342 c 0,5,6
 114 377 114 377 114 413.5 c 128,-1,7
 114 450 114 450 114 490.5 c 128,-1,8
 114 531 114 531 114 577 c 128,-1,9
 114 623 114 623 113 676 c 0,10,11
 112 683 112 683 107.5 678.5 c 128,-1,12
 103 674 103 674 97 670.5 c 128,-1,13
 91 667 91 667 85 670.5 c 128,-1,14
 79 674 79 674 75 697 c 0,15,16
 70 719 70 719 84.5 733 c 128,-1,17
 99 747 99 747 116 750 c 0,18,19
 130 752 130 752 142 744.5 c 128,-1,20
 154 737 154 737 164.5 726 c 128,-1,21
 175 715 175 715 183 704.5 c 128,-1,22
 191 694 191 694 197 691 c 0,23,24
 213 693 213 693 224 694 c 0,25,26
 233 695 233 695 238.5 694 c 128,-1,27
 244 693 244 693 239 689 c 0,28,29
 218 674 218 674 207 650.5 c 128,-1,30
 196 627 196 627 191 600 c 128,-1,31
 186 573 186 573 185 544 c 128,-1,32
 184 515 184 515 184 487 c 0,33,34
 184 453 184 453 184.5 419 c 128,-1,35
 185 385 185 385 185 352 c 1,36,37
 203 359 203 359 227.5 367 c 128,-1,38
 252 375 252 375 279.5 381.5 c 128,-1,39
 307 388 307 388 335 392 c 128,-1,40
 363 396 363 396 389 395 c 0,41,42
 429 393 429 393 453.5 371.5 c 128,-1,43
 478 350 478 350 492 318 c 128,-1,44
 506 286 506 286 511 248 c 128,-1,45
 516 210 516 210 516 174.5 c 128,-1,46
 516 139 516 139 513 110.5 c 128,-1,47
 510 82 510 82 508 69 c 1,48,49
 515 65 515 65 524 60 c 128,-1,50
 533 55 533 55 542 49 c 128,-1,51
 551 43 551 43 557.5 37 c 128,-1,52
 564 31 564 31 565 26 c 0,53,54
 565 20 565 20 561 10 c 0,55,56
 559 6 559 6 558 0 c 1,57,-1
 436 0 l 2,58,59
 425 0 425 0 424 8.5 c 128,-1,60
 423 17 423 17 426 27 c 128,-1,61
 429 37 429 37 433 45 c 128,-1,62
 437 53 437 53 437 52 c 1,63,64
 437 53 437 53 439 75.5 c 128,-1,65
 441 98 441 98 442 130.5 c 128,-1,66
 443 163 443 163 441.5 201.5 c 128,-1,67
 440 240 440 240 433 272.5 c 128,-1,68
 426 305 426 305 412 327.5 c 128,-1,69
 398 350 398 350 374 351 c 0,70,71
 351 352 351 352 324.5 346 c 128,-1,72
 298 340 298 340 272.5 330 c 128,-1,73
 247 320 247 320 224 308.5 c 128,-1,74
 201 297 201 297 185 289 c 1,75,76
 185 244 185 244 185 204 c 128,-1,77
 185 164 185 164 185.5 133.5 c 128,-1,78
 186 103 186 103 186.5 84.5 c 128,-1,79
 187 66 187 66 189 63 c 0,80,81
 193 55 193 55 201.5 53.5 c 128,-1,82
 210 52 210 52 219 53 c 128,-1,83
 228 54 228 54 234.5 54.5 c 128,-1,84
 241 55 241 55 241 51 c 0,85,86
 242 39 242 39 246 29.5 c 128,-1,87
 250 20 250 20 253.5 13.5 c 128,-1,88
 257 7 257 7 257.5 3.5 c 128,-1,89
 258 0 258 0 252 0 c 2,90,-1
 72 0 l 2,91,92
 58 0 58 0 56.5 16.5 c 128,-1,93
 55 33 55 33 51 63 c 0,94,95
 48 78 48 78 58 78 c 128,-1,96
 68 78 68 78 80.5 72.5 c 128,-1,97
 93 67 93 67 104.5 62 c 128,-1,98
 116 57 116 57 116 63 c 0,0,1
EndSplineSet
Validated: 33
EndChar

StartChar: i
Encoding: 105 105 39
Width: 294
Flags: W
LayerCount: 2
Fore
SplineSet
104 65 m 0,0,1
 104 119 104 119 103.5 150 c 128,-1,2
 103 181 103 181 103 197 c 2,3,-1
 103 221 l 2,4,5
 102 265 102 265 102 284.5 c 128,-1,6
 102 304 102 304 102 310 c 128,-1,7
 102 316 102 316 102.5 314.5 c 128,-1,8
 103 313 103 313 103 316 c 128,-1,9
 103 319 103 319 103 332.5 c 128,-1,10
 103 346 103 346 102 381 c 0,11,12
 102 388 102 388 97.5 383.5 c 128,-1,13
 93 379 93 379 87 375.5 c 128,-1,14
 81 372 81 372 74.5 375.5 c 128,-1,15
 68 379 68 379 64 402 c 0,16,17
 61 424 61 424 75 438 c 128,-1,18
 89 452 89 452 106 455 c 0,19,20
 117 457 117 457 133 447 c 128,-1,21
 149 437 149 437 164 422 c 128,-1,22
 179 407 179 407 189.5 391.5 c 128,-1,23
 200 376 200 376 200 367 c 0,24,25
 200 356 200 356 196 357.5 c 128,-1,26
 192 359 192 359 186.5 359 c 128,-1,27
 181 359 181 359 177 352 c 128,-1,28
 173 345 173 345 173 317 c 0,29,30
 174 242 174 242 174 195 c 128,-1,31
 174 148 174 148 174.5 120.5 c 128,-1,32
 175 93 175 93 176 81 c 128,-1,33
 177 69 177 69 180 65 c 0,34,35
 183 57 183 57 191.5 55.5 c 128,-1,36
 200 54 200 54 208.5 55 c 128,-1,37
 217 56 217 56 223.5 56.5 c 128,-1,38
 230 57 230 57 230 53 c 0,39,40
 231 41 231 41 234.5 31 c 128,-1,41
 238 21 238 21 241 14.5 c 128,-1,42
 244 8 244 8 244 5 c 128,-1,43
 244 2 244 2 238 2 c 0,44,45
 227 2 227 2 207.5 2 c 128,-1,46
 188 2 188 2 165 2 c 128,-1,47
 142 2 142 2 117.5 2 c 128,-1,48
 93 2 93 2 72 2 c 0,49,50
 65 2 65 2 62.5 4 c 128,-1,51
 60 6 60 6 58.5 11.5 c 128,-1,52
 57 17 57 17 55.5 26.5 c 128,-1,53
 54 36 54 36 51 51 c 256,54,55
 48 66 48 66 56 68 c 128,-1,56
 64 70 64 70 74.5 67.5 c 128,-1,57
 85 65 85 65 94.5 62 c 128,-1,58
 104 59 104 59 104 65 c 0,0,1
122 632 m 1,59,-1
 192 579 l 1,60,-1
 124 531 l 1,61,-1
 64 579 l 1,62,-1
 122 632 l 1,59,-1
EndSplineSet
Validated: 33
EndChar

StartChar: j
Encoding: 106 106 40
Width: 316
Flags: W
LayerCount: 2
Fore
SplineSet
147 83 m 2,0,-1
 147 86 l 2,1,2
 145 99 145 99 147 101 c 0,3,4
 147 146 147 146 146.5 173.5 c 128,-1,5
 146 201 146 201 146 215 c 2,6,-1
 146 238 l 2,7,8
 145 282 145 282 145 299 c 128,-1,9
 145 316 145 316 145 318.5 c 128,-1,10
 145 321 145 321 145 316 c 128,-1,11
 145 311 145 311 145 310.5 c 128,-1,12
 145 310 145 310 144.5 321 c 128,-1,13
 144 332 144 332 144 368 c 0,14,15
 143 375 143 375 138.5 370.5 c 128,-1,16
 134 366 134 366 128 362.5 c 128,-1,17
 122 359 122 359 115.5 362.5 c 128,-1,18
 109 366 109 366 105 389 c 0,19,20
 102 411 102 411 116.5 425 c 128,-1,21
 131 439 131 439 147 442 c 0,22,23
 161 444 161 444 173.5 436.5 c 128,-1,24
 186 429 186 429 196 418 c 128,-1,25
 206 407 206 407 214.5 396.5 c 128,-1,26
 223 386 223 386 230 383 c 0,27,28
 238 383 238 383 243 382 c 0,29,30
 254 380 254 380 248 373 c 0,31,32
 238 362 238 362 232 360 c 128,-1,33
 226 358 226 358 222.5 355 c 128,-1,34
 219 352 219 352 218 342 c 128,-1,35
 217 332 217 332 217 304 c 0,36,37
 218 229 218 229 218.5 165 c 128,-1,38
 219 101 219 101 219 53 c 128,-1,39
 219 5 219 5 219.5 -24.5 c 128,-1,40
 220 -54 220 -54 220 -59 c 256,41,42
 220 -64 220 -64 220.5 -67.5 c 128,-1,43
 221 -71 221 -71 221 -75 c 0,44,45
 222 -92 222 -92 223 -115 c 128,-1,46
 224 -138 224 -138 220.5 -162.5 c 128,-1,47
 217 -187 217 -187 208 -211.5 c 128,-1,48
 199 -236 199 -236 180.5 -256 c 128,-1,49
 162 -276 162 -276 133 -289.5 c 128,-1,50
 104 -303 104 -303 61 -306 c 0,51,52
 -4 -307 -4 -307 -35 -297 c 128,-1,53
 -66 -287 -66 -287 -76.5 -272 c 128,-1,54
 -87 -257 -87 -257 -84.5 -240.5 c 128,-1,55
 -82 -224 -82 -224 -80 -212 c 0,56,57
 -76 -203 -76 -203 -62.5 -199 c 128,-1,58
 -49 -195 -49 -195 -34 -194 c 0,59,60
 -16 -193 -16 -193 4 -195 c 1,61,62
 -11 -216 -11 -216 -9 -231 c 0,63,64
 -7 -244 -7 -244 10 -252.5 c 128,-1,65
 27 -261 27 -261 76 -256 c 1,66,67
 100 -249 100 -249 115 -229 c 128,-1,68
 130 -209 130 -209 138.5 -181 c 128,-1,69
 147 -153 147 -153 150.5 -120 c 128,-1,70
 154 -87 154 -87 154 -53.5 c 128,-1,71
 154 -20 154 -20 152 11.5 c 128,-1,72
 150 43 150 43 149 67 c 0,73,74
 149 68 149 68 148.5 69 c 128,-1,75
 148 70 148 70 148 71 c 0,76,77
 148 75 148 75 147.5 78 c 128,-1,78
 147 81 147 81 147 83 c 2,0,-1
161 625 m 1,79,-1
 231 572 l 1,80,-1
 163 524 l 1,81,-1
 103 572 l 1,82,-1
 161 625 l 1,79,-1
EndSplineSet
Validated: 37
EndChar

StartChar: k
Encoding: 107 107 41
Width: 570
Flags: W
LayerCount: 2
Fore
SplineSet
116 68 m 0,0,1
 116 122 116 122 116 161 c 128,-1,2
 116 200 116 200 115.5 231 c 128,-1,3
 115 262 115 262 114 289 c 128,-1,4
 113 316 113 316 112 347 c 0,5,6
 112 382 112 382 112 418.5 c 128,-1,7
 112 455 112 455 112.5 495.5 c 128,-1,8
 113 536 113 536 112.5 582 c 128,-1,9
 112 628 112 628 111 681 c 0,10,11
 111 688 111 688 106.5 683.5 c 128,-1,12
 102 679 102 679 96.5 675.5 c 128,-1,13
 91 672 91 672 85 675.5 c 128,-1,14
 79 679 79 679 75 702 c 0,15,16
 73 713 73 713 76 722 c 128,-1,17
 79 731 79 731 85 738 c 128,-1,18
 91 745 91 745 99.5 749 c 128,-1,19
 108 753 108 753 116 755 c 0,20,21
 129 757 129 757 141.5 749.5 c 128,-1,22
 154 742 154 742 164.5 731 c 128,-1,23
 175 720 175 720 183 709.5 c 128,-1,24
 191 699 191 699 197 696 c 0,25,26
 213 698 213 698 224 699 c 0,27,28
 233 700 233 700 238.5 699 c 128,-1,29
 244 698 244 698 239 694 c 0,30,31
 218 679 218 679 207 655.5 c 128,-1,32
 196 632 196 632 191 605 c 128,-1,33
 186 578 186 578 185 549 c 128,-1,34
 184 520 184 520 184 492 c 0,35,36
 185 431 185 431 185 370.5 c 128,-1,37
 185 310 185 310 185 256 c 1,38,39
 200 271 200 271 220.5 291.5 c 128,-1,40
 241 312 241 312 263 334 c 128,-1,41
 285 356 285 356 306 377 c 128,-1,42
 327 398 327 398 343.5 414 c 128,-1,43
 360 430 360 430 370 440 c 128,-1,44
 380 450 380 450 380 450 c 2,45,46
 380 449 380 449 400 449 c 128,-1,47
 420 449 420 449 445 449 c 0,48,49
 474 449 474 449 511 450 c 1,50,51
 472 418 472 418 432 385 c 0,52,53
 397 357 397 357 356.5 323.5 c 128,-1,54
 316 290 316 290 278 260 c 1,55,56
 279 259 279 259 292 254 c 128,-1,57
 305 249 305 249 323 241 c 128,-1,58
 341 233 341 233 362.5 223 c 128,-1,59
 384 213 384 213 402.5 203.5 c 128,-1,60
 421 194 421 194 435 186 c 128,-1,61
 449 178 449 178 452 173 c 0,62,63
 466 153 466 153 470 118.5 c 128,-1,64
 474 84 474 84 475.5 47 c 128,-1,65
 477 10 477 10 480.5 -24 c 128,-1,66
 484 -58 484 -58 496 -77 c 0,67,68
 509 -97 509 -97 525.5 -112 c 128,-1,69
 542 -127 542 -127 556 -137 c 128,-1,70
 570 -147 570 -147 579.5 -151.5 c 128,-1,71
 589 -156 589 -156 589 -156 c 2,72,73
 590 -156 590 -156 579 -158 c 128,-1,74
 568 -160 568 -160 551.5 -161 c 128,-1,75
 535 -162 535 -162 516.5 -161.5 c 128,-1,76
 498 -161 498 -161 483 -156 c 0,77,78
 464 -150 464 -150 451.5 -144 c 128,-1,79
 439 -138 439 -138 430 -129.5 c 128,-1,80
 421 -121 421 -121 414.5 -107.5 c 128,-1,81
 408 -94 408 -94 401 -73 c 0,82,83
 398 -69 398 -69 396 -53.5 c 128,-1,84
 394 -38 394 -38 391.5 -16.5 c 128,-1,85
 389 5 389 5 386.5 30 c 128,-1,86
 384 55 384 55 381.5 77 c 128,-1,87
 379 99 379 99 376.5 115.5 c 128,-1,88
 374 132 374 132 372 137 c 0,89,90
 369 143 369 143 351.5 154 c 128,-1,91
 334 165 334 165 310.5 176.5 c 128,-1,92
 287 188 287 188 262.5 198.5 c 128,-1,93
 238 209 238 209 222 215 c 1,94,-1
 185 186 l 1,95,96
 186 136 186 136 186.5 104 c 128,-1,97
 187 72 187 72 189 68 c 0,98,99
 193 60 193 60 201.5 58.5 c 128,-1,100
 210 57 210 57 219 58 c 128,-1,101
 228 59 228 59 234.5 59.5 c 128,-1,102
 241 60 241 60 241 56 c 0,103,104
 242 44 242 44 245.5 34 c 128,-1,105
 249 24 249 24 252 17 c 128,-1,106
 255 10 255 10 255 6 c 128,-1,107
 255 2 255 2 249 2 c 0,108,109
 238 2 238 2 216 2 c 128,-1,110
 194 2 194 2 168 2 c 128,-1,111
 142 2 142 2 115 2 c 128,-1,112
 88 2 88 2 67 2 c 0,113,114
 61 2 61 2 58.5 6.5 c 128,-1,115
 56 11 56 11 55 20 c 128,-1,116
 54 29 54 29 53.5 41 c 128,-1,117
 53 53 53 53 51 68 c 0,118,119
 48 83 48 83 58 83 c 128,-1,120
 68 83 68 83 80.5 77.5 c 128,-1,121
 93 72 93 72 104.5 67 c 128,-1,122
 116 62 116 62 116 68 c 0,0,1
EndSplineSet
Validated: 33
EndChar

StartChar: l
Encoding: 108 108 42
Width: 294
Flags: W
LayerCount: 2
Fore
SplineSet
105 61 m 0,0,1
 105 115 105 115 104.5 154 c 128,-1,2
 104 193 104 193 103.5 224 c 128,-1,3
 103 255 103 255 102.5 282 c 128,-1,4
 102 309 102 309 102 340 c 0,5,6
 102 375 102 375 102 411.5 c 128,-1,7
 102 448 102 448 102 488.5 c 128,-1,8
 102 529 102 529 102 575 c 128,-1,9
 102 621 102 621 101 674 c 0,10,11
 101 681 101 681 96.5 676.5 c 128,-1,12
 92 672 92 672 86 668.5 c 128,-1,13
 80 665 80 665 73.5 668.5 c 128,-1,14
 67 672 67 672 63 695 c 0,15,16
 60 717 60 717 74 731 c 128,-1,17
 88 745 88 745 105 748 c 0,18,19
 119 750 119 750 131.5 742.5 c 128,-1,20
 144 735 144 735 154 724 c 128,-1,21
 164 713 164 713 172 702.5 c 128,-1,22
 180 692 180 692 186 689 c 0,23,24
 202 691 202 691 213 692 c 0,25,26
 222 693 222 693 228 692 c 128,-1,27
 234 691 234 691 229 687 c 0,28,29
 208 672 208 672 196 648.5 c 128,-1,30
 184 625 184 625 179 598 c 128,-1,31
 174 571 174 571 173 542 c 128,-1,32
 172 513 172 513 172 485 c 0,33,34
 173 410 173 410 173.5 336.5 c 128,-1,35
 174 263 174 263 174.5 203 c 128,-1,36
 175 143 175 143 176 104 c 128,-1,37
 177 65 177 65 180 61 c 0,38,39
 184 53 184 53 192 51.5 c 128,-1,40
 200 50 200 50 208.5 51 c 128,-1,41
 217 52 217 52 223.5 52.5 c 128,-1,42
 230 53 230 53 230 49 c 0,43,44
 231 37 231 37 234.5 29.5 c 128,-1,45
 238 22 238 22 241 17.5 c 128,-1,46
 244 13 244 13 244 11 c 128,-1,47
 244 9 244 9 238 6 c 0,48,49
 227 1 227 1 205.5 0 c 128,-1,50
 184 -1 184 -1 158.5 -0.5 c 128,-1,51
 133 0 133 0 106.5 0.5 c 128,-1,52
 80 1 80 1 59 1 c 0,53,54
 51 1 51 1 50.5 3 c 128,-1,55
 50 5 50 5 52 11 c 128,-1,56
 54 17 54 17 55.5 26.5 c 128,-1,57
 57 36 57 36 54 51 c 0,58,59
 52 66 52 66 59.5 67.5 c 128,-1,60
 67 69 67 69 77 65.5 c 128,-1,61
 87 62 87 62 96 58.5 c 128,-1,62
 105 55 105 55 105 61 c 0,0,1
EndSplineSet
Validated: 33
EndChar

StartChar: m
Encoding: 109 109 43
Width: 789
Flags: W
LayerCount: 2
Fore
SplineSet
93 63 m 0,0,1
 93 117 93 117 92.5 148 c 128,-1,2
 92 179 92 179 92 195 c 2,3,-1
 92 219 l 2,4,5
 91 263 91 263 91 279.5 c 128,-1,6
 91 296 91 296 91 297 c 128,-1,7
 91 298 91 298 91 291.5 c 128,-1,8
 91 285 91 285 91 283.5 c 128,-1,9
 91 282 91 282 91 292 c 128,-1,10
 91 302 91 302 90 338 c 0,11,12
 89 345 89 345 84.5 340.5 c 128,-1,13
 80 336 80 336 74 332.5 c 128,-1,14
 68 329 68 329 62 332.5 c 128,-1,15
 56 336 56 336 52 359 c 0,16,17
 47 381 47 381 61.5 395 c 128,-1,18
 76 409 76 409 93 412 c 0,19,20
 105 414 105 414 116 408 c 128,-1,21
 127 402 127 402 136 393 c 128,-1,22
 145 384 145 384 153 374 c 128,-1,23
 161 364 161 364 167 358 c 1,24,25
 182 367 182 367 199.5 375.5 c 128,-1,26
 217 384 217 384 236.5 389 c 128,-1,27
 256 394 256 394 276.5 395.5 c 128,-1,28
 297 397 297 397 317 391 c 0,29,30
 340 384 340 384 358 372 c 128,-1,31
 376 360 376 360 389 344 c 1,32,33
 400 351 400 351 419.5 362.5 c 128,-1,34
 439 374 439 374 463.5 383 c 128,-1,35
 488 392 488 392 516.5 395.5 c 128,-1,36
 545 399 545 399 573 391 c 0,37,38
 611 380 611 380 635 356 c 128,-1,39
 659 332 659 332 672 300.5 c 128,-1,40
 685 269 685 269 689 233.5 c 128,-1,41
 693 198 693 198 692.5 166.5 c 128,-1,42
 692 135 692 135 688.5 110 c 128,-1,43
 685 85 685 85 683 73 c 1,44,45
 690 69 690 69 699.5 64 c 128,-1,46
 709 59 709 59 717 53 c 128,-1,47
 725 47 725 47 731.5 41.5 c 128,-1,48
 738 36 738 36 739 31 c 0,49,50
 739 27 739 27 736.5 22 c 128,-1,51
 734 17 734 17 732 12 c 0,52,53
 729 6 729 6 726 0 c 1,54,-1
 603 0 l 2,55,56
 593 0 593 0 592.5 9 c 128,-1,57
 592 18 592 18 596 29.5 c 128,-1,58
 600 41 600 41 605 51 c 128,-1,59
 610 61 610 61 612 64 c 0,60,61
 613 75 613 75 616 99.5 c 128,-1,62
 619 124 619 124 620.5 155 c 128,-1,63
 622 186 622 186 621 219 c 128,-1,64
 620 252 620 252 613.5 279 c 128,-1,65
 607 306 607 306 594 324.5 c 128,-1,66
 581 343 581 343 559 344 c 0,67,68
 539 345 539 345 519 341 c 128,-1,69
 499 337 499 337 480.5 329.5 c 128,-1,70
 462 322 462 322 446 312.5 c 128,-1,71
 430 303 430 303 417 294 c 1,72,73
 429 262 429 262 432.5 227.5 c 128,-1,74
 436 193 436 193 435 162 c 128,-1,75
 434 131 434 131 431 106.5 c 128,-1,76
 428 82 428 82 426 70 c 1,77,78
 440 62 440 62 459 50 c 128,-1,79
 478 38 478 38 480 28 c 0,80,81
 480 24 480 24 477.5 20 c 128,-1,82
 475 16 475 16 473 11 c 0,83,84
 470 6 470 6 467 0 c 1,85,-1
 345 0 l 2,86,87
 336 0 336 0 335 7 c 128,-1,88
 334 14 334 14 337 23.5 c 128,-1,89
 340 33 340 33 345 42.5 c 128,-1,90
 350 52 350 52 353 57 c 0,91,92
 354 65 354 65 357 89 c 128,-1,93
 360 113 360 113 361.5 144.5 c 128,-1,94
 363 176 363 176 362.5 210 c 128,-1,95
 362 244 362 244 355.5 272.5 c 128,-1,96
 349 301 349 301 336 320.5 c 128,-1,97
 323 340 323 340 300 341 c 0,98,99
 280 342 280 342 260.5 337.5 c 128,-1,100
 241 333 241 333 223 324.5 c 128,-1,101
 205 316 205 316 189 305.5 c 128,-1,102
 173 295 173 295 161 286 c 1,103,-1
 161 274 l 2,104,105
 162 199 162 199 162 158.5 c 128,-1,106
 162 118 162 118 162.5 98.5 c 128,-1,107
 163 79 163 79 163.5 73 c 128,-1,108
 164 67 164 67 166 63 c 0,109,110
 170 55 170 55 178.5 53.5 c 128,-1,111
 187 52 187 52 196 53 c 128,-1,112
 205 54 205 54 211.5 54.5 c 128,-1,113
 218 55 218 55 218 51 c 0,114,115
 219 39 219 39 222 29.5 c 128,-1,116
 225 20 225 20 226.5 13.5 c 128,-1,117
 228 7 228 7 227.5 3.5 c 128,-1,118
 227 0 227 0 220 0 c 2,119,-1
 61 0 l 2,120,121
 54 0 54 0 53 2 c 128,-1,122
 52 4 52 4 52.5 10 c 128,-1,123
 53 16 53 16 54 25.5 c 128,-1,124
 55 35 55 35 52 50 c 256,125,126
 49 65 49 65 55 67 c 128,-1,127
 61 69 61 69 69.5 66 c 128,-1,128
 78 63 78 63 85.5 60 c 128,-1,129
 93 57 93 57 93 63 c 0,0,1
EndSplineSet
Validated: 37
EndChar

StartChar: n
Encoding: 110 110 44
Width: 543
Flags: W
LayerCount: 2
Fore
SplineSet
99 63 m 0,0,1
 99 117 99 117 98.5 148 c 128,-1,2
 98 179 98 179 98 195 c 2,3,-1
 98 219 l 2,4,5
 98 235 98 235 97.5 240.5 c 128,-1,6
 97 246 97 246 97 247.5 c 128,-1,7
 97 249 97 249 96.5 250 c 128,-1,8
 96 251 96 251 95.5 258.5 c 128,-1,9
 95 266 95 266 94.5 284.5 c 128,-1,10
 94 303 94 303 93 338 c 0,11,12
 93 345 93 345 88.5 340.5 c 128,-1,13
 84 336 84 336 78.5 332.5 c 128,-1,14
 73 329 73 329 67 332.5 c 128,-1,15
 61 336 61 336 57 359 c 0,16,17
 52 381 52 381 66.5 395 c 128,-1,18
 81 409 81 409 98 412 c 0,19,20
 111 414 111 414 123.5 406.5 c 128,-1,21
 136 399 136 399 146.5 388 c 128,-1,22
 157 377 157 377 165 366.5 c 128,-1,23
 173 356 173 356 179 353 c 1,24,25
 197 362 197 362 219.5 370.5 c 128,-1,26
 242 379 242 379 265 385 c 128,-1,27
 288 391 288 391 312 392.5 c 128,-1,28
 336 394 336 394 357 388 c 0,29,30
 395 377 395 377 417 353 c 128,-1,31
 439 329 439 329 449 297.5 c 128,-1,32
 459 266 459 266 459.5 231 c 128,-1,33
 460 196 460 196 456.5 164 c 128,-1,34
 453 132 453 132 446.5 107 c 128,-1,35
 440 82 440 82 437 70 c 1,36,37
 444 66 444 66 453.5 61 c 128,-1,38
 463 56 463 56 471.5 50 c 128,-1,39
 480 44 480 44 486 38.5 c 128,-1,40
 492 33 492 33 493 28 c 0,41,42
 493 24 493 24 491.5 20 c 128,-1,43
 490 16 490 16 488 11 c 2,44,-1
 483 1 l 1,45,46
 456 0 456 0 431 0 c 2,47,-1
 359 0 l 2,48,49
 349 0 349 0 348 8 c 128,-1,50
 347 16 347 16 350.5 26.5 c 128,-1,51
 354 37 354 37 359 46.5 c 128,-1,52
 364 56 364 56 366 60 c 0,53,54
 368 71 368 71 372.5 95.5 c 128,-1,55
 377 120 377 120 380 151 c 128,-1,56
 383 182 383 182 384 215 c 128,-1,57
 385 248 385 248 380 275.5 c 128,-1,58
 375 303 375 303 363 321.5 c 128,-1,59
 351 340 351 340 329 341 c 0,60,61
 308 342 308 342 285.5 336.5 c 128,-1,62
 263 331 263 331 241.5 322 c 128,-1,63
 220 313 220 313 200.5 301.5 c 128,-1,64
 181 290 181 290 166 281 c 1,65,-1
 166 274 l 2,66,67
 167 199 167 199 167 158.5 c 128,-1,68
 167 118 167 118 167.5 98.5 c 128,-1,69
 168 79 168 79 169 73 c 128,-1,70
 170 67 170 67 172 63 c 0,71,72
 176 55 176 55 184.5 53.5 c 128,-1,73
 193 52 193 52 202 53 c 128,-1,74
 211 54 211 54 217.5 54.5 c 128,-1,75
 224 55 224 55 224 51 c 0,76,77
 225 39 225 39 228 29.5 c 128,-1,78
 231 20 231 20 233.5 14 c 128,-1,79
 236 8 236 8 236 4.5 c 128,-1,80
 236 1 236 1 230 1 c 0,81,82
 219 1 219 1 200 0.5 c 128,-1,83
 181 0 181 0 158 0 c 128,-1,84
 135 0 135 0 111 0 c 128,-1,85
 87 0 87 0 66 0 c 0,86,87
 59 0 59 0 57 0 c 128,-1,88
 55 0 55 0 55 3.5 c 128,-1,89
 55 7 55 7 54.5 14.5 c 128,-1,90
 54 22 54 22 51 37 c 0,91,92
 49 52 49 52 56.5 56 c 128,-1,93
 64 60 64 60 73.5 59.5 c 128,-1,94
 83 59 83 59 91 58 c 128,-1,95
 99 57 99 57 99 63 c 0,0,1
EndSplineSet
Validated: 33
EndChar

StartChar: o
Encoding: 111 111 45
Width: 514
Flags: W
LayerCount: 2
Fore
SplineSet
268 421 m 0,0,1
 334 421 334 421 376 398 c 128,-1,2
 418 375 418 375 439 339 c 128,-1,3
 460 303 460 303 462.5 258 c 128,-1,4
 465 213 465 213 454 169 c 0,5,6
 445 134 445 134 427.5 103 c 128,-1,7
 410 72 410 72 386 48.5 c 128,-1,8
 362 25 362 25 331 12 c 128,-1,9
 300 -1 300 -1 264 0 c 0,10,11
 223 1 223 1 185 16 c 128,-1,12
 147 31 147 31 118 56.5 c 128,-1,13
 89 82 89 82 71 116.5 c 128,-1,14
 53 151 53 151 52 190 c 0,15,16
 49 236 49 236 55.5 278 c 128,-1,17
 62 320 62 320 85 351.5 c 128,-1,18
 108 383 108 383 152 402 c 128,-1,19
 196 421 196 421 268 421 c 0,0,1
260 365 m 0,20,21
 228 367 228 367 203 355 c 128,-1,22
 178 343 178 343 160.5 322.5 c 128,-1,23
 143 302 143 302 134.5 275 c 128,-1,24
 126 248 126 248 126 219 c 0,25,26
 127 192 127 192 137.5 164.5 c 128,-1,27
 148 137 148 137 166 115 c 128,-1,28
 184 93 184 93 208.5 79.5 c 128,-1,29
 233 66 233 66 262 66 c 0,30,31
 290 66 290 66 312 79 c 128,-1,32
 334 92 334 92 349.5 112.5 c 128,-1,33
 365 133 365 133 373.5 159 c 128,-1,34
 382 185 382 185 384 212 c 0,35,36
 386 240 386 240 381 266 c 128,-1,37
 376 292 376 292 362 313 c 128,-1,38
 348 334 348 334 323 348 c 128,-1,39
 298 362 298 362 260 365 c 0,20,21
EndSplineSet
Validated: 33
EndChar

StartChar: p
Encoding: 112 112 46
Width: 612
Flags: W
LayerCount: 2
Fore
SplineSet
116 -235 m 0,0,1
 116 -181 116 -181 116 -142 c 128,-1,2
 116 -103 116 -103 115.5 -72 c 128,-1,3
 115 -41 115 -41 114.5 -14 c 128,-1,4
 114 13 114 13 113 44 c 0,5,6
 113 79 113 79 113 110.5 c 128,-1,7
 113 142 113 142 113 176.5 c 128,-1,8
 113 211 113 211 113 251.5 c 128,-1,9
 113 292 113 292 112 345 c 0,10,11
 112 352 112 352 107.5 347.5 c 128,-1,12
 103 343 103 343 97 339.5 c 128,-1,13
 91 336 91 336 85 339.5 c 128,-1,14
 79 343 79 343 75 366 c 0,15,16
 72 388 72 388 86 402 c 128,-1,17
 100 416 100 416 116 419 c 0,18,19
 128 421 128 421 139 417.5 c 128,-1,20
 150 414 150 414 159.5 408.5 c 128,-1,21
 169 403 169 403 176.5 396.5 c 128,-1,22
 184 390 184 390 190 386 c 1,23,24
 217 391 217 391 256 395.5 c 128,-1,25
 295 400 295 400 337 397.5 c 128,-1,26
 379 395 379 395 420 383.5 c 128,-1,27
 461 372 461 372 493 346 c 128,-1,28
 525 320 525 320 544 276.5 c 128,-1,29
 563 233 563 233 561 167 c 0,30,31
 559 123 559 123 539 93 c 128,-1,32
 519 63 519 63 487 44 c 128,-1,33
 455 25 455 25 414.5 15.5 c 128,-1,34
 374 6 374 6 333 2 c 128,-1,35
 292 -2 292 -2 253.5 -1 c 128,-1,36
 215 0 215 0 187 3 c 1,37,38
 187 -44 187 -44 187.5 -86.5 c 128,-1,39
 188 -129 188 -129 189 -162 c 128,-1,40
 190 -195 190 -195 190.5 -214.5 c 128,-1,41
 191 -234 191 -234 192 -235 c 0,42,43
 196 -243 196 -243 204 -244.5 c 128,-1,44
 212 -246 212 -246 220.5 -245 c 128,-1,45
 229 -244 229 -244 235 -243.5 c 128,-1,46
 241 -243 241 -243 241 -247 c 0,47,48
 242 -259 242 -259 245.5 -266.5 c 128,-1,49
 249 -274 249 -274 252 -278.5 c 128,-1,50
 255 -283 255 -283 255 -285 c 128,-1,51
 255 -287 255 -287 249 -290 c 0,52,53
 238 -295 238 -295 217 -296 c 128,-1,54
 196 -297 196 -297 170.5 -296.5 c 128,-1,55
 145 -296 145 -296 118.5 -295.5 c 128,-1,56
 92 -295 92 -295 71 -295 c 0,57,58
 63 -295 63 -295 60.5 -291.5 c 128,-1,59
 58 -288 58 -288 57 -280.5 c 128,-1,60
 56 -273 56 -273 55 -261.5 c 128,-1,61
 54 -250 54 -250 51 -235 c 256,62,63
 48 -220 48 -220 58 -220 c 128,-1,64
 68 -220 68 -220 81 -225.5 c 128,-1,65
 94 -231 94 -231 105 -236 c 128,-1,66
 116 -241 116 -241 116 -235 c 0,0,1
185 175 m 0,67,68
 185 149 185 149 185 121.5 c 128,-1,69
 185 94 185 94 186 66 c 0,70,71
 187 66 187 66 210 61 c 128,-1,72
 233 56 233 56 266 52 c 128,-1,73
 299 48 299 48 337.5 49.5 c 128,-1,74
 376 51 376 51 408.5 64.5 c 128,-1,75
 441 78 441 78 462.5 108 c 128,-1,76
 484 138 484 138 484 191 c 0,77,78
 484 238 484 238 462.5 266.5 c 128,-1,79
 441 295 441 295 408.5 310 c 128,-1,80
 376 325 376 325 338 330 c 128,-1,81
 300 335 300 335 267 335 c 128,-1,82
 234 335 234 335 211 331.5 c 128,-1,83
 188 328 188 328 185 328 c 2,84,-1
 185 324 l 2,85,86
 185 317 185 317 185.5 301.5 c 128,-1,87
 186 286 186 286 186 266 c 128,-1,88
 186 246 186 246 185.5 222 c 128,-1,89
 185 198 185 198 185 175 c 0,67,68
EndSplineSet
Validated: 33
EndChar

StartChar: q
Encoding: 113 113 47
Width: 635
Flags: W
LayerCount: 2
Fore
SplineSet
585 -159 m 1,0,-1
 494 -161 l 1,1,2
 495 -187 495 -187 496 -203 c 128,-1,3
 497 -219 497 -219 499 -222 c 0,4,5
 503 -230 503 -230 511 -231.5 c 128,-1,6
 519 -233 519 -233 527 -232 c 128,-1,7
 535 -231 535 -231 541.5 -230.5 c 128,-1,8
 548 -230 548 -230 548 -234 c 0,9,10
 549 -246 549 -246 551 -253.5 c 128,-1,11
 553 -261 553 -261 553 -265 c 128,-1,12
 553 -269 553 -269 551 -271 c 128,-1,13
 549 -273 549 -273 543 -276 c 0,14,15
 532 -281 532 -281 513 -282 c 128,-1,16
 494 -283 494 -283 470.5 -283 c 128,-1,17
 447 -283 447 -283 422.5 -282.5 c 128,-1,18
 398 -282 398 -282 377 -282 c 0,19,20
 370 -282 370 -282 369 -278.5 c 128,-1,21
 368 -275 368 -275 370 -270 c 128,-1,22
 372 -265 372 -265 374.5 -260.5 c 128,-1,23
 377 -256 377 -256 377 -254 c 0,24,25
 377 -239 377 -239 384.5 -234 c 128,-1,26
 392 -229 392 -229 400.5 -228.5 c 128,-1,27
 409 -228 409 -228 416.5 -228 c 128,-1,28
 424 -228 424 -228 424 -222 c 2,29,-1
 424 -163 l 1,30,-1
 308 -166 l 1,31,-1
 313 -111 l 1,32,-1
 424 -107 l 1,33,34
 424 -75 424 -75 423.5 -49 c 128,-1,35
 423 -23 423 -23 423 2 c 1,36,37
 394 -1 394 -1 356 -2 c 128,-1,38
 318 -3 318 -3 277.5 0.5 c 128,-1,39
 237 4 237 4 197 13.5 c 128,-1,40
 157 23 157 23 125.5 41.5 c 128,-1,41
 94 60 94 60 73.5 90 c 128,-1,42
 53 120 53 120 51 163 c 0,43,44
 48 231 48 231 73.5 275 c 128,-1,45
 99 319 99 319 140.5 344.5 c 128,-1,46
 182 370 182 370 233.5 381 c 128,-1,47
 285 392 285 392 332 394.5 c 128,-1,48
 379 397 379 397 416 394 c 128,-1,49
 453 391 453 391 467 389 c 1,50,51
 482 392 482 392 496.5 395 c 128,-1,52
 511 398 511 398 522.5 400 c 128,-1,53
 534 402 534 402 541 403 c 128,-1,54
 548 404 548 404 547 404 c 0,55,56
 526 389 526 389 514.5 365.5 c 128,-1,57
 503 342 503 342 498 315 c 128,-1,58
 493 288 493 288 492 259 c 128,-1,59
 491 230 491 230 491 202 c 2,60,-1
 493 -105 l 1,61,-1
 580 -102 l 1,62,-1
 585 -159 l 1,0,-1
109 186 m 0,63,64
 109 136 109 136 132 107 c 128,-1,65
 155 78 155 78 189.5 64 c 128,-1,66
 224 50 224 50 264 47.5 c 128,-1,67
 304 45 304 45 338.5 47.5 c 128,-1,68
 373 50 373 50 396.5 54.5 c 128,-1,69
 420 59 420 59 422 58 c 1,70,71
 420 103 420 103 421.5 145 c 128,-1,72
 423 187 423 187 424 238 c 2,73,-1
 424 346 l 2,74,75
 423 346 423 346 399 345.5 c 128,-1,76
 375 345 375 345 339.5 341.5 c 128,-1,77
 304 338 304 338 263.5 328.5 c 128,-1,78
 223 319 223 319 188 301.5 c 128,-1,79
 153 284 153 284 130.5 256 c 128,-1,80
 108 228 108 228 109 186 c 0,63,64
EndSplineSet
Validated: 37
EndChar

StartChar: r
Encoding: 114 114 48
Width: 383
Flags: W
LayerCount: 2
Fore
SplineSet
116 62 m 0,0,1
 116 116 116 116 115.5 147 c 128,-1,2
 115 178 115 178 114 194 c 0,3,4
 113 212 113 212 113 218 c 0,5,6
 112 265 112 265 112 280.5 c 128,-1,7
 112 296 112 296 113 297 c 0,8,9
 113 304 113 304 112.5 314 c 128,-1,10
 112 324 112 324 112 341 c 0,11,12
 112 348 112 348 107 342 c 128,-1,13
 102 336 102 336 95.5 331 c 128,-1,14
 89 326 89 326 82 328.5 c 128,-1,15
 75 331 75 331 71 354 c 0,16,17
 67 376 67 376 77 383.5 c 128,-1,18
 87 391 87 391 104 394 c 0,19,20
 130 398 130 398 146.5 395 c 128,-1,21
 163 392 163 392 172 381 c 1,22,23
 183 381 183 381 209 381 c 128,-1,24
 235 381 235 381 263 382 c 0,25,26
 296 383 296 383 333 384 c 1,27,28
 325 375 325 375 319 366 c 0,29,30
 314 358 314 358 309.5 349 c 128,-1,31
 305 340 305 340 303 332 c 0,32,33
 300 324 300 324 301 313.5 c 128,-1,34
 302 303 302 303 304 294 c 128,-1,35
 306 285 306 285 308 279.5 c 128,-1,36
 310 274 310 274 310 274 c 257,37,38
 310 274 310 274 300.5 270.5 c 128,-1,39
 291 267 291 267 279.5 264 c 128,-1,40
 268 261 268 261 259 261 c 128,-1,41
 250 261 250 261 252 267 c 0,42,43
 254 274 254 274 260 280.5 c 128,-1,44
 266 287 266 287 270 293.5 c 128,-1,45
 274 300 274 300 273.5 306 c 128,-1,46
 273 312 273 312 263 318 c 0,47,48
 260 320 260 320 251 322 c 128,-1,49
 242 324 242 324 230 325.5 c 128,-1,50
 218 327 218 327 206 328 c 128,-1,51
 194 329 194 329 185 329 c 1,52,53
 186 320 186 320 185.5 310 c 128,-1,54
 185 300 185 300 185 289 c 0,55,56
 186 214 186 214 186 171 c 128,-1,57
 186 128 186 128 186 105.5 c 128,-1,58
 186 83 186 83 186.5 74.5 c 128,-1,59
 187 66 187 66 189 62 c 0,60,61
 193 54 193 54 201.5 52.5 c 128,-1,62
 210 51 210 51 218.5 52 c 128,-1,63
 227 53 227 53 233.5 53.5 c 128,-1,64
 240 54 240 54 240 50 c 0,65,66
 241 38 241 38 244.5 30.5 c 128,-1,67
 248 23 248 23 251 18.5 c 128,-1,68
 254 14 254 14 254 12 c 128,-1,69
 254 10 254 10 248 7 c 0,70,71
 237 2 237 2 216 0.5 c 128,-1,72
 195 -1 195 -1 169.5 -1 c 128,-1,73
 144 -1 144 -1 117.5 -0.5 c 128,-1,74
 91 0 91 0 70 0 c 0,75,76
 56 0 56 0 56 16 c 128,-1,77
 56 32 56 32 51 62 c 0,78,79
 48 77 48 77 58 77 c 128,-1,80
 68 77 68 77 80.5 71.5 c 128,-1,81
 93 66 93 66 104.5 61 c 128,-1,82
 116 56 116 56 116 62 c 0,0,1
EndSplineSet
Validated: 33
EndChar

StartChar: t
Encoding: 116 116 49
Width: 376
Flags: W
LayerCount: 2
Fore
SplineSet
326 433 m 1,0,-1
 231 430 l 1,1,2
 231 363 231 363 231 298 c 128,-1,3
 231 233 231 233 231 181.5 c 128,-1,4
 231 130 231 130 232 97 c 128,-1,5
 233 64 233 64 235 60 c 0,6,7
 239 52 239 52 247.5 50.5 c 128,-1,8
 256 49 256 49 264.5 50 c 128,-1,9
 273 51 273 51 279.5 51.5 c 128,-1,10
 286 52 286 52 286 48 c 0,11,12
 287 36 287 36 290.5 28.5 c 128,-1,13
 294 21 294 21 297 16.5 c 128,-1,14
 300 12 300 12 300.5 10 c 128,-1,15
 301 8 301 8 295 5 c 0,16,17
 284 0 284 0 262 -1 c 128,-1,18
 240 -2 240 -2 214 -1.5 c 128,-1,19
 188 -1 188 -1 161.5 -0.5 c 128,-1,20
 135 0 135 0 114 0 c 0,21,22
 100 0 100 0 100.5 15 c 128,-1,23
 101 30 101 30 95 60 c 0,24,25
 93 75 93 75 103 75 c 128,-1,26
 113 75 113 75 126 69.5 c 128,-1,27
 139 64 139 64 150 59 c 128,-1,28
 161 54 161 54 161 60 c 2,29,-1
 161 344 l 2,30,31
 160 377 160 377 159.5 396 c 128,-1,32
 159 415 159 415 159 429 c 1,33,-1
 50 426 l 1,34,-1
 55 481 l 1,35,-1
 160 484 l 1,36,37
 160 494 160 494 160 511 c 128,-1,38
 160 528 160 528 159 566 c 1,39,40
 128 573 128 573 122.5 584 c 128,-1,41
 117 595 117 595 126.5 604.5 c 128,-1,42
 136 614 136 614 155.5 620.5 c 128,-1,43
 175 627 175 627 194.5 625.5 c 128,-1,44
 214 624 214 624 228.5 613 c 128,-1,45
 243 602 243 602 242 577 c 0,46,47
 242 564 242 564 240 561 c 128,-1,48
 238 558 238 558 236 554 c 128,-1,49
 234 550 234 550 232.5 540 c 128,-1,50
 231 530 231 530 231 502 c 2,51,-1
 231 487 l 1,52,-1
 322 490 l 1,53,-1
 326 433 l 1,0,-1
EndSplineSet
Validated: 33
EndChar

StartChar: u
Encoding: 117 117 50
Width: 572
Flags: W
LayerCount: 2
Fore
SplineSet
522 29 m 0,0,1
 522 23 522 23 517 12.5 c 128,-1,2
 512 2 512 2 512 0 c 2,3,4
 512 0 512 0 498.5 -0.5 c 128,-1,5
 485 -1 485 -1 466.5 -1.5 c 128,-1,6
 448 -2 448 -2 429.5 -2 c 128,-1,7
 411 -2 411 -2 401 -2 c 0,8,9
 389 -2 389 -2 387.5 7 c 128,-1,10
 386 16 386 16 391 27 c 1,11,12
 368 18 368 18 332.5 8.5 c 128,-1,13
 297 -1 297 -1 243 -1 c 0,14,15
 173 -1 173 -1 133 22.5 c 128,-1,16
 93 46 93 46 74 82.5 c 128,-1,17
 55 119 55 119 53.5 163 c 128,-1,18
 52 207 52 207 59 249 c 128,-1,19
 66 291 66 291 77.5 325.5 c 128,-1,20
 89 360 89 360 96 377 c 1,21,22
 91 375 91 375 84.5 372.5 c 128,-1,23
 78 370 78 370 72 370 c 128,-1,24
 66 370 66 370 61 374 c 128,-1,25
 56 378 56 378 53 389 c 0,26,27
 48 402 48 402 63.5 411 c 128,-1,28
 79 420 79 420 96 422 c 0,29,30
 127 424 127 424 148 415 c 128,-1,31
 169 406 169 406 181 403 c 2,32,-1
 212 403 l 2,33,34
 223 403 223 403 229.5 403 c 128,-1,35
 236 403 236 403 228 401 c 0,36,37
 208 398 208 398 191.5 382 c 128,-1,38
 175 366 175 366 163 349 c 1,39,40
 160 324 160 324 155 292.5 c 128,-1,41
 150 261 150 261 147.5 227.5 c 128,-1,42
 145 194 145 194 148 161.5 c 128,-1,43
 151 129 151 129 164 104 c 128,-1,44
 177 79 177 79 202.5 63 c 128,-1,45
 228 47 228 47 270 47 c 0,46,47
 315 48 315 48 342.5 64 c 128,-1,48
 370 80 370 80 385 106 c 128,-1,49
 400 132 400 132 405 165 c 128,-1,50
 410 198 410 198 408.5 232.5 c 128,-1,51
 407 267 407 267 402 300.5 c 128,-1,52
 397 334 397 334 392.5 360.5 c 128,-1,53
 388 387 388 387 386 403.5 c 128,-1,54
 384 420 384 420 390 422 c 2,55,-1
 436 422 l 1,56,-1
 489 422 l 2,57,58
 491 422 491 422 492.5 403.5 c 128,-1,59
 494 385 494 385 494.5 355 c 128,-1,60
 495 325 495 325 495 286 c 128,-1,61
 495 247 495 247 493.5 206.5 c 128,-1,62
 492 166 492 166 490 127 c 128,-1,63
 488 88 488 88 485 57 c 2,64,-1
 485 56 l 1,65,66
 499 49 499 49 510 42 c 128,-1,67
 521 35 521 35 522 29 c 0,0,1
EndSplineSet
Validated: 33
EndChar

StartChar: v
Encoding: 118 118 51
Width: 572
Flags: W
LayerCount: 2
Fore
SplineSet
522 394 m 1,0,-1
 298 55 l 1,1,2
 302 47 302 47 311 46 c 128,-1,3
 320 45 320 45 328 46 c 128,-1,4
 336 47 336 47 342.5 47.5 c 128,-1,5
 349 48 349 48 349 44 c 0,6,7
 350 32 350 32 354 25.5 c 128,-1,8
 358 19 358 19 361.5 16 c 128,-1,9
 365 13 365 13 366 12 c 128,-1,10
 367 11 367 11 361 8 c 0,11,12
 350 3 350 3 328.5 2 c 128,-1,13
 307 1 307 1 280.5 1 c 128,-1,14
 254 1 254 1 226.5 1.5 c 128,-1,15
 199 2 199 2 178 2 c 0,16,17
 171 2 171 2 171.5 6 c 128,-1,18
 172 10 172 10 175 16 c 128,-1,19
 178 22 178 22 181 28.5 c 128,-1,20
 184 35 184 35 181 40 c 0,21,22
 172 54 172 54 178.5 56 c 128,-1,23
 185 58 185 58 195.5 56.5 c 128,-1,24
 206 55 206 55 216 53 c 128,-1,25
 226 51 226 51 224 56 c 0,26,27
 206 104 206 104 191.5 143 c 128,-1,28
 177 182 177 182 161.5 215 c 128,-1,29
 146 248 146 248 128.5 276.5 c 128,-1,30
 111 305 111 305 89 334 c 1,31,32
 89 341 89 341 84.5 336.5 c 128,-1,33
 80 332 80 332 74 328.5 c 128,-1,34
 68 325 68 325 61.5 328.5 c 128,-1,35
 55 332 55 332 51 355 c 0,36,37
 49 366 49 366 53 373 c 128,-1,38
 57 380 57 380 64.5 384.5 c 128,-1,39
 72 389 72 389 80.5 391.5 c 128,-1,40
 89 394 89 394 97 396 c 0,41,42
 111 398 111 398 122.5 394.5 c 128,-1,43
 134 391 134 391 143.5 385.5 c 128,-1,44
 153 380 153 380 160 374 c 128,-1,45
 167 368 167 368 173 365 c 0,46,47
 189 367 189 367 200 368 c 0,48,49
 210 369 210 369 215.5 368 c 128,-1,50
 221 367 221 367 216 363 c 0,51,52
 195 348 195 348 188.5 333.5 c 128,-1,53
 182 319 182 319 185.5 303 c 128,-1,54
 189 287 189 287 200.5 267.5 c 128,-1,55
 212 248 212 248 227 222 c 2,56,-1
 267 132 l 1,57,-1
 436 395 l 1,58,-1
 522 394 l 1,0,-1
EndSplineSet
Validated: 1
EndChar

StartChar: x
Encoding: 120 120 52
Width: 565
Flags: W
LayerCount: 2
Fore
SplineSet
515 395 m 1,0,-1
 300 183 l 1,1,2
 335 149 335 149 374.5 116 c 128,-1,3
 414 83 414 83 445 57.5 c 128,-1,4
 476 32 476 32 490.5 16 c 128,-1,5
 505 0 505 0 490 0 c 0,6,7
 449 -1 449 -1 426.5 -1 c 128,-1,8
 404 -1 404 -1 392.5 0 c 128,-1,9
 381 1 381 1 378.5 4.5 c 128,-1,10
 376 8 376 8 374.5 13.5 c 128,-1,11
 373 19 373 19 370 28.5 c 128,-1,12
 367 38 367 38 356 51 c 0,13,14
 333 78 333 78 311 102.5 c 128,-1,15
 289 127 289 127 267 150 c 1,16,-1
 116 1 l 1,17,-1
 50 0 l 1,18,-1
 231 190 l 1,19,20
 198 225 198 225 168.5 257.5 c 128,-1,21
 139 290 139 290 115 321 c 1,22,23
 115 328 115 328 110.5 323.5 c 128,-1,24
 106 319 106 319 100 315.5 c 128,-1,25
 94 312 94 312 87.5 315.5 c 128,-1,26
 81 319 81 319 77 342 c 0,27,28
 73 364 73 364 87.5 378 c 128,-1,29
 102 392 102 392 119 395 c 0,30,31
 133 397 133 397 145.5 389.5 c 128,-1,32
 158 382 158 382 168 371 c 128,-1,33
 178 360 178 360 185.5 349.5 c 128,-1,34
 193 339 193 339 199 336 c 0,35,36
 215 338 215 338 226 339 c 0,37,38
 236 340 236 340 241.5 339 c 128,-1,39
 247 338 247 338 242 334 c 0,40,41
 229 325 229 325 225.5 312.5 c 128,-1,42
 222 300 222 300 225.5 286 c 128,-1,43
 229 272 229 272 239 256 c 128,-1,44
 249 240 249 240 263 223 c 1,45,-1
 427 395 l 1,46,-1
 515 395 l 1,0,-1
EndSplineSet
Validated: 33
EndChar

StartChar: zero
Encoding: 48 48 53
Width: 576
Flags: W
LayerCount: 2
Fore
SplineSet
197 723 m 0,0,1
 220 741 220 741 248.5 749 c 128,-1,2
 277 757 277 757 308.5 753.5 c 128,-1,3
 340 750 340 750 369.5 734 c 128,-1,4
 399 718 399 718 434 667 c 128,-1,5
 469 616 469 616 483.5 579.5 c 128,-1,6
 498 543 498 543 509 495.5 c 128,-1,7
 520 448 520 448 523 399 c 128,-1,8
 526 350 526 350 501.5 249.5 c 128,-1,9
 477 149 477 149 456.5 109.5 c 128,-1,10
 436 70 436 70 417 55 c 0,11,12
 394 38 394 38 367.5 24.5 c 128,-1,13
 341 11 341 11 313.5 5.5 c 128,-1,14
 286 0 286 0 256.5 4 c 128,-1,15
 227 8 227 8 198 25.5 c 128,-1,16
 169 43 169 43 143.5 70.5 c 128,-1,17
 118 98 118 98 97 138.5 c 128,-1,18
 76 179 76 179 64 233.5 c 128,-1,19
 52 288 52 288 51 347.5 c 128,-1,20
 50 407 50 407 59 458 c 128,-1,21
 68 509 68 509 85.5 558 c 128,-1,22
 103 607 103 607 130.5 649.5 c 128,-1,23
 158 692 158 692 197 723 c 0,0,1
189 174 m 0,24,25
 191 184 191 184 202 211.5 c 128,-1,26
 213 239 213 239 272.5 418 c 128,-1,27
 332 597 332 597 338 634 c 1,28,29
 317 683 317 683 309 687 c 128,-1,30
 301 691 301 691 296 690 c 0,31,32
 275 687 275 687 255.5 677.5 c 128,-1,33
 236 668 236 668 205.5 623.5 c 128,-1,34
 175 579 175 579 163.5 519.5 c 128,-1,35
 152 460 152 460 148 391.5 c 128,-1,36
 144 323 144 323 150.5 273 c 128,-1,37
 157 223 157 223 162.5 199.5 c 128,-1,38
 168 176 168 176 174.5 165 c 128,-1,39
 181 154 181 154 189 174 c 0,24,25
242 133 m 0,40,41
 239 112 239 112 247 94.5 c 128,-1,42
 255 77 255 77 289.5 62.5 c 128,-1,43
 324 48 324 48 361 78.5 c 128,-1,44
 398 109 398 109 420 233.5 c 128,-1,45
 442 358 442 358 433.5 420.5 c 128,-1,46
 425 483 425 483 410 532 c 128,-1,47
 395 581 395 581 390 573 c 0,48,49
 383 556 383 556 323 388 c 128,-1,50
 263 220 263 220 242 133 c 0,40,41
EndSplineSet
Validated: 33
EndChar

StartChar: one
Encoding: 49 49 54
Width: 451
Flags: W
LayerCount: 2
Fore
SplineSet
171 68 m 0,0,1
 171 122 171 122 173 163.5 c 128,-1,2
 175 205 175 205 178.5 238.5 c 128,-1,3
 182 272 182 272 187 301.5 c 128,-1,4
 192 331 192 331 197 362 c 256,5,6
 202 393 202 393 208 422.5 c 128,-1,7
 214 452 214 452 219 483.5 c 128,-1,8
 224 515 224 515 227.5 551 c 128,-1,9
 231 587 231 587 231 632 c 1,10,11
 225 634 225 634 216.5 636 c 128,-1,12
 208 638 208 638 197 643 c 0,13,14
 155 660 155 660 115.5 652 c 128,-1,15
 76 644 76 644 57 618 c 0,16,17
 51 610 51 610 50.5 613 c 128,-1,18
 50 616 50 616 52 625.5 c 128,-1,19
 54 635 54 635 58.5 648.5 c 128,-1,20
 63 662 63 662 67 674 c 128,-1,21
 71 686 71 686 74 694.5 c 128,-1,22
 77 703 77 703 76 703 c 256,23,24
 75 703 75 703 90.5 705.5 c 128,-1,25
 106 708 106 708 129.5 711.5 c 128,-1,26
 153 715 153 715 180 718.5 c 128,-1,27
 207 722 207 722 230 725 c 0,28,29
 251 728 251 728 273 734 c 128,-1,30
 295 740 295 740 313 747 c 0,31,32
 334 754 334 754 354 763 c 1,33,34
 353 757 353 757 352 750 c 0,35,36
 351 744 351 744 349.5 736 c 128,-1,37
 348 728 348 728 346 718 c 1,38,-1
 349 722 l 1,39,40
 347 705 347 705 343.5 677.5 c 128,-1,41
 340 650 340 650 336 617.5 c 128,-1,42
 332 585 332 585 327 549.5 c 128,-1,43
 322 514 322 514 318 481 c 128,-1,44
 314 448 314 448 311.5 420 c 128,-1,45
 309 392 309 392 309 374 c 0,46,47
 309 299 309 299 303.5 244 c 128,-1,48
 298 189 298 189 292.5 151.5 c 128,-1,49
 287 114 287 114 283.5 94 c 128,-1,50
 280 74 280 74 284 70 c 0,51,52
 290 62 290 62 305.5 63 c 128,-1,53
 321 64 321 64 337 68 c 128,-1,54
 353 72 353 72 365.5 75 c 128,-1,55
 378 78 378 78 378 74 c 0,56,57
 379 62 379 62 385.5 49 c 128,-1,58
 392 36 392 36 396.5 26 c 128,-1,59
 401 16 401 16 400.5 9.5 c 128,-1,60
 400 3 400 3 389 3 c 2,61,-1
 88 3 l 2,62,63
 74 3 74 3 69 7.5 c 128,-1,64
 64 12 64 12 62 20.5 c 128,-1,65
 60 29 60 29 59 41 c 128,-1,66
 58 53 58 53 52 68 c 0,67,68
 49 78 49 78 56.5 81 c 128,-1,69
 64 84 64 84 77 82.5 c 128,-1,70
 90 81 90 81 106.5 77.5 c 128,-1,71
 123 74 123 74 137.5 70.5 c 128,-1,72
 152 67 152 67 161.5 65.5 c 128,-1,73
 171 64 171 64 171 68 c 0,0,1
EndSplineSet
Validated: 33
EndChar

StartChar: two
Encoding: 50 50 55
Width: 673
Flags: W
LayerCount: 2
Fore
SplineSet
421 553 m 0,0,1
 409 576 409 576 397 600 c 128,-1,2
 385 624 385 624 372 643.5 c 128,-1,3
 359 663 359 663 343 675 c 128,-1,4
 327 687 327 687 308 686 c 0,5,6
 269 684 269 684 245.5 665.5 c 128,-1,7
 222 647 222 647 210 626 c 128,-1,8
 198 605 198 605 194.5 588.5 c 128,-1,9
 191 572 191 572 191 575 c 256,10,11
 191 578 191 578 176.5 578.5 c 128,-1,12
 162 579 162 579 144.5 578.5 c 128,-1,13
 127 578 127 578 112.5 577.5 c 128,-1,14
 98 577 98 577 99 577 c 256,15,16
 100 577 100 577 102 589 c 128,-1,17
 104 601 104 601 110 619.5 c 128,-1,18
 116 638 116 638 128 659.5 c 128,-1,19
 140 681 140 681 161 700.5 c 128,-1,20
 182 720 182 720 214.5 734.5 c 128,-1,21
 247 749 247 749 293 753 c 0,22,23
 336 754 336 754 371.5 741 c 128,-1,24
 407 728 407 728 434 707.5 c 128,-1,25
 461 687 461 687 481 663.5 c 128,-1,26
 501 640 501 640 513 621 c 128,-1,27
 525 602 525 602 529 591 c 128,-1,28
 533 580 533 580 530 585 c 1,29,30
 560 539 560 539 559 489 c 128,-1,31
 558 439 558 439 537 388 c 128,-1,32
 516 337 516 337 479.5 287.5 c 128,-1,33
 443 238 443 238 401 193.5 c 128,-1,34
 359 149 359 149 316.5 112 c 128,-1,35
 274 75 274 75 241 49 c 1,36,37
 266 49 266 49 303.5 52.5 c 128,-1,38
 341 56 341 56 377 61 c 128,-1,39
 413 66 413 66 440 71 c 128,-1,40
 467 76 467 76 473 80 c 0,41,42
 491 90 491 90 495 98.5 c 128,-1,43
 499 107 499 107 496.5 115.5 c 128,-1,44
 494 124 494 124 488 133.5 c 128,-1,45
 482 143 482 143 479 156 c 0,46,47
 476 167 476 167 490.5 167 c 128,-1,48
 505 167 505 167 524.5 161.5 c 128,-1,49
 544 156 544 156 561 150 c 128,-1,50
 578 144 578 144 581 143 c 1,51,52
 577 141 577 141 568 130 c 128,-1,53
 559 119 559 119 564 93 c 0,54,55
 567 78 567 78 576 62 c 128,-1,56
 585 46 585 46 596 32 c 0,57,58
 608 16 608 16 623 1 c 1,59,-1
 428 1 l 2,60,61
 390 1 390 1 351 1 c 128,-1,62
 312 1 312 1 277.5 0.5 c 128,-1,63
 243 0 243 0 216.5 0 c 128,-1,64
 190 0 190 0 176 0 c 2,65,-1
 175 0 l 1,66,-1
 167 0 l 1,67,-1
 163 0 l 2,68,69
 152 0 152 0 134 0.5 c 128,-1,70
 116 1 116 1 98 1 c 128,-1,71
 80 1 80 1 66 1 c 128,-1,72
 52 1 52 1 50 0 c 1,73,74
 54 3 54 3 77.5 19.5 c 128,-1,75
 101 36 101 36 134.5 63 c 128,-1,76
 168 90 168 90 209 125.5 c 128,-1,77
 250 161 250 161 289 202 c 128,-1,78
 328 243 328 243 362 288 c 128,-1,79
 396 333 396 333 416.5 378.5 c 128,-1,80
 437 424 437 424 440 468.5 c 128,-1,81
 443 513 443 513 421 553 c 0,0,1
EndSplineSet
Validated: 37
EndChar

StartChar: three
Encoding: 51 51 56
Width: 585
Flags: W
LayerCount: 2
Fore
SplineSet
345 596 m 0,0,1
 321 638 321 638 288.5 663 c 128,-1,2
 256 688 256 688 217 686 c 0,3,4
 179 684 179 684 162.5 668 c 128,-1,5
 146 652 146 652 141.5 633.5 c 128,-1,6
 137 615 137 615 139.5 599.5 c 128,-1,7
 142 584 142 584 143 583 c 1,8,9
 139 585 139 585 124 585.5 c 128,-1,10
 109 586 109 586 92.5 585.5 c 128,-1,11
 76 585 76 585 63 584.5 c 128,-1,12
 50 584 50 584 51 584 c 2,13,14
 51 584 51 584 50.5 594.5 c 128,-1,15
 50 605 50 605 53 621.5 c 128,-1,16
 56 638 56 638 64 657.5 c 128,-1,17
 72 677 72 677 90 694.5 c 128,-1,18
 108 712 108 712 138 725 c 128,-1,19
 168 738 168 738 215 742 c 0,20,21
 258 743 258 743 293 733 c 128,-1,22
 328 723 328 723 355 707.5 c 128,-1,23
 382 692 382 692 401 674 c 128,-1,24
 420 656 420 656 432 641.5 c 128,-1,25
 444 627 444 627 447.5 619.5 c 128,-1,26
 451 612 451 612 448 616 c 1,27,28
 484 565 484 565 487 524 c 128,-1,29
 490 483 490 483 473 450.5 c 128,-1,30
 456 418 456 418 424.5 394.5 c 128,-1,31
 393 371 393 371 360 355 c 1,32,33
 363 348 363 348 365 342 c 1,34,35
 398 327 398 327 430.5 307.5 c 128,-1,36
 463 288 463 288 488 266 c 128,-1,37
 513 244 513 244 526 219.5 c 128,-1,38
 539 195 539 195 532 170 c 0,39,40
 520 125 520 125 497.5 92.5 c 128,-1,41
 475 60 475 60 440.5 40 c 128,-1,42
 406 20 406 20 358 11 c 128,-1,43
 310 2 310 2 246 4 c 0,44,45
 199 7 199 7 167 21 c 128,-1,46
 135 35 135 35 113.5 53 c 128,-1,47
 92 71 92 71 79.5 91.5 c 128,-1,48
 67 112 67 112 61 129.5 c 128,-1,49
 55 147 55 147 53 158 c 128,-1,50
 51 169 51 169 51 169 c 2,51,52
 50 169 50 169 64.5 168.5 c 128,-1,53
 79 168 79 168 96.5 167.5 c 128,-1,54
 114 167 114 167 129 167.5 c 128,-1,55
 144 168 144 168 144 170 c 0,56,57
 144 173 144 173 147 162 c 128,-1,58
 150 151 150 151 162 136.5 c 128,-1,59
 174 122 174 122 197 109 c 128,-1,60
 220 96 220 96 259 94 c 0,61,62
 279 93 279 93 303.5 92 c 128,-1,63
 328 91 328 91 352 95 c 128,-1,64
 376 99 376 99 396 109.5 c 128,-1,65
 416 120 416 120 427 141 c 0,66,67
 443 171 443 171 437 195.5 c 128,-1,68
 431 220 431 220 413.5 239.5 c 128,-1,69
 396 259 396 259 370 273 c 128,-1,70
 344 287 344 287 320 296.5 c 128,-1,71
 296 306 296 306 277.5 311 c 128,-1,72
 259 316 259 316 256 317 c 0,73,74
 241 312 241 312 228 308.5 c 128,-1,75
 215 305 215 305 205 301 c 0,76,77
 194 297 194 297 184 293 c 1,78,79
 199 319 199 319 201.5 333 c 128,-1,80
 204 347 204 347 200 354.5 c 128,-1,81
 196 362 196 362 190 367 c 128,-1,82
 184 372 184 372 181 381 c 0,83,84
 179 384 179 384 185 386.5 c 128,-1,85
 191 389 191 389 201 390 c 128,-1,86
 211 391 211 391 224.5 391.5 c 128,-1,87
 238 392 238 392 252 392 c 0,88,89
 259 394 259 394 275 400.5 c 128,-1,90
 291 407 291 407 308 417.5 c 128,-1,91
 325 428 325 428 341 444 c 128,-1,92
 357 460 357 460 364.5 482 c 128,-1,93
 372 504 372 504 369 532 c 128,-1,94
 366 560 366 560 345 596 c 0,0,1
144 582 m 1,95,96
 143 582 143 582 143 583 c 2,97,-1
 143 582 l 2,98,99
 144 581 144 581 144 582 c 1,95,96
EndSplineSet
Validated: 37
EndChar

StartChar: four
Encoding: 52 52 57
Width: 668
Flags: W
LayerCount: 2
Fore
SplineSet
59 151 m 1,0,-1
 50 742 l 1,1,-1
 148 740 l 1,2,-1
 158 245 l 1,3,4
 181 247 181 247 208 250 c 128,-1,5
 235 253 235 253 261 256 c 128,-1,6
 287 259 287 259 310 263 c 128,-1,7
 333 267 333 267 350 270 c 1,8,-1
 347 340 l 2,9,10
 346 389 346 389 348 438.5 c 128,-1,11
 350 488 350 488 351 535 c 128,-1,12
 352 582 352 582 349 626 c 128,-1,13
 346 670 346 670 334 708 c 0,14,15
 327 730 327 730 336 734.5 c 128,-1,16
 345 739 345 739 376 742 c 0,17,18
 412 745 412 745 433 733 c 128,-1,19
 454 721 454 721 464 698.5 c 128,-1,20
 474 676 474 676 476.5 647.5 c 128,-1,21
 479 619 479 619 477 589.5 c 128,-1,22
 475 560 475 560 472 532.5 c 128,-1,23
 469 505 469 505 469 486 c 0,24,25
 469 437 469 437 469.5 389 c 128,-1,26
 470 341 470 341 471 296 c 0,27,28
 474 296 474 296 478 298 c 0,29,30
 480 299 480 299 481 299 c 0,31,32
 520 301 520 301 551 301 c 0,33,34
 577 301 577 301 598 299 c 128,-1,35
 619 297 619 297 617 291 c 0,36,37
 614 282 614 282 607.5 277.5 c 128,-1,38
 601 273 601 273 597.5 265.5 c 128,-1,39
 594 258 594 258 596 245 c 128,-1,40
 598 232 598 232 612 207 c 1,41,42
 587 216 587 216 562 224 c 0,43,44
 541 231 541 231 517 237 c 128,-1,45
 493 243 493 243 473 245 c 1,46,47
 474 207 474 207 476 174.5 c 128,-1,48
 478 142 478 142 480 117.5 c 128,-1,49
 482 93 482 93 484 78.5 c 128,-1,50
 486 64 486 64 489 61 c 0,51,52
 496 53 496 53 512 54 c 128,-1,53
 528 55 528 55 544 59 c 128,-1,54
 560 63 560 63 572.5 66 c 128,-1,55
 585 69 585 69 585 65 c 0,56,57
 586 53 586 53 592 43 c 128,-1,58
 598 33 598 33 602.5 25.5 c 128,-1,59
 607 18 607 18 606.5 13.5 c 128,-1,60
 606 9 606 9 596 6 c 0,61,62
 577 1 577 1 537.5 0 c 128,-1,63
 498 -1 498 -1 451 -0.5 c 128,-1,64
 404 0 404 0 355 0.5 c 128,-1,65
 306 1 306 1 269 1 c 0,66,67
 255 1 255 1 250 4.5 c 128,-1,68
 245 8 245 8 243.5 15.5 c 128,-1,69
 242 23 242 23 241 34.5 c 128,-1,70
 240 46 240 46 235 61 c 0,71,72
 232 71 232 71 239.5 74 c 128,-1,73
 247 77 247 77 260 75.5 c 128,-1,74
 273 74 273 74 289 70.5 c 128,-1,75
 305 67 305 67 319.5 63.5 c 128,-1,76
 334 60 334 60 343.5 58.5 c 128,-1,77
 353 57 353 57 353 61 c 0,78,79
 353 106 353 106 353 139 c 128,-1,80
 353 172 353 172 352 199 c 1,81,82
 304 198 304 198 251.5 197 c 128,-1,83
 199 196 199 196 159 194 c 1,84,-1
 160 155 l 1,85,-1
 59 151 l 1,0,-1
EndSplineSet
Validated: 33
EndChar

StartChar: five
Encoding: 53 53 58
Width: 605
Flags: W
LayerCount: 2
Fore
SplineSet
504 152 m 0,0,1
 499 144 499 144 484 118 c 128,-1,2
 469 92 469 92 439.5 64.5 c 128,-1,3
 410 37 410 37 364 16 c 128,-1,4
 318 -5 318 -5 251 -3 c 0,5,6
 203 1 203 1 170 16 c 128,-1,7
 137 31 137 31 115 51.5 c 128,-1,8
 93 72 93 72 80.5 94 c 128,-1,9
 68 116 68 116 62 135 c 128,-1,10
 56 154 56 154 54 166.5 c 128,-1,11
 52 179 52 179 51 179 c 256,12,13
 50 179 50 179 64 178.5 c 128,-1,14
 78 178 78 178 95.5 177.5 c 128,-1,15
 113 177 113 177 128.5 177.5 c 128,-1,16
 144 178 144 178 146 181 c 0,17,18
 146 182 146 182 147.5 166 c 128,-1,19
 149 150 149 150 159.5 129.5 c 128,-1,20
 170 109 170 109 191.5 91 c 128,-1,21
 213 73 213 73 254 70 c 0,22,23
 275 69 275 69 300.5 80 c 128,-1,24
 326 91 326 91 350 110 c 128,-1,25
 374 129 374 129 392.5 153.5 c 128,-1,26
 411 178 411 178 418 203 c 0,27,28
 424 227 424 227 406 256.5 c 128,-1,29
 388 286 388 286 357 315.5 c 128,-1,30
 326 345 326 345 288.5 373 c 128,-1,31
 251 401 251 401 217.5 422.5 c 128,-1,32
 184 444 184 444 160.5 458 c 128,-1,33
 137 472 137 472 135 473 c 2,34,-1
 140 473 l 1,35,-1
 103 751 l 1,36,-1
 202 749 l 1,37,-1
 202 748 l 1,38,39
 224 748 224 748 251.5 748 c 128,-1,40
 279 748 279 748 308 748 c 128,-1,41
 337 748 337 748 367 748 c 128,-1,42
 397 748 397 748 424 748 c 2,43,-1
 555 748 l 1,44,45
 541 732 541 732 530 715 c 0,46,47
 520 701 520 701 510.5 684.5 c 128,-1,48
 501 668 501 668 497 653 c 0,49,50
 494 637 494 637 496 618 c 128,-1,51
 498 599 498 599 502.5 583 c 128,-1,52
 507 567 507 567 511 556 c 128,-1,53
 515 545 515 545 515 546 c 2,54,55
 515 546 515 546 506.5 543 c 128,-1,56
 498 540 498 540 485 535.5 c 128,-1,57
 472 531 472 531 457.5 527 c 128,-1,58
 443 523 443 523 431 521.5 c 128,-1,59
 419 520 419 520 412 522 c 128,-1,60
 405 524 405 524 407 532 c 0,61,62
 410 545 410 545 417 564 c 128,-1,63
 424 583 424 583 427 602 c 128,-1,64
 430 621 430 621 426 638 c 128,-1,65
 422 655 422 655 405 666 c 0,66,67
 398 670 398 670 372.5 675.5 c 128,-1,68
 347 681 347 681 316 686.5 c 128,-1,69
 285 692 285 692 255 695.5 c 128,-1,70
 225 699 225 699 208 698 c 1,71,-1
 239 471 l 2,72,73
 242 469 242 469 269.5 455.5 c 128,-1,74
 297 442 297 442 334 419.5 c 128,-1,75
 371 397 371 397 410.5 366.5 c 128,-1,76
 450 336 450 336 478.5 301 c 128,-1,77
 507 266 507 266 516.5 228 c 128,-1,78
 526 190 526 190 504 152 c 0,0,1
EndSplineSet
Validated: 37
EndChar

StartChar: six
Encoding: 54 54 59
Width: 577
Flags: W
LayerCount: 2
Fore
SplineSet
406 752 m 1,0,-1
 208 382 l 1,1,2
 258 396 258 396 307 394 c 0,3,4
 348 393 348 393 386.5 381 c 128,-1,5
 425 369 425 369 455.5 347.5 c 128,-1,6
 486 326 486 326 505 295 c 128,-1,7
 524 264 524 264 526 225 c 0,8,9
 528 179 528 179 521.5 138 c 128,-1,10
 515 97 515 97 491.5 65.5 c 128,-1,11
 468 34 468 34 424.5 15 c 128,-1,12
 381 -4 381 -4 310 -6 c 0,13,14
 231 -8 231 -8 177.5 16 c 128,-1,15
 124 40 124 40 93 79 c 128,-1,16
 62 118 62 118 53.5 166 c 128,-1,17
 45 214 45 214 57 258 c 1,18,-1
 54 258 l 1,19,-1
 61 271 l 2,20,21
 65 283 65 283 73 296 c 2,22,-1
 308 748 l 1,23,-1
 404 752 l 1,24,-1
 406 752 l 1,0,-1
285 65 m 0,25,26
 316 63 316 63 345.5 72 c 128,-1,27
 375 81 375 81 397.5 99 c 128,-1,28
 420 117 420 117 433 142 c 128,-1,29
 446 167 446 167 445 196 c 0,30,31
 444 224 444 224 433.5 247.5 c 128,-1,32
 423 271 423 271 405 288 c 128,-1,33
 387 305 387 305 362.5 315 c 128,-1,34
 338 325 338 325 309 325 c 256,35,36
 280 325 280 325 251 316 c 128,-1,37
 222 307 222 307 199 291 c 128,-1,38
 176 275 176 275 160.5 252.5 c 128,-1,39
 145 230 145 230 143 203 c 0,40,41
 141 146 141 146 173.5 108.5 c 128,-1,42
 206 71 206 71 285 65 c 0,25,26
EndSplineSet
Validated: 33
EndChar

StartChar: seven
Encoding: 55 55 60
Width: 545
Flags: W
LayerCount: 2
Fore
SplineSet
495 752 m 1,0,-1
 139 -2 l 1,1,-1
 50 2 l 1,2,-1
 362 675 l 1,3,4
 354 679 354 679 331.5 679.5 c 128,-1,5
 309 680 309 680 284.5 677.5 c 128,-1,6
 260 675 260 675 238 671 c 128,-1,7
 216 667 216 667 209 663 c 0,8,9
 192 651 192 651 191.5 641.5 c 128,-1,10
 191 632 191 632 198 622 c 128,-1,11
 205 612 205 612 215 601 c 128,-1,12
 225 590 225 590 229 577 c 0,13,14
 232 565 232 565 216.5 565.5 c 128,-1,15
 201 566 201 566 180.5 571 c 128,-1,16
 160 576 160 576 141.5 583 c 128,-1,17
 123 590 123 590 119 591 c 1,18,19
 123 593 123 593 133.5 609 c 128,-1,20
 144 625 144 625 139 654 c 0,21,22
 135 669 135 669 125 686.5 c 128,-1,23
 115 704 115 704 104 718 c 0,24,25
 91 735 91 735 76 752 c 1,26,27
 150 750 150 750 213 749 c 0,28,29
 240 748 240 748 267.5 747.5 c 128,-1,30
 295 747 295 747 319.5 746.5 c 128,-1,31
 344 746 344 746 364 746 c 128,-1,32
 384 746 384 746 395 746 c 1,33,-1
 396 748 l 1,34,-1
 492 752 l 1,35,-1
 495 752 l 1,0,-1
EndSplineSet
Validated: 33
EndChar

StartChar: eight
Encoding: 56 56 61
Width: 540
Flags: W
LayerCount: 2
Fore
SplineSet
274 747 m 0,0,1
 341 747 341 747 382.5 726 c 128,-1,2
 424 705 424 705 444 671.5 c 128,-1,3
 464 638 464 638 466 595 c 128,-1,4
 468 552 468 552 456 508 c 0,5,6
 446 466 446 466 423.5 445 c 128,-1,7
 401 424 401 424 369 416 c 1,8,9
 406 396 406 396 432 364.5 c 128,-1,10
 458 333 458 333 472 296 c 128,-1,11
 486 259 486 259 488.5 220 c 128,-1,12
 491 181 491 181 482 147 c 0,13,14
 473 112 473 112 452 85.5 c 128,-1,15
 431 59 431 59 402 41 c 128,-1,16
 373 23 373 23 338.5 14.5 c 128,-1,17
 304 6 304 6 268 7 c 0,18,19
 227 8 227 8 188.5 18.5 c 128,-1,20
 150 29 150 29 120 49 c 128,-1,21
 90 69 90 69 71.5 99 c 128,-1,22
 53 129 53 129 52 168 c 0,23,24
 50 204 50 204 53 241 c 128,-1,25
 56 278 56 278 67.5 312 c 128,-1,26
 79 346 79 346 101 374 c 128,-1,27
 123 402 123 402 159 419 c 1,28,29
 114 429 114 429 85 453.5 c 128,-1,30
 56 478 56 478 54 529 c 0,31,32
 52 575 52 575 59.5 615 c 128,-1,33
 67 655 67 655 91 684 c 128,-1,34
 115 713 115 713 159 730 c 128,-1,35
 203 747 203 747 274 747 c 0,0,1
260 375 m 0,36,37
 227 377 227 377 201.5 361 c 128,-1,38
 176 345 176 345 158.5 319 c 128,-1,39
 141 293 141 293 132.5 261 c 128,-1,40
 124 229 124 229 125 199 c 0,41,42
 128 142 128 142 165.5 114 c 128,-1,43
 203 86 203 86 264 86 c 0,44,45
 292 86 292 86 318.5 92.5 c 128,-1,46
 345 99 345 99 365.5 112 c 128,-1,47
 386 125 386 125 399 145 c 128,-1,48
 412 165 412 165 414 192 c 0,49,50
 415 221 415 221 406 252 c 128,-1,51
 397 283 397 283 377.5 309 c 128,-1,52
 358 335 358 335 328.5 353.5 c 128,-1,53
 299 372 299 372 260 375 c 0,36,37
267 697 m 0,54,55
 233 699 233 699 206.5 689 c 128,-1,56
 180 679 180 679 162 660 c 128,-1,57
 144 641 144 641 134.5 615 c 128,-1,58
 125 589 125 589 126 559 c 0,59,60
 128 502 128 502 166.5 475.5 c 128,-1,61
 205 449 205 449 266 449 c 0,62,63
 323 449 323 449 355 472.5 c 128,-1,64
 387 496 387 496 390 552 c 0,65,66
 391 581 391 581 387 606 c 128,-1,67
 383 631 383 631 369.5 650 c 128,-1,68
 356 669 356 669 331 681.5 c 128,-1,69
 306 694 306 694 267 697 c 0,54,55
EndSplineSet
Validated: 33
EndChar

StartChar: nine
Encoding: 57 57 62
Width: 578
Flags: W
LayerCount: 2
Fore
SplineSet
171 -5 m 1,0,-1
 368 365 l 1,1,2
 344 358 344 358 319.5 355 c 128,-1,3
 295 352 295 352 272 353 c 0,4,5
 231 354 231 354 192.5 365.5 c 128,-1,6
 154 377 154 377 123 399 c 128,-1,7
 92 421 92 421 72.5 452 c 128,-1,8
 53 483 53 483 51 522 c 0,9,10
 49 568 49 568 56 609 c 128,-1,11
 63 650 63 650 86 681.5 c 128,-1,12
 109 713 109 713 152.5 732 c 128,-1,13
 196 751 196 751 268 753 c 0,14,15
 347 755 347 755 400.5 730.5 c 128,-1,16
 454 706 454 706 485 667 c 128,-1,17
 516 628 516 628 524.5 580.5 c 128,-1,18
 533 533 533 533 521 489 c 1,19,-1
 524 489 l 1,20,-1
 516 474 l 2,21,22
 511 461 511 461 504 451 c 2,23,-1
 270 -1 l 1,24,-1
 176 -5 l 1,25,-1
 171 -5 l 1,0,-1
292 685 m 0,26,27
 259 687 259 687 229 677.5 c 128,-1,28
 199 668 199 668 176.5 650 c 128,-1,29
 154 632 154 632 140.5 606.5 c 128,-1,30
 127 581 127 581 128 551 c 0,31,32
 129 523 129 523 140 499 c 128,-1,33
 151 475 151 475 169.5 457.5 c 128,-1,34
 188 440 188 440 213 430 c 128,-1,35
 238 420 238 420 268 420 c 0,36,37
 296 420 296 420 325.5 429 c 128,-1,38
 355 438 355 438 379 454.5 c 128,-1,39
 403 471 403 471 418.5 494 c 128,-1,40
 434 517 434 517 436 544 c 0,41,42
 438 602 438 602 405 640 c 128,-1,43
 372 678 372 678 292 685 c 0,26,27
EndSplineSet
Validated: 33
EndChar

StartChar: less
Encoding: 60 60 63
Width: 489
Flags: W
LayerCount: 2
Fore
SplineSet
51 340 m 0,0,1
 136 275 136 275 205 225 c 0,2,3
 234 203 234 203 262.5 182.5 c 128,-1,4
 291 162 291 162 313.5 146 c 128,-1,5
 336 130 336 130 350 120 c 128,-1,6
 364 110 364 110 366 110 c 0,7,8
 369 110 369 110 380.5 118 c 128,-1,9
 392 126 392 126 405 136 c 0,10,11
 420 147 420 147 438 162 c 1,12,-1
 184 345 l 1,13,14
 257 392 257 392 313 429 c 0,15,16
 337 445 337 445 360 460 c 128,-1,17
 383 475 383 475 400.5 487 c 128,-1,18
 418 499 418 499 428.5 506 c 128,-1,19
 439 513 439 513 438 513 c 0,20,21
 435 513 435 513 422 519.5 c 128,-1,22
 409 526 409 526 394.5 534.5 c 128,-1,23
 380 543 380 543 368 550 c 128,-1,24
 356 557 356 557 356 559 c 1,25,26
 353 556 353 556 328.5 538.5 c 128,-1,27
 304 521 304 521 268.5 497 c 128,-1,28
 233 473 233 473 193 445 c 128,-1,29
 153 417 153 417 120 394 c 128,-1,30
 87 371 87 371 67 355.5 c 128,-1,31
 47 340 47 340 51 340 c 0,0,1
357 560 m 2,32,-1
 356 559 l 2,33,34
 356 560 356 560 357 560 c 2,32,-1
EndSplineSet
Validated: 5
EndChar

StartChar: greater
Encoding: 62 62 64
Width: 489
Flags: W
LayerCount: 2
Fore
SplineSet
438 342 m 0,0,1
 442 342 442 342 422 327 c 128,-1,2
 402 312 402 312 369 288.5 c 128,-1,3
 336 265 336 265 296.5 238 c 128,-1,4
 257 211 257 211 222 186.5 c 128,-1,5
 187 162 187 162 161.5 144.5 c 128,-1,6
 136 127 136 127 132 123 c 1,7,8
 130 125 130 125 118.5 132.5 c 128,-1,9
 107 140 107 140 92.5 148 c 128,-1,10
 78 156 78 156 66 162.5 c 128,-1,11
 54 169 54 169 51 169 c 0,12,13
 50 169 50 169 60.5 176 c 128,-1,14
 71 183 71 183 88.5 195 c 128,-1,15
 106 207 106 207 129 222 c 128,-1,16
 152 237 152 237 176 253 c 0,17,18
 232 290 232 290 305 337 c 1,19,-1
 51 520 l 1,20,21
 69 535 69 535 84 546 c 0,22,23
 97 556 97 556 108.5 564 c 128,-1,24
 120 572 120 572 122 572 c 0,25,26
 123 572 123 572 137.5 562 c 128,-1,27
 152 552 152 552 174.5 536 c 128,-1,28
 197 520 197 520 225.5 499 c 128,-1,29
 254 478 254 478 283 457 c 0,30,31
 352 406 352 406 438 342 c 0,0,1
132 122 m 257,32,33
 132 122 132 122 132 123 c 1,34,35
 132 122 132 122 132 122 c 257,32,33
EndSplineSet
Validated: 5
EndChar

StartChar: question
Encoding: 63 63 65
Width: 484
Flags: W
LayerCount: 2
Fore
SplineSet
139 343 m 1,0,1
 205 382 205 382 254 420 c 0,2,3
 275 436 275 436 294.5 453 c 128,-1,4
 314 470 314 470 328 487 c 128,-1,5
 342 504 342 504 348.5 519.5 c 128,-1,6
 355 535 355 535 351 548 c 0,7,8
 343 565 343 565 326 581.5 c 128,-1,9
 309 598 309 598 288 610.5 c 128,-1,10
 267 623 267 623 245 629.5 c 128,-1,11
 223 636 223 636 207 635 c 0,12,13
 174 631 174 631 157.5 617 c 128,-1,14
 141 603 141 603 134.5 588 c 128,-1,15
 128 573 128 573 127.5 561.5 c 128,-1,16
 127 550 127 550 127 550 c 2,17,18
 125 552 125 552 113 552 c 128,-1,19
 101 552 101 552 86.5 551 c 128,-1,20
 72 550 72 550 61 549 c 128,-1,21
 50 548 50 548 51 548 c 2,22,23
 51 548 51 548 51.5 557 c 128,-1,24
 52 566 52 566 55.5 579.5 c 128,-1,25
 59 593 59 593 67.5 609.5 c 128,-1,26
 76 626 76 626 92.5 641.5 c 128,-1,27
 109 657 109 657 134.5 669 c 128,-1,28
 160 681 160 681 199 686 c 0,29,30
 254 690 254 690 293.5 677.5 c 128,-1,31
 333 665 333 665 359 647 c 128,-1,32
 385 629 385 629 398.5 611.5 c 128,-1,33
 412 594 412 594 417 588 c 0,34,35
 437 563 437 563 432.5 536.5 c 128,-1,36
 428 510 428 510 408.5 484.5 c 128,-1,37
 389 459 389 459 360 436 c 128,-1,38
 331 413 331 413 303 395 c 128,-1,39
 275 377 275 377 252.5 365 c 128,-1,40
 230 353 230 353 224 350 c 1,41,-1
 213 152 l 1,42,-1
 131 145 l 1,43,-1
 143 343 l 1,44,-1
 139 343 l 1,0,1
199 106 m 0,45,46
 223 106 223 106 237.5 100 c 128,-1,47
 252 94 252 94 259.5 84.5 c 128,-1,48
 267 75 267 75 267.5 63.5 c 128,-1,49
 268 52 268 52 264 40 c 0,50,51
 259 21 259 21 242 11 c 128,-1,52
 225 1 225 1 199 3 c 0,53,54
 172 3 172 3 149.5 13.5 c 128,-1,55
 127 24 127 24 126 45 c 0,56,57
 125 57 125 57 127 68.5 c 128,-1,58
 129 80 129 80 136.5 88 c 128,-1,59
 144 96 144 96 159 101 c 128,-1,60
 174 106 174 106 199 106 c 0,45,46
EndSplineSet
Validated: 37
EndChar

StartChar: ampersand
Encoding: 38 38 66
Width: 778
Flags: W
LayerCount: 2
Fore
SplineSet
494 200 m 0,0,1
 554 251 554 251 560 298.5 c 128,-1,2
 566 346 566 346 547 322 c 128,-1,3
 528 298 528 298 499 326 c 128,-1,4
 470 354 470 354 485.5 375.5 c 128,-1,5
 501 397 501 397 543.5 418.5 c 128,-1,6
 586 440 586 440 624 387.5 c 128,-1,7
 662 335 662 335 627 253.5 c 128,-1,8
 592 172 592 172 536 139 c 0,9,10
 532 137 532 137 557.5 110.5 c 128,-1,11
 583 84 583 84 612 86.5 c 128,-1,12
 641 89 641 89 642 124 c 1,13,14
 662 186 662 186 695 144.5 c 128,-1,15
 728 103 728 103 708 68 c 128,-1,16
 688 33 688 33 646.5 19 c 128,-1,17
 605 5 605 5 551.5 35 c 128,-1,18
 498 65 498 65 488 75 c 1,19,20
 488 72 488 72 420 45 c 128,-1,21
 352 18 352 18 261.5 4 c 128,-1,22
 171 -10 171 -10 110.5 48 c 128,-1,23
 50 106 50 106 56 191 c 128,-1,24
 62 276 62 276 116.5 345.5 c 128,-1,25
 171 415 171 415 216 437 c 1,26,27
 128 608 128 608 193.5 668 c 128,-1,28
 259 728 259 728 307 737.5 c 128,-1,29
 355 747 355 747 415 714 c 128,-1,30
 475 681 475 681 473 626.5 c 128,-1,31
 471 572 471 572 313 423 c 1,32,33
 302 423 302 423 310 402 c 128,-1,34
 318 381 318 381 394 279.5 c 128,-1,35
 470 178 470 178 494 200 c 0,0,1
408 135 m 1,36,-1
 401 143 l 1,37,38
 332 228 332 228 289.5 286.5 c 128,-1,39
 247 345 247 345 241 354 c 2,40,-1
 237 363 l 1,41,42
 225 363 225 363 182 307.5 c 128,-1,43
 139 252 139 252 154.5 162.5 c 128,-1,44
 170 73 170 73 272.5 90 c 128,-1,45
 375 107 375 107 394.5 121 c 128,-1,46
 414 135 414 135 408 135 c 1,36,-1
276 466 m 1,47,48
 308 498 308 498 374 560.5 c 128,-1,49
 440 623 440 623 382.5 662.5 c 128,-1,50
 325 702 325 702 262 652.5 c 128,-1,51
 199 603 199 603 276 466 c 1,47,48
EndSplineSet
Validated: 33
EndChar

StartChar: exclam
Encoding: 33 33 67
Width: 245
Flags: W
LayerCount: 2
Fore
SplineSet
79 231 m 1,0,-1
 79 754 l 1,1,-1
 151 752 l 1,2,-1
 154 235 l 1,3,-1
 79 231 l 1,0,-1
124 108 m 0,4,5
 148 108 148 108 163 102 c 128,-1,6
 178 96 178 96 185.5 86.5 c 128,-1,7
 193 77 193 77 194 65.5 c 128,-1,8
 195 54 195 54 191 42 c 0,9,10
 177 2 177 2 124 5 c 0,11,12
 96 5 96 5 74 15.5 c 128,-1,13
 52 26 52 26 51 47 c 0,14,15
 49 59 49 59 51 70.5 c 128,-1,16
 53 82 53 82 61 90 c 128,-1,17
 69 98 69 98 84 103 c 128,-1,18
 99 108 99 108 124 108 c 0,4,5
EndSplineSet
Validated: 33
EndChar

StartChar: slash
Encoding: 47 47 68
Width: 545
Flags: W
LayerCount: 2
Fore
SplineSet
119 0 m 1,0,-1
 50 22 l 1,1,-1
 421 750 l 1,2,-1
 495 733 l 1,3,-1
 119 0 l 1,0,-1
EndSplineSet
Validated: 1
EndChar

StartChar: y
Encoding: 121 121 70
Width: 618
Flags: W
LayerCount: 2
Fore
SplineSet
567 397 m 1,0,-1
 346 16 l 1,1,-1
 345 16 l 1,2,3
 344 12 344 12 330 -16.5 c 128,-1,4
 316 -45 316 -45 291.5 -85 c 128,-1,5
 267 -125 267 -125 234 -170 c 128,-1,6
 201 -215 201 -215 161 -250.5 c 128,-1,7
 121 -286 121 -286 76 -305 c 128,-1,8
 31 -324 31 -324 -16 -314 c 0,9,10
 -65 -301 -65 -301 -85 -282.5 c 128,-1,11
 -105 -264 -105 -264 -109.5 -245.5 c 128,-1,12
 -114 -227 -114 -227 -108.5 -211.5 c 128,-1,13
 -103 -196 -103 -196 -100 -188 c 1,14,15
 -85 -189 -85 -189 -70 -189.5 c 128,-1,16
 -55 -190 -55 -190 -42 -192 c 0,17,18
 -27 -194 -27 -194 -13 -195 c 1,19,20
 -28 -211 -28 -211 -30 -224 c 0,21,22
 -31 -230 -31 -230 -29 -236 c 128,-1,23
 -27 -242 -27 -242 -20.5 -247.5 c 128,-1,24
 -14 -253 -14 -253 -2.5 -257 c 128,-1,25
 9 -261 9 -261 28 -264 c 0,26,27
 62 -264 62 -264 96 -235.5 c 128,-1,28
 130 -207 130 -207 160.5 -166 c 128,-1,29
 191 -125 191 -125 216.5 -78.5 c 128,-1,30
 242 -32 242 -32 260 4 c 1,31,32
 250 23 250 23 236 51.5 c 128,-1,33
 222 80 222 80 206.5 112.5 c 128,-1,34
 191 145 191 145 174.5 179.5 c 128,-1,35
 158 214 158 214 141.5 245.5 c 128,-1,36
 125 277 125 277 109.5 303.5 c 128,-1,37
 94 330 94 330 82 345 c 1,38,39
 82 352 82 352 77.5 347.5 c 128,-1,40
 73 343 73 343 67 339.5 c 128,-1,41
 61 336 61 336 55 339.5 c 128,-1,42
 49 343 49 343 45 366 c 0,43,44
 42 388 42 388 56 402 c 128,-1,45
 70 416 70 416 86 419 c 0,46,47
 100 421 100 421 112 413.5 c 128,-1,48
 124 406 124 406 134.5 395 c 128,-1,49
 145 384 145 384 153 373.5 c 128,-1,50
 161 363 161 363 167 360 c 0,51,52
 183 362 183 362 194 363 c 0,53,54
 203 364 203 364 209 363 c 128,-1,55
 215 362 215 362 210 358 c 0,56,57
 193 345 193 345 199 311.5 c 128,-1,58
 205 278 205 278 223 237 c 128,-1,59
 241 196 241 196 265 154 c 128,-1,60
 289 112 289 112 307 82 c 1,61,-1
 482 397 l 1,62,-1
 567 397 l 1,0,-1
EndSplineSet
Validated: 33
EndChar

StartChar: z
Encoding: 122 122 71
Width: 554
Flags: W
LayerCount: 2
Fore
SplineSet
501 419 m 1,0,-1
 160 27 l 1,1,2
 178 25 178 25 203.5 23.5 c 128,-1,3
 229 22 229 22 257.5 22.5 c 128,-1,4
 286 23 286 23 314 26 c 128,-1,5
 342 29 342 29 364 38 c 0,6,7
 383 45 383 45 394.5 54.5 c 128,-1,8
 406 64 406 64 412.5 71.5 c 128,-1,9
 419 79 419 79 421.5 84 c 128,-1,10
 424 89 424 89 424 88 c 256,11,12
 424 87 424 87 437.5 72.5 c 128,-1,13
 451 58 451 58 462.5 41.5 c 128,-1,14
 474 25 474 25 474.5 12 c 128,-1,15
 475 -1 475 -1 449 -1 c 2,16,-1
 279 -1 l 2,17,18
 207 -1 207 -1 117 0 c 2,19,-1
 50 0 l 1,20,-1
 384 392 l 1,21,22
 366 393 366 393 340.5 395 c 128,-1,23
 315 397 315 397 286.5 397 c 128,-1,24
 258 397 258 397 230 394 c 128,-1,25
 202 391 202 391 180 382 c 0,26,27
 161 374 161 374 149 365 c 128,-1,28
 137 356 137 356 130.5 348.5 c 128,-1,29
 124 341 124 341 121.5 336 c 128,-1,30
 119 331 119 331 119 332 c 256,31,32
 119 333 119 333 113 340 c 128,-1,33
 107 347 107 347 99.5 357.5 c 128,-1,34
 92 368 92 368 85 379.5 c 128,-1,35
 78 391 78 391 76 400.5 c 128,-1,36
 74 410 74 410 78.5 416 c 128,-1,37
 83 422 83 422 99 420 c 0,38,39
 101 420 101 420 123 420 c 128,-1,40
 145 420 145 420 176.5 420 c 128,-1,41
 208 420 208 420 245.5 420 c 128,-1,42
 283 420 283 420 317 420 c 128,-1,43
 351 420 351 420 376.5 420 c 128,-1,44
 402 420 402 420 410 420 c 2,45,-1
 425 420 l 1,46,-1
 499 419 l 1,47,-1
 501 419 l 1,0,-1
EndSplineSet
Validated: 33
EndChar

StartChar: period
Encoding: 46 46 72
Width: 264
Flags: W
LayerCount: 2
Fore
SplineSet
136 140 m 0,0,1
 163 140 163 140 179.5 129.5 c 128,-1,2
 196 119 196 119 204 104 c 128,-1,3
 212 89 212 89 213 72 c 128,-1,4
 214 55 214 55 209 42 c 0,5,6
 202 21 202 21 183 9.5 c 128,-1,7
 164 -2 164 -2 136 0 c 0,8,9
 104 0 104 0 78 12 c 128,-1,10
 52 24 52 24 51 48 c 0,11,12
 50 62 50 62 52.5 78 c 128,-1,13
 55 94 55 94 64 108 c 128,-1,14
 73 122 73 122 90 131 c 128,-1,15
 107 140 107 140 136 140 c 0,0,1
EndSplineSet
Validated: 33
EndChar

StartChar: colon
Encoding: 58 58 73
Width: 271
Flags: W
LayerCount: 2
Fore
SplineSet
136 140 m 0,0,1
 163 140 163 140 179.5 129.5 c 128,-1,2
 196 119 196 119 204 104 c 128,-1,3
 212 89 212 89 213 72 c 128,-1,4
 214 55 214 55 209 42 c 0,5,6
 202 21 202 21 183 9.5 c 128,-1,7
 164 -2 164 -2 136 0 c 0,8,9
 104 0 104 0 78 12 c 128,-1,10
 52 24 52 24 51 48 c 0,11,12
 50 62 50 62 52.5 78 c 128,-1,13
 55 94 55 94 64 108 c 128,-1,14
 73 122 73 122 90 131 c 128,-1,15
 107 140 107 140 136 140 c 0,0,1
143 374 m 0,16,17
 170 374 170 374 186.5 363.5 c 128,-1,18
 203 353 203 353 211 338 c 128,-1,19
 219 323 219 323 220 306 c 128,-1,20
 221 289 221 289 216 276 c 0,21,22
 209 255 209 255 190 243.5 c 128,-1,23
 171 232 171 232 143 234 c 0,24,25
 111 234 111 234 85 246 c 128,-1,26
 59 258 59 258 58 282 c 0,27,28
 57 296 57 296 59.5 312 c 128,-1,29
 62 328 62 328 71 342 c 128,-1,30
 80 356 80 356 97 365 c 128,-1,31
 114 374 114 374 143 374 c 0,16,17
EndSplineSet
Validated: 33
EndChar

StartChar: semicolon
Encoding: 59 59 74
Width: 315
Flags: W
LayerCount: 2
Fore
SplineSet
156 -40 m 1,0,1
 122 -34 122 -34 86 6.5 c 128,-1,2
 50 47 50 47 84.5 119.5 c 128,-1,3
 119 192 119 192 220 141 c 1,4,5
 265 90 265 90 256.5 27 c 128,-1,6
 248 -36 248 -36 238 -67 c 0,7,8
 209 -196 209 -196 86 -225 c 1,9,10
 155 -103 155 -103 156 -40 c 1,0,1
177 403 m 0,11,12
 204 403 204 403 220.5 392.5 c 128,-1,13
 237 382 237 382 245 367 c 128,-1,14
 253 352 253 352 254 335 c 128,-1,15
 255 318 255 318 250 305 c 0,16,17
 243 284 243 284 224 272.5 c 128,-1,18
 205 261 205 261 177 263 c 0,19,20
 145 263 145 263 119 275 c 128,-1,21
 93 287 93 287 92 311 c 0,22,23
 91 325 91 325 93.5 341 c 128,-1,24
 96 357 96 357 105 371 c 128,-1,25
 114 385 114 385 131 394 c 128,-1,26
 148 403 148 403 177 403 c 0,11,12
EndSplineSet
Validated: 33
EndChar

StartChar: comma
Encoding: 44 44 75
Width: 315
Flags: W
LayerCount: 2
Fore
SplineSet
156 -40 m 1,0,1
 122 -34 122 -34 86 6.5 c 128,-1,2
 50 47 50 47 84.5 119.5 c 128,-1,3
 119 192 119 192 220 141 c 1,4,5
 265 90 265 90 256.5 27 c 128,-1,6
 248 -36 248 -36 238 -67 c 0,7,8
 209 -196 209 -196 86 -225 c 1,9,10
 155 -103 155 -103 156 -40 c 1,0,1
EndSplineSet
Validated: 33
EndChar

StartChar: quotedbl
Encoding: 34 34 76
Width: 495
Flags: W
LayerCount: 2
Fore
SplineSet
135 614 m 1,0,1
 120 619 120 619 101 626 c 128,-1,2
 82 633 82 633 69 644.5 c 128,-1,3
 56 656 56 656 53 673.5 c 128,-1,4
 50 691 50 691 72 718 c 0,5,6
 80 727 80 727 95 733.5 c 128,-1,7
 110 740 110 740 127 742 c 128,-1,8
 144 744 144 744 161.5 741.5 c 128,-1,9
 179 739 179 739 192 730 c 0,10,11
 207 720 207 720 217 705 c 128,-1,12
 227 690 227 690 230.5 673.5 c 128,-1,13
 234 657 234 657 229.5 640.5 c 128,-1,14
 225 624 225 624 213 612 c 0,15,16
 151 547 151 547 115 526 c 128,-1,17
 79 505 79 505 70 529 c 0,18,19
 60 552 60 552 67.5 561.5 c 128,-1,20
 75 571 75 571 88 577 c 128,-1,21
 101 583 101 583 115.5 590 c 128,-1,22
 130 597 130 597 135 614 c 1,0,1
346 610 m 1,23,24
 332 615 332 615 313.5 622 c 128,-1,25
 295 629 295 629 281 640.5 c 128,-1,26
 267 652 267 652 265 669.5 c 128,-1,27
 263 687 263 687 285 714 c 0,28,29
 291 723 291 723 306.5 729.5 c 128,-1,30
 322 736 322 736 339 738 c 128,-1,31
 356 740 356 740 373 737.5 c 128,-1,32
 390 735 390 735 405 726 c 0,33,34
 419 716 419 716 428.5 701 c 128,-1,35
 438 686 438 686 441.5 669.5 c 128,-1,36
 445 653 445 653 441 636.5 c 128,-1,37
 437 620 437 620 425 608 c 0,38,39
 362 543 362 543 326 522 c 128,-1,40
 290 501 290 501 283 525 c 0,41,42
 273 548 273 548 280 557.5 c 128,-1,43
 287 567 287 567 299.5 573 c 128,-1,44
 312 579 312 579 326.5 586 c 128,-1,45
 341 593 341 593 346 610 c 1,23,24
EndSplineSet
Validated: 33
EndChar

StartChar: quotedblbase
Encoding: 8222 8222 77
Width: 495
Flags: W
LayerCount: 2
Fore
SplineSet
134 1 m 1,0,1
 119 6 119 6 100 13 c 128,-1,2
 81 20 81 20 67 31.5 c 128,-1,3
 53 43 53 43 51.5 60.5 c 128,-1,4
 50 78 50 78 72 105 c 0,5,6
 79 114 79 114 93.5 120.5 c 128,-1,7
 108 127 108 127 126 129 c 128,-1,8
 144 131 144 131 161.5 128.5 c 128,-1,9
 179 126 179 126 192 117 c 0,10,11
 206 107 206 107 216 92 c 128,-1,12
 226 77 226 77 229.5 60.5 c 128,-1,13
 233 44 233 44 228.5 27.5 c 128,-1,14
 224 11 224 11 212 -1 c 0,15,16
 148 -66 148 -66 113 -87 c 128,-1,17
 78 -108 78 -108 69 -84 c 0,18,19
 60 -61 60 -61 67 -51.5 c 128,-1,20
 74 -42 74 -42 87 -36 c 128,-1,21
 100 -30 100 -30 114.5 -23 c 128,-1,22
 129 -16 129 -16 134 1 c 1,0,1
345 -3 m 1,23,24
 331 2 331 2 311.5 9 c 128,-1,25
 292 16 292 16 279 27.5 c 128,-1,26
 266 39 266 39 264.5 56.5 c 128,-1,27
 263 74 263 74 283 101 c 0,28,29
 291 110 291 110 305.5 116.5 c 128,-1,30
 320 123 320 123 337.5 125 c 128,-1,31
 355 127 355 127 372 124.5 c 128,-1,32
 389 122 389 122 402 113 c 0,33,34
 418 103 418 103 427.5 88 c 128,-1,35
 437 73 437 73 441 56.5 c 128,-1,36
 445 40 445 40 440.5 23.5 c 128,-1,37
 436 7 436 7 424 -5 c 0,38,39
 360 -70 360 -70 325 -91 c 128,-1,40
 290 -112 290 -112 280 -88 c 0,41,42
 271 -65 271 -65 279 -55.5 c 128,-1,43
 287 -46 287 -46 299.5 -40 c 128,-1,44
 312 -34 312 -34 326.5 -27 c 128,-1,45
 341 -20 341 -20 345 -3 c 1,23,24
EndSplineSet
Validated: 33
EndChar

StartChar: Adieresis
Encoding: 196 196 78
Width: 542
Flags: W
LayerCount: 2
Fore
SplineSet
153 205 m 2,0,1
 153 205 153 205 158 225 c 128,-1,2
 163 245 163 245 171 276.5 c 128,-1,3
 179 308 179 308 188 346.5 c 128,-1,4
 197 385 197 385 205.5 422 c 128,-1,5
 214 459 214 459 220 489.5 c 128,-1,6
 226 520 226 520 228 535 c 0,7,8
 228 540 228 540 225.5 540 c 128,-1,9
 223 540 223 540 217.5 539.5 c 128,-1,10
 212 539 212 539 204.5 541 c 128,-1,11
 197 543 197 543 187 553 c 1,12,13
 195 560 195 560 199 566 c 128,-1,14
 203 572 203 572 205 577 c 256,15,16
 207 582 207 582 205 587 c 1,17,18
 214 590 214 590 222 589 c 128,-1,19
 230 588 230 588 238 585 c 128,-1,20
 246 582 246 582 255 579 c 128,-1,21
 264 576 264 576 275 575 c 0,22,23
 289 574 289 574 306.5 576 c 128,-1,24
 324 578 324 578 338 580 c 0,25,26
 355 583 355 583 372 587 c 1,27,28
 389 582 389 582 389.5 566.5 c 128,-1,29
 390 551 390 551 381 534 c 1,30,31
 375 538 375 538 368 540 c 0,32,33
 362 542 362 542 354 542 c 128,-1,34
 346 542 346 542 337 537 c 1,35,36
 337 528 337 528 341 502.5 c 128,-1,37
 345 477 345 477 352.5 441.5 c 128,-1,38
 360 406 360 406 369.5 364 c 128,-1,39
 379 322 379 322 389 280 c 0,40,41
 412 181 412 181 442 60 c 0,42,43
 442 52 442 52 449.5 48.5 c 128,-1,44
 457 45 457 45 466 42.5 c 128,-1,45
 475 40 475 40 482.5 37 c 128,-1,46
 490 34 490 34 491 27 c 0,47,48
 492 19 492 19 486.5 12 c 128,-1,49
 481 5 481 5 481 3 c 0,50,51
 481 2 481 2 461.5 1.5 c 128,-1,52
 442 1 442 1 414.5 1 c 128,-1,53
 387 1 387 1 357.5 1 c 128,-1,54
 328 1 328 1 308 1 c 0,55,56
 299 1 299 1 305 8 c 128,-1,57
 311 15 311 15 323 24 c 128,-1,58
 335 33 335 33 347.5 42.5 c 128,-1,59
 360 52 360 52 363 58 c 0,60,61
 370 71 370 71 369.5 87 c 128,-1,62
 369 103 369 103 365 117 c 0,63,64
 361 134 361 134 353 150 c 1,65,-1
 214 150 l 1,66,67
 203 125 203 125 197 105 c 0,68,69
 192 88 192 88 189 71.5 c 128,-1,70
 186 55 186 55 192 50 c 0,71,72
 201 42 201 42 214 33.5 c 128,-1,73
 227 25 227 25 239.5 17.5 c 128,-1,74
 252 10 252 10 261 5 c 128,-1,75
 270 0 270 0 271 1 c 1,76,77
 270 0 270 0 251.5 0 c 128,-1,78
 233 0 233 0 206 0 c 128,-1,79
 179 0 179 0 148 0.5 c 128,-1,80
 117 1 117 1 92 1 c 0,81,82
 65 1 65 1 57 9.5 c 128,-1,83
 49 18 49 18 51 20 c 0,84,85
 52 21 52 21 51.5 26.5 c 128,-1,86
 51 32 51 32 52 38 c 128,-1,87
 53 44 53 44 58.5 49 c 128,-1,88
 64 54 64 54 77 56 c 1,89,90
 76 53 76 53 81.5 49 c 128,-1,91
 87 45 87 45 94.5 42.5 c 128,-1,92
 102 40 102 40 109.5 40 c 128,-1,93
 117 40 117 40 120 44 c 0,94,95
 127 53 127 53 132 69.5 c 128,-1,96
 137 86 137 86 140 102.5 c 128,-1,97
 143 119 143 119 143.5 132 c 128,-1,98
 144 145 144 145 142 148 c 0,99,100
 129 152 129 152 118.5 151 c 128,-1,101
 108 150 108 150 100 146.5 c 128,-1,102
 92 143 92 143 87.5 140 c 128,-1,103
 83 137 83 137 83 138 c 0,104,105
 73 153 73 153 82.5 165.5 c 128,-1,106
 92 178 92 178 108 187 c 128,-1,107
 124 196 124 196 138.5 201 c 128,-1,108
 153 206 153 206 153 205 c 2,0,1
222 201 m 1,109,-1
 342 202 l 1,110,111
 325 283 325 283 313 345 c 0,112,113
 308 372 308 372 303 397.5 c 128,-1,114
 298 423 298 423 294 442.5 c 128,-1,115
 290 462 290 462 287.5 474 c 128,-1,116
 285 486 285 486 285 486 c 257,117,118
 285 486 285 486 282 473.5 c 128,-1,119
 279 461 279 461 274.5 441 c 128,-1,120
 270 421 270 421 264.5 395.5 c 128,-1,121
 259 370 259 370 253 343 c 0,122,123
 239 281 239 281 222 201 c 1,109,-1
347 652 m 1,124,125
 331 671 331 671 331.5 690.5 c 128,-1,126
 332 710 332 710 353.5 722 c 128,-1,127
 375 734 375 734 400.5 734 c 128,-1,128
 426 734 426 734 443.5 717.5 c 128,-1,129
 461 701 461 701 457 680.5 c 128,-1,130
 453 660 453 660 413.5 648 c 128,-1,131
 374 636 374 636 347 652 c 1,124,125
147 652 m 1,132,133
 129 671 129 671 129.5 690.5 c 128,-1,134
 130 710 130 710 152.5 722 c 128,-1,135
 175 734 175 734 199.5 734 c 128,-1,136
 224 734 224 734 241.5 717.5 c 128,-1,137
 259 701 259 701 255.5 680.5 c 128,-1,138
 252 660 252 660 212.5 648 c 128,-1,139
 173 636 173 636 147 652 c 1,132,133
EndSplineSet
Validated: 37
EndChar

StartChar: Odieresis
Encoding: 214 214 79
Width: 519
Flags: W
LayerCount: 2
Fore
SplineSet
117 652 m 1,0,1
 102 671 102 671 102.5 690.5 c 128,-1,2
 103 710 103 710 125 722 c 128,-1,3
 147 734 147 734 171.5 734 c 128,-1,4
 196 734 196 734 213 717.5 c 128,-1,5
 230 701 230 701 227 680.5 c 128,-1,6
 224 660 224 660 184.5 648 c 128,-1,7
 145 636 145 636 117 652 c 1,0,1
318 652 m 1,8,9
 303 671 303 671 303.5 690.5 c 128,-1,10
 304 710 304 710 325.5 722 c 128,-1,11
 347 734 347 734 371.5 734 c 128,-1,12
 396 734 396 734 414 717.5 c 128,-1,13
 432 701 432 701 428.5 680.5 c 128,-1,14
 425 660 425 660 385.5 648 c 128,-1,15
 346 636 346 636 318 652 c 1,8,9
270 584 m 0,16,17
 338 584 338 584 380 550.5 c 128,-1,18
 422 517 422 517 443.5 463.5 c 128,-1,19
 465 410 465 410 467.5 344 c 128,-1,20
 470 278 470 278 459 212 c 0,21,22
 442 109 442 109 393 56 c 128,-1,23
 344 3 344 3 270 6 c 0,24,25
 229 7 229 7 190 22.5 c 128,-1,26
 151 38 151 38 121 68 c 128,-1,27
 91 98 91 98 72 142 c 128,-1,28
 53 186 53 186 52 244 c 0,29,30
 49 312 49 312 55.5 373.5 c 128,-1,31
 62 435 62 435 85.5 482 c 128,-1,32
 109 529 109 529 153.5 556.5 c 128,-1,33
 198 584 198 584 270 584 c 0,16,17
267 533 m 0,34,35
 230 536 230 536 200.5 516 c 128,-1,36
 171 496 171 496 151 460.5 c 128,-1,37
 131 425 131 425 120.5 379 c 128,-1,38
 110 333 110 333 111 285 c 0,39,40
 113 238 113 238 125.5 194.5 c 128,-1,41
 138 151 138 151 159 117.5 c 128,-1,42
 180 84 180 84 208 63.5 c 128,-1,43
 236 43 236 43 269 43 c 256,44,45
 302 43 302 43 326.5 62 c 128,-1,46
 351 81 351 81 368.5 112.5 c 128,-1,47
 386 144 386 144 395.5 186 c 128,-1,48
 405 228 405 228 407 273 c 0,49,50
 409 321 409 321 403.5 365.5 c 128,-1,51
 398 410 398 410 382.5 445.5 c 128,-1,52
 367 481 367 481 338.5 504.5 c 128,-1,53
 310 528 310 528 267 533 c 0,34,35
EndSplineSet
Validated: 33
EndChar

StartChar: Aring
Encoding: 197 197 80
Width: 542
Flags: W
LayerCount: 2
Fore
SplineSet
153 205 m 2,0,1
 153 205 153 205 158 225 c 128,-1,2
 163 245 163 245 171 276.5 c 128,-1,3
 179 308 179 308 188 346.5 c 128,-1,4
 197 385 197 385 205.5 422 c 128,-1,5
 214 459 214 459 220 489.5 c 128,-1,6
 226 520 226 520 228 535 c 0,7,8
 228 540 228 540 225.5 540 c 128,-1,9
 223 540 223 540 217.5 539.5 c 128,-1,10
 212 539 212 539 204.5 541 c 128,-1,11
 197 543 197 543 187 553 c 1,12,13
 195 560 195 560 199 566 c 128,-1,14
 203 572 203 572 205 577 c 256,15,16
 207 582 207 582 205 587 c 1,17,18
 214 590 214 590 222 589 c 128,-1,19
 230 588 230 588 238 585 c 128,-1,20
 246 582 246 582 255 579 c 128,-1,21
 264 576 264 576 275 575 c 0,22,23
 289 574 289 574 306.5 576 c 128,-1,24
 324 578 324 578 338 580 c 0,25,26
 355 583 355 583 372 587 c 1,27,28
 389 582 389 582 389.5 566.5 c 128,-1,29
 390 551 390 551 381 534 c 1,30,31
 375 538 375 538 368 540 c 0,32,33
 362 542 362 542 354 542 c 128,-1,34
 346 542 346 542 337 537 c 1,35,36
 337 528 337 528 341 502.5 c 128,-1,37
 345 477 345 477 352.5 441.5 c 128,-1,38
 360 406 360 406 369.5 364 c 128,-1,39
 379 322 379 322 389 280 c 0,40,41
 412 181 412 181 442 60 c 0,42,43
 442 52 442 52 449.5 48.5 c 128,-1,44
 457 45 457 45 466 42.5 c 128,-1,45
 475 40 475 40 482.5 37 c 128,-1,46
 490 34 490 34 491 27 c 0,47,48
 492 19 492 19 486.5 12 c 128,-1,49
 481 5 481 5 481 3 c 0,50,51
 481 2 481 2 461.5 1.5 c 128,-1,52
 442 1 442 1 414.5 1 c 128,-1,53
 387 1 387 1 357.5 1 c 128,-1,54
 328 1 328 1 308 1 c 0,55,56
 299 1 299 1 305 8 c 128,-1,57
 311 15 311 15 323 24 c 128,-1,58
 335 33 335 33 347.5 42.5 c 128,-1,59
 360 52 360 52 363 58 c 0,60,61
 370 71 370 71 369.5 87 c 128,-1,62
 369 103 369 103 365 117 c 0,63,64
 361 134 361 134 353 150 c 1,65,-1
 214 150 l 1,66,67
 203 125 203 125 197 105 c 0,68,69
 192 88 192 88 189 71.5 c 128,-1,70
 186 55 186 55 192 50 c 0,71,72
 201 42 201 42 214 33.5 c 128,-1,73
 227 25 227 25 239.5 17.5 c 128,-1,74
 252 10 252 10 261 5 c 128,-1,75
 270 0 270 0 271 1 c 1,76,77
 270 0 270 0 251.5 0 c 128,-1,78
 233 0 233 0 206 0 c 128,-1,79
 179 0 179 0 148 0.5 c 128,-1,80
 117 1 117 1 92 1 c 0,81,82
 65 1 65 1 57 9.5 c 128,-1,83
 49 18 49 18 51 20 c 0,84,85
 52 21 52 21 51.5 26.5 c 128,-1,86
 51 32 51 32 52 38 c 128,-1,87
 53 44 53 44 58.5 49 c 128,-1,88
 64 54 64 54 77 56 c 1,89,90
 76 53 76 53 81.5 49 c 128,-1,91
 87 45 87 45 94.5 42.5 c 128,-1,92
 102 40 102 40 109.5 40 c 128,-1,93
 117 40 117 40 120 44 c 0,94,95
 127 53 127 53 132 69.5 c 128,-1,96
 137 86 137 86 140 102.5 c 128,-1,97
 143 119 143 119 143.5 132 c 128,-1,98
 144 145 144 145 142 148 c 0,99,100
 129 152 129 152 118.5 151 c 128,-1,101
 108 150 108 150 100 146.5 c 128,-1,102
 92 143 92 143 87.5 140 c 128,-1,103
 83 137 83 137 83 138 c 0,104,105
 73 153 73 153 82.5 165.5 c 128,-1,106
 92 178 92 178 108 187 c 128,-1,107
 124 196 124 196 138.5 201 c 128,-1,108
 153 206 153 206 153 205 c 2,0,1
222 201 m 1,109,-1
 342 202 l 1,110,111
 325 283 325 283 313 345 c 0,112,113
 308 372 308 372 303 397.5 c 128,-1,114
 298 423 298 423 294 442.5 c 128,-1,115
 290 462 290 462 287.5 474 c 128,-1,116
 285 486 285 486 285 486 c 257,117,118
 285 486 285 486 282 473.5 c 128,-1,119
 279 461 279 461 274.5 441 c 128,-1,120
 270 421 270 421 264.5 395.5 c 128,-1,121
 259 370 259 370 253 343 c 0,122,123
 239 281 239 281 222 201 c 1,109,-1
294 740 m 0,124,125
 317 740 317 740 331.5 733 c 128,-1,126
 346 726 346 726 353.5 715 c 128,-1,127
 361 704 361 704 362 690.5 c 128,-1,128
 363 677 363 677 359 663 c 0,129,130
 352 642 352 642 335 630.5 c 128,-1,131
 318 619 318 619 294 621 c 0,132,133
 265 621 265 621 241 633.5 c 128,-1,134
 217 646 217 646 217 670 c 0,135,136
 216 684 216 684 218.5 697 c 128,-1,137
 221 710 221 710 229.5 719.5 c 128,-1,138
 238 729 238 729 253.5 734.5 c 128,-1,139
 269 740 269 740 294 740 c 0,124,125
292 717 m 0,140,141
 272 719 272 719 260.5 706.5 c 128,-1,142
 249 694 249 694 251 678 c 0,143,144
 251 663 251 663 263.5 651 c 128,-1,145
 276 639 276 639 293 639 c 256,146,147
 310 639 310 639 319.5 650.5 c 128,-1,148
 329 662 329 662 331 676 c 0,149,150
 331 692 331 692 323.5 703.5 c 128,-1,151
 316 715 316 715 292 717 c 0,140,141
EndSplineSet
Validated: 37
EndChar

StartChar: quotesinglbase
Encoding: 8218 8218 81
Width: 217
Flags: W
LayerCount: 2
Fore
SplineSet
104 -2 m 1,0,1
 94 2 94 2 72 14.5 c 128,-1,2
 50 27 50 27 68.5 55.5 c 128,-1,3
 87 84 87 84 142 77 c 1,4,5
 167 50 167 50 166 27.5 c 128,-1,6
 165 5 165 5 157 -3 c 0,7,8
 67 -76 67 -76 59 -60 c 1,9,10
 101 -13 101 -13 104 -2 c 1,0,1
EndSplineSet
Validated: 33
EndChar

StartChar: Udieresis
Encoding: 220 220 82
Width: 499
Flags: W
LayerCount: 2
Fore
SplineSet
449 34 m 0,0,1
 449 30 449 30 447.5 24 c 128,-1,2
 446 18 446 18 444.5 12 c 128,-1,3
 443 6 443 6 442 2.5 c 128,-1,4
 441 -1 441 -1 441 -1 c 1,5,-1
 346 -1 l 2,6,7
 337 -1 337 -1 336.5 10 c 128,-1,8
 336 21 336 21 339 35 c 1,9,10
 318 24 318 24 288 11.5 c 128,-1,11
 258 -1 258 -1 211 -1 c 0,12,13
 156 -1 156 -1 123 27.5 c 128,-1,14
 90 56 90 56 73.5 102 c 128,-1,15
 57 148 57 148 54 205 c 128,-1,16
 51 262 51 262 55.5 319 c 128,-1,17
 60 376 60 376 68.5 427 c 128,-1,18
 77 478 77 478 85 511 c 1,19,20
 80 508 80 508 75 505.5 c 128,-1,21
 70 503 70 503 65.5 504 c 128,-1,22
 61 505 61 505 57 511 c 128,-1,23
 53 517 53 517 51 531 c 0,24,25
 49 541 49 541 51.5 549.5 c 128,-1,26
 54 558 54 558 60 564.5 c 128,-1,27
 66 571 66 571 73 575 c 128,-1,28
 80 579 80 579 87 581 c 0,29,30
 100 583 100 583 111.5 575.5 c 128,-1,31
 123 568 123 568 132.5 557.5 c 128,-1,32
 142 547 142 547 149.5 537.5 c 128,-1,33
 157 528 157 528 162 525 c 0,34,35
 177 526 177 526 188 526 c 0,36,37
 197 526 197 526 202 525 c 128,-1,38
 207 524 207 524 201 522 c 0,39,40
 188 519 188 519 177 506 c 128,-1,41
 166 493 166 493 157 476 c 1,42,43
 155 444 155 444 149 400.5 c 128,-1,44
 143 357 143 357 139 311.5 c 128,-1,45
 135 266 135 266 135.5 221 c 128,-1,46
 136 176 136 176 145.5 140.5 c 128,-1,47
 155 105 155 105 176.5 83 c 128,-1,48
 198 61 198 61 237 60 c 0,49,50
 275 61 275 61 298.5 84 c 128,-1,51
 322 107 322 107 335 144 c 128,-1,52
 348 181 348 181 352 227.5 c 128,-1,53
 356 274 356 274 355 322.5 c 128,-1,54
 354 371 354 371 350 417 c 128,-1,55
 346 463 346 463 342 499 c 128,-1,56
 338 535 338 535 336.5 556 c 128,-1,57
 335 577 335 577 339 576 c 2,58,-1
 377 576 l 2,59,60
 391 576 391 576 404 575.5 c 128,-1,61
 417 575 417 575 420 576 c 0,62,63
 421 576 421 576 422.5 552 c 128,-1,64
 424 528 424 528 425 488 c 128,-1,65
 426 448 426 448 426 396 c 128,-1,66
 426 344 426 344 425 288.5 c 128,-1,67
 424 233 424 233 422.5 178 c 128,-1,68
 421 123 421 123 418 77 c 2,69,-1
 418 74 l 1,70,71
 429 64 429 64 438.5 53.5 c 128,-1,72
 448 43 448 43 449 34 c 0,0,1
295 650 m 1,73,74
 280 669 280 669 280.5 688.5 c 128,-1,75
 281 708 281 708 302.5 720 c 128,-1,76
 324 732 324 732 349.5 732 c 128,-1,77
 375 732 375 732 393 715.5 c 128,-1,78
 411 699 411 699 406.5 678.5 c 128,-1,79
 402 658 402 658 362.5 646 c 128,-1,80
 323 634 323 634 295 650 c 1,73,74
94 650 m 1,81,82
 79 669 79 669 79.5 688.5 c 128,-1,83
 80 708 80 708 102 720 c 128,-1,84
 124 732 124 732 148.5 732 c 128,-1,85
 173 732 173 732 190 715.5 c 128,-1,86
 207 699 207 699 204 678.5 c 128,-1,87
 201 658 201 658 161.5 646 c 128,-1,88
 122 634 122 634 94 650 c 1,81,82
EndSplineSet
Validated: 33
EndChar

StartChar: quotedblleft
Encoding: 8220 8220 83
Width: 495
Flags: W
LayerCount: 2
Fore
SplineSet
361 634 m 1,0,1
 375 629 375 629 395 622 c 128,-1,2
 415 615 415 615 428 603.5 c 128,-1,3
 441 592 441 592 443 574.5 c 128,-1,4
 445 557 445 557 423 530 c 0,5,6
 416 521 416 521 401 514.5 c 128,-1,7
 386 508 386 508 368.5 506 c 128,-1,8
 351 504 351 504 333.5 506.5 c 128,-1,9
 316 509 316 509 303 518 c 0,10,11
 288 528 288 528 279 543 c 128,-1,12
 270 558 270 558 266 574.5 c 128,-1,13
 262 591 262 591 266.5 607.5 c 128,-1,14
 271 624 271 624 283 636 c 0,15,16
 347 701 347 701 382 722 c 128,-1,17
 417 743 417 743 427 719 c 0,18,19
 435 696 435 696 427.5 686 c 128,-1,20
 420 676 420 676 407.5 670 c 128,-1,21
 395 664 395 664 380.5 657.5 c 128,-1,22
 366 651 366 651 361 634 c 1,0,1
150 638 m 1,23,24
 164 633 164 633 183 626 c 128,-1,25
 202 619 202 619 215.5 607.5 c 128,-1,26
 229 596 229 596 231 578.5 c 128,-1,27
 233 561 233 561 211 534 c 0,28,29
 204 525 204 525 189.5 518.5 c 128,-1,30
 175 512 175 512 157.5 510 c 128,-1,31
 140 508 140 508 123 510.5 c 128,-1,32
 106 513 106 513 93 522 c 0,33,34
 77 532 77 532 67 547 c 128,-1,35
 57 562 57 562 53.5 578.5 c 128,-1,36
 50 595 50 595 54 611.5 c 128,-1,37
 58 628 58 628 70 640 c 0,38,39
 135 705 135 705 170 726 c 128,-1,40
 205 747 205 747 215 723 c 0,41,42
 223 700 223 700 216 690 c 128,-1,43
 209 680 209 680 196 674 c 128,-1,44
 183 668 183 668 168.5 661.5 c 128,-1,45
 154 655 154 655 150 638 c 1,23,24
EndSplineSet
Validated: 33
EndChar

StartChar: quoteleft
Encoding: 8216 8216 84
Width: 283
Flags: W
LayerCount: 2
Fore
SplineSet
150 638 m 1,0,1
 164 633 164 633 183 626 c 128,-1,2
 202 619 202 619 215.5 607.5 c 128,-1,3
 229 596 229 596 231 578.5 c 128,-1,4
 233 561 233 561 211 534 c 0,5,6
 204 525 204 525 189.5 518.5 c 128,-1,7
 175 512 175 512 157.5 510 c 128,-1,8
 140 508 140 508 123 510.5 c 128,-1,9
 106 513 106 513 93 522 c 0,10,11
 77 532 77 532 67 547 c 128,-1,12
 57 562 57 562 53.5 578.5 c 128,-1,13
 50 595 50 595 54 611.5 c 128,-1,14
 58 628 58 628 70 640 c 0,15,16
 135 705 135 705 170 726 c 128,-1,17
 205 747 205 747 215 723 c 0,18,19
 223 700 223 700 216 690 c 128,-1,20
 209 680 209 680 196 674 c 128,-1,21
 183 668 183 668 168.5 661.5 c 128,-1,22
 154 655 154 655 150 638 c 1,0,1
EndSplineSet
Validated: 33
EndChar

StartChar: quoteright
Encoding: 8217 8217 85
Width: 284
Flags: W
LayerCount: 2
Fore
SplineSet
135 595 m 1,0,1
 120 600 120 600 101 607 c 128,-1,2
 82 614 82 614 69 625.5 c 128,-1,3
 56 637 56 637 53 654.5 c 128,-1,4
 50 672 50 672 72 699 c 0,5,6
 80 708 80 708 95 714.5 c 128,-1,7
 110 721 110 721 127 723 c 128,-1,8
 144 725 144 725 161.5 722.5 c 128,-1,9
 179 720 179 720 192 711 c 0,10,11
 207 701 207 701 217 686 c 128,-1,12
 227 671 227 671 230.5 654.5 c 128,-1,13
 234 638 234 638 229.5 621.5 c 128,-1,14
 225 605 225 605 213 593 c 0,15,16
 151 528 151 528 115 507 c 128,-1,17
 79 486 79 486 70 510 c 0,18,19
 60 533 60 533 67.5 542.5 c 128,-1,20
 75 552 75 552 88 558 c 128,-1,21
 101 564 101 564 115.5 571 c 128,-1,22
 130 578 130 578 135 595 c 1,0,1
EndSplineSet
Validated: 33
EndChar

StartChar: quotedblright
Encoding: 8221 8221 86
Width: 495
Flags: W
LayerCount: 2
Fore
SplineSet
135 614 m 1,0,1
 120 619 120 619 101 626 c 128,-1,2
 82 633 82 633 69 644.5 c 128,-1,3
 56 656 56 656 53 673.5 c 128,-1,4
 50 691 50 691 72 718 c 0,5,6
 80 727 80 727 95 733.5 c 128,-1,7
 110 740 110 740 127 742 c 128,-1,8
 144 744 144 744 161.5 741.5 c 128,-1,9
 179 739 179 739 192 730 c 0,10,11
 207 720 207 720 217 705 c 128,-1,12
 227 690 227 690 230.5 673.5 c 128,-1,13
 234 657 234 657 229.5 640.5 c 128,-1,14
 225 624 225 624 213 612 c 0,15,16
 151 547 151 547 115 526 c 128,-1,17
 79 505 79 505 70 529 c 0,18,19
 60 552 60 552 67.5 561.5 c 128,-1,20
 75 571 75 571 88 577 c 128,-1,21
 101 583 101 583 115.5 590 c 128,-1,22
 130 597 130 597 135 614 c 1,0,1
346 610 m 1,23,24
 332 615 332 615 313.5 622 c 128,-1,25
 295 629 295 629 281 640.5 c 128,-1,26
 267 652 267 652 265 669.5 c 128,-1,27
 263 687 263 687 285 714 c 0,28,29
 291 723 291 723 306.5 729.5 c 128,-1,30
 322 736 322 736 339 738 c 128,-1,31
 356 740 356 740 373 737.5 c 128,-1,32
 390 735 390 735 405 726 c 0,33,34
 419 716 419 716 428.5 701 c 128,-1,35
 438 686 438 686 441.5 669.5 c 128,-1,36
 445 653 445 653 441 636.5 c 128,-1,37
 437 620 437 620 425 608 c 0,38,39
 362 543 362 543 326 522 c 128,-1,40
 290 501 290 501 283 525 c 0,41,42
 273 548 273 548 280 557.5 c 128,-1,43
 287 567 287 567 299.5 573 c 128,-1,44
 312 579 312 579 326.5 586 c 128,-1,45
 341 593 341 593 346 610 c 1,23,24
EndSplineSet
Validated: 33
EndChar

StartChar: bullet
Encoding: 8226 8226 87
Width: 401
Flags: W
LayerCount: 2
Fore
SplineSet
86 178 m 1,0,1
 50 222 50 222 51.5 267 c 128,-1,2
 53 312 53 312 77 328.5 c 128,-1,3
 101 345 101 345 127.5 355.5 c 128,-1,4
 154 366 154 366 182.5 370.5 c 128,-1,5
 211 375 211 375 292 353 c 1,6,7
 351 291 351 291 343 242.5 c 128,-1,8
 335 194 335 194 305 174 c 1,9,10
 151 140 151 140 86 178 c 1,0,1
EndSplineSet
Validated: 33
EndChar

StartChar: periodcentered
Encoding: 183 183 88
Width: 287
Flags: W
LayerCount: 2
Fore
SplineSet
149 329 m 0,0,1
 179 329 179 329 197.5 321 c 128,-1,2
 216 313 216 313 225.5 301 c 128,-1,3
 235 289 235 289 236 273.5 c 128,-1,4
 237 258 237 258 232 243 c 0,5,6
 224 219 224 219 202 206 c 128,-1,7
 180 193 180 193 149 195 c 0,8,9
 111 195 111 195 82 209 c 128,-1,10
 53 223 53 223 51 250 c 0,11,12
 49 266 49 266 52 280 c 128,-1,13
 55 294 55 294 65.5 305 c 128,-1,14
 76 316 76 316 96 322.5 c 128,-1,15
 116 329 116 329 149 329 c 0,0,1
EndSplineSet
Validated: 33
EndChar

StartChar: exclamdown
Encoding: 161 161 89
Width: 244
Flags: W
LayerCount: 2
Fore
SplineSet
165 240 m 1,0,-1
 165 -283 l 1,1,-1
 91 -281 l 1,2,-1
 89 236 l 1,3,-1
 165 240 l 1,0,-1
120 363 m 256,4,5
 96 363 96 363 81 369 c 128,-1,6
 66 375 66 375 58.5 384.5 c 128,-1,7
 51 394 51 394 50.5 405.5 c 128,-1,8
 50 417 50 417 54 429 c 0,9,10
 59 448 59 448 76.5 458 c 128,-1,11
 94 468 94 468 120 466 c 0,12,13
 133 466 133 466 146 463.5 c 128,-1,14
 159 461 159 461 169.5 455.5 c 128,-1,15
 180 450 180 450 186.5 442 c 128,-1,16
 193 434 193 434 193 424 c 0,17,18
 194 412 194 412 192 400.5 c 128,-1,19
 190 389 190 389 182 381 c 128,-1,20
 174 373 174 373 159 368 c 128,-1,21
 144 363 144 363 120 363 c 256,4,5
EndSplineSet
Validated: 33
EndChar

StartChar: ellipsis
Encoding: 8230 8230 90
Width: 648
Flags: W
LayerCount: 2
Fore
SplineSet
126 104 m 0,0,1
 150 104 150 104 164.5 98 c 128,-1,2
 179 92 179 92 186.5 82.5 c 128,-1,3
 194 73 194 73 194.5 61.5 c 128,-1,4
 195 50 195 50 191 38 c 0,5,6
 178 -2 178 -2 126 1 c 0,7,8
 98 1 98 1 75 11.5 c 128,-1,9
 52 22 52 22 51 43 c 0,10,11
 50 55 50 55 52.5 66.5 c 128,-1,12
 55 78 55 78 63 86 c 128,-1,13
 71 94 71 94 86 99 c 128,-1,14
 101 104 101 104 126 104 c 0,0,1
326 103 m 0,15,16
 350 103 350 103 365 97 c 128,-1,17
 380 91 380 91 387.5 81.5 c 128,-1,18
 395 72 395 72 395.5 60.5 c 128,-1,19
 396 49 396 49 392 37 c 0,20,21
 378 -3 378 -3 326 0 c 0,22,23
 298 0 298 0 276 10.5 c 128,-1,24
 254 21 254 21 251 42 c 0,25,26
 250 54 250 54 252.5 65.5 c 128,-1,27
 255 77 255 77 263 85 c 128,-1,28
 271 93 271 93 286 98 c 128,-1,29
 301 103 301 103 326 103 c 0,15,16
529 105 m 0,30,31
 552 105 552 105 566.5 99 c 128,-1,32
 581 93 581 93 588.5 83.5 c 128,-1,33
 596 74 596 74 597 62.5 c 128,-1,34
 598 51 598 51 595 39 c 0,35,36
 582 -1 582 -1 529 2 c 0,37,38
 500 2 500 2 478 12.5 c 128,-1,39
 456 23 456 23 455 44 c 0,40,41
 454 56 454 56 456 67.5 c 128,-1,42
 458 79 458 79 466 87 c 128,-1,43
 474 95 474 95 489 100 c 128,-1,44
 504 105 504 105 529 105 c 0,30,31
EndSplineSet
Validated: 33
EndChar

StartChar: oslash
Encoding: 248 248 91
Width: 513
Flags: W
LayerCount: 2
Fore
SplineSet
268 417 m 0,0,1
 295 417 295 417 318 411 c 1,2,-1
 337 451 l 1,3,-1
 411 433 l 1,4,-1
 388 385 l 1,5,6
 415 367 415 367 432 341 c 128,-1,7
 449 315 449 315 456.5 284 c 128,-1,8
 464 253 464 253 463 219.5 c 128,-1,9
 462 186 462 186 454 153 c 0,10,11
 436 79 436 79 386 38 c 128,-1,12
 336 -3 336 -3 264 0 c 0,13,14
 234 0 234 0 206 6 c 1,15,-1
 189 -30 l 1,16,-1
 122 -7 l 1,17,-1
 140 32 l 1,18,19
 102 54 102 54 78 90 c 128,-1,20
 54 126 54 126 52 175 c 0,21,22
 49 223 49 223 55.5 267 c 128,-1,23
 62 311 62 311 85 344.5 c 128,-1,24
 108 378 108 378 152 397.5 c 128,-1,25
 196 417 196 417 268 417 c 0,0,1
260 358 m 0,26,27
 228 360 228 360 203 347.5 c 128,-1,28
 178 335 178 335 160.5 313.5 c 128,-1,29
 143 292 143 292 134.5 263.5 c 128,-1,30
 126 235 126 235 126 205 c 0,31,32
 127 174 127 174 138 145 c 128,-1,33
 149 116 149 116 169 93 c 1,34,-1
 290 353 l 1,35,36
 283 355 283 355 275.5 356 c 128,-1,37
 268 357 268 357 260 358 c 0,26,27
260 48 m 0,38,39
 289 48 289 48 311 61 c 128,-1,40
 333 74 333 74 349 95 c 128,-1,41
 365 116 365 116 373.5 143 c 128,-1,42
 382 170 382 170 384 198 c 0,43,44
 386 231 386 231 379.5 261 c 128,-1,45
 373 291 373 291 354 314 c 1,46,-1
 228 52 l 1,47,48
 241 48 241 48 260 48 c 0,38,39
EndSplineSet
Validated: 33
EndChar

StartChar: degree
Encoding: 176 176 92
Width: 311
Flags: W
LayerCount: 2
Fore
SplineSet
161 696 m 0,0,1
 195 696 195 696 216 686 c 128,-1,2
 237 676 237 676 247.5 660.5 c 128,-1,3
 258 645 258 645 259.5 625 c 128,-1,4
 261 605 261 605 256 585 c 0,5,6
 247 555 247 555 221.5 538.5 c 128,-1,7
 196 522 196 522 161 524 c 0,8,9
 140 524 140 524 120.5 529 c 128,-1,10
 101 534 101 534 86 543 c 128,-1,11
 71 552 71 552 61.5 565 c 128,-1,12
 52 578 52 578 51 595 c 0,13,14
 50 615 50 615 53.5 633.5 c 128,-1,15
 57 652 57 652 68.5 666 c 128,-1,16
 80 680 80 680 102.5 688 c 128,-1,17
 125 696 125 696 161 696 c 0,0,1
158 663 m 0,18,19
 144 664 144 664 133 659.5 c 128,-1,20
 122 655 122 655 114.5 647 c 128,-1,21
 107 639 107 639 103 628.5 c 128,-1,22
 99 618 99 618 99 607 c 0,23,24
 99 585 99 585 116.5 568 c 128,-1,25
 134 551 134 551 160 551 c 256,26,27
 186 551 186 551 200 567 c 128,-1,28
 214 583 214 583 215 603 c 0,29,30
 216 626 216 626 204.5 643.5 c 128,-1,31
 193 661 193 661 158 663 c 0,18,19
EndSplineSet
Validated: 33
EndChar

StartChar: quotesingle
Encoding: 39 39 93
Width: 284
Flags: W
LayerCount: 2
Fore
SplineSet
135 595 m 1,0,1
 120 600 120 600 101 607 c 128,-1,2
 82 614 82 614 69 625.5 c 128,-1,3
 56 637 56 637 53 654.5 c 128,-1,4
 50 672 50 672 72 699 c 0,5,6
 80 708 80 708 95 714.5 c 128,-1,7
 110 721 110 721 127 723 c 128,-1,8
 144 725 144 725 161.5 722.5 c 128,-1,9
 179 720 179 720 192 711 c 0,10,11
 207 701 207 701 217 686 c 128,-1,12
 227 671 227 671 230.5 654.5 c 128,-1,13
 234 638 234 638 229.5 621.5 c 128,-1,14
 225 605 225 605 213 593 c 0,15,16
 151 528 151 528 115 507 c 128,-1,17
 79 486 79 486 70 510 c 0,18,19
 60 533 60 533 67.5 542.5 c 128,-1,20
 75 552 75 552 88 558 c 128,-1,21
 101 564 101 564 115.5 571 c 128,-1,22
 130 578 130 578 135 595 c 1,0,1
EndSplineSet
Validated: 33
EndChar

StartChar: backslash
Encoding: 92 92 94
Width: 592
Flags: W
LayerCount: 2
Fore
SplineSet
50 723 m 1,0,-1
 118 744 l 1,1,-1
 542 32 l 1,2,-1
 473 6 l 1,3,-1
 50 723 l 1,0,-1
EndSplineSet
Validated: 1
EndChar

StartChar: hyphen
Encoding: 45 45 95
Width: 472
Flags: W
LayerCount: 2
Fore
SplineSet
422 192 m 1,0,-1
 50 185 l 1,1,-1
 56 291 l 1,2,-1
 419 300 l 1,3,-1
 422 192 l 1,0,-1
EndSplineSet
Validated: 1
EndChar

StartChar: endash
Encoding: 8211 8211 96
Width: 472
Flags: W
LayerCount: 2
Fore
SplineSet
422 192 m 1,0,-1
 50 185 l 1,1,-1
 54 268 l 1,2,-1
 417 277 l 1,3,-1
 422 192 l 1,0,-1
EndSplineSet
Validated: 1
EndChar

StartChar: emdash
Encoding: 8212 8212 97
Width: 890
Flags: W
LayerCount: 2
Fore
SplineSet
840 220 m 1,0,-1
 50 213 l 1,1,-1
 54 268 l 1,2,-1
 835 277 l 1,3,-1
 840 220 l 1,0,-1
EndSplineSet
Validated: 1
EndChar

StartChar: minus
Encoding: 8722 8722 98
Width: 472
Flags: W
LayerCount: 2
Fore
SplineSet
422 220 m 1,0,-1
 50 213 l 1,1,-1
 54 268 l 1,2,-1
 417 277 l 1,3,-1
 422 220 l 1,0,-1
EndSplineSet
Validated: 1
EndChar

StartChar: plus
Encoding: 43 43 99
Width: 516
Flags: W
LayerCount: 2
Fore
SplineSet
220 126 m 1,0,-1
 197 287 l 1,1,-1
 50 295 l 1,2,-1
 51 364 l 1,3,-1
 187 398 l 1,4,-1
 194 568 l 1,5,-1
 280 567 l 1,6,-1
 307 404 l 1,7,-1
 453 404 l 1,8,-1
 466 310 l 1,9,-1
 318 292 l 1,10,-1
 311 132 l 1,11,-1
 220 126 l 1,0,-1
EndSplineSet
Validated: 1
EndChar

StartChar: fraction
Encoding: 8260 8260 100
Width: 545
Flags: W
LayerCount: 2
Fore
SplineSet
119 0 m 1,0,-1
 50 22 l 1,1,-1
 421 750 l 1,2,-1
 495 733 l 1,3,-1
 119 0 l 1,0,-1
EndSplineSet
Validated: 1
EndChar

